<?xml version="1.0" standalone="no"?>
<!DOCTYPE svg PUBLIC "-//W3C//DTD SVG 1.1//EN" "http://www.w3.org/Graphics/SVG/1.1/DTD/svg11.dtd" >
<svg xmlns="http://www.w3.org/2000/svg" xmlns:xlink="http://www.w3.org/1999/xlink" version="1.1">
<metadata>
Created by FontForge 20170731 at Thu Dec  1 16:57:28 2022
 By Aleksey,,,
Copyright 2019 The Sofia Sans Project Authors (https://github.com/lettersoup/Sofia-Sans)
</metadata>
<defs>
<font id="SofiaSans-Regular" horiz-adv-x="0" >
  <font-face 
    font-family="Sofia Sans"
    font-weight="400"
    font-stretch="normal"
    units-per-em="1000"
    panose-1="0 0 0 0 0 0 0 0 0 0"
    ascent="800"
    descent="-200"
    x-height="488"
    cap-height="655"
    bbox="-150.471 -239.5 1293 900.5"
    underline-thickness="50"
    underline-position="-175"
    unicode-range="U+000D-FB02"
  />
<missing-glyph horiz-adv-x="596" 
d="M110 0q-4 0 -7 3t-3 7v663q0 5 3 7.5t7 2.5h376q5 0 7.5 -2.5t2.5 -7.5v-663q0 -4 -2.5 -7t-7.5 -3h-376zM165 65h266v553h-266v-553z" />
    <glyph glyph-name="f_f" unicode="ff" horiz-adv-x="729" 
d="M117 0q-4 0 -7 3t-3 7v405h-77q-4 0 -7 3t-3 7v53q0 5 3 7.5t7 2.5h77v52q0 74 43.5 114.5t119.5 40.5q23 0 47 -4.5t41 -11.5q19 -7 19 -17v-53q0 -6 -4.5 -8t-18.5 4q-16 7 -38 11.5t-40 4.5q-41 0 -62.5 -21t-21.5 -62v-50h145q10 0 10 -10v-53q0 -4 -2.5 -7t-7.5 -3
h-145v-405q0 -4 -2.5 -7t-7.5 -3h-65zM479 0q-4 0 -7 3t-3 7v405h-77q-4 0 -7 3t-3 7v53q0 5 3 7.5t7 2.5h77v52q0 74 43.5 114.5t119.5 40.5q23 0 47 -4.5t41 -11.5q19 -7 19 -17v-53q0 -6 -4.5 -8t-18.5 4q-16 7 -38 11.5t-40 4.5q-41 0 -62.5 -21t-21.5 -62v-50h145
q10 0 10 -10v-53q0 -4 -2.5 -7t-7.5 -3h-145v-405q0 -4 -2.5 -7t-7.5 -3h-65z" />
    <glyph glyph-name="f_i" unicode="fi" horiz-adv-x="568" 
d="M117 0q-4 0 -7 3t-3 7v405h-77q-4 0 -7 3t-3 7v53q0 5 3 7.5t7 2.5h77v46q0 82 44.5 121.5t138.5 39.5q26 0 57 -3.5t52 -7.5q9 -1 9 -11v-53q0 -11 -11 -9q-28 6 -55 10t-53 4q-48 0 -72.5 -18.5t-24.5 -57.5v-61h291q10 0 10 -10v-468q0 -10 -10 -10h-65q-10 0 -10 10
v405h-216v-405q0 -4 -2.5 -7t-7.5 -3h-65z" />
    <glyph glyph-name="f_l" unicode="fl" horiz-adv-x="568" 
d="M117 0q-4 0 -7 3t-3 7v405h-77q-4 0 -7 3t-3 7v53q0 5 3 7.5t7 2.5h77v46q0 86 47 123.5t136 37.5q38 0 73 -5.5t56 -8.5l64 2q10 0 10 -10v-663q0 -10 -10 -10h-65q-10 0 -10 10v601q-28 5 -59.5 9.5t-60.5 4.5q-46 0 -71 -18.5t-25 -57.5v-61h102q5 0 7.5 -2.5
t2.5 -7.5v-53q0 -4 -2.5 -7t-7.5 -3h-102v-405q0 -4 -2.5 -7t-7.5 -3h-65z" />
    <glyph glyph-name=".notdef" horiz-adv-x="596" 
d="M110 0q-4 0 -7 3t-3 7v663q0 5 3 7.5t7 2.5h376q5 0 7.5 -2.5t2.5 -7.5v-663q0 -4 -2.5 -7t-7.5 -3h-376zM165 65h266v553h-266v-553z" />
    <glyph glyph-name=".null" 
 />
    <glyph glyph-name="nonmarkingreturn" horiz-adv-x="333" 
 />
    <glyph glyph-name="CR" unicode="&#xd;" horiz-adv-x="10" 
 />
    <glyph glyph-name="space" unicode=" " horiz-adv-x="210" 
 />
    <glyph glyph-name="exclam" unicode="!" horiz-adv-x="231" 
d="M85 200q-10 0 -10 10l-6 435q0 10 10 10h73q10 0 10 -10l-6 -435q0 -10 -10 -10h-61zM116 -12q-30 0 -43 15.5t-13 40.5v10q0 25 13 40.5t43 15.5t43 -15.5t13 -40.5v-10q0 -25 -13 -40.5t-43 -15.5z" />
    <glyph glyph-name="quotedbl" unicode="&#x22;" horiz-adv-x="325" 
d="M200 429q-10 0 -10 10v234q0 10 10 10h65q10 0 10 -10v-234q0 -10 -10 -10h-65zM60 429q-10 0 -10 10v234q0 10 10 10h65q10 0 10 -10v-234q0 -10 -10 -10h-65z" />
    <glyph glyph-name="numbersign" unicode="#" horiz-adv-x="600" 
d="M132 0q-10 0 -10 10v115h-82q-10 0 -10 10v50q0 10 10 10h82v223h-82q-10 0 -10 10v50q0 10 10 10h82v115q0 10 10 10h65q10 0 10 -10v-115h186v115q0 10 10 10h65q10 0 10 -10v-115h82q10 0 10 -10v-50q0 -10 -10 -10h-82v-223h82q10 0 10 -10v-50q0 -10 -10 -10h-82
v-115q0 -10 -10 -10h-65q-10 0 -10 10v115h-186v-115q0 -10 -10 -10h-65zM207 195h186v223h-186v-223z" />
    <glyph glyph-name="dollar" unicode="$" horiz-adv-x="630" 
d="M312 -12q-97 0 -153.5 47.5t-56.5 146.5q0 10 10 10h64q9 0 9 -11q0 -55 30 -87t100 -32q68 0 99 23.5t31 79.5q0 26 -7.5 44.5t-24.5 33t-46 27.5l-132 61q-61 28 -92.5 69.5t-30.5 102.5q1 86 57 124.5t145 38.5q96 0 152 -47t56 -142q0 -10 -9 -10h-64q-10 0 -10 10
q0 58 -32.5 86.5t-94.5 28.5q-55 0 -85 -21t-31 -65q-1 -39 20 -63.5t65 -44.5l130 -61q38 -17 64.5 -38t40.5 -51.5t14 -79.5q0 -88 -60 -134t-158 -46zM291 -89q-10 0 -10 10v83l76 5v-88q0 -10 -10 -10h-56zM281 649v83q0 10 10 10h56q10 0 10 -10v-88z" />
    <glyph glyph-name="percent" unicode="%" horiz-adv-x="942" 
d="M247 0q-14 0 -7 12l197 329l180 309q5 7 12 7h66q14 0 7 -12l-186 -310l-191 -328q-5 -7 -12 -7h-66zM229 317q-85 0 -127 42t-42 118v30q0 77 42.5 118.5t126.5 41.5q85 0 126.5 -41.5t41.5 -118.5v-30q0 -76 -42 -118t-126 -42zM229 381q49 0 71 22t22 72v34
q0 51 -22 72.5t-71 21.5t-71.5 -22t-22.5 -72v-34q0 -50 22.5 -72t71.5 -22zM713 -12q-85 0 -126.5 42t-41.5 118v30q0 77 42 118.5t126 41.5q85 0 127 -41.5t42 -118.5v-30q0 -76 -42.5 -118t-126.5 -42zM713 52q49 0 71.5 22t22.5 72v34q0 50 -22 72t-72 22q-49 0 -71 -22
t-22 -72v-34q0 -51 22 -72.5t71 -21.5z" />
    <glyph glyph-name="ampersand" unicode="&#x26;" horiz-adv-x="672" 
d="M556 0q-4 0 -7.5 1.5t-5.5 3.5l-356 346q-48 47 -71 89t-23 85q0 74 42 108t117 34q68 0 107 -35t39 -100q0 -31 -14.5 -59.5t-43 -58.5t-72.5 -64l-53 49q35 27 57.5 49.5t33 43t10.5 40.5q0 31 -16 46.5t-53 15.5q-38 0 -55 -18t-17 -50q0 -30 18.5 -59.5t58.5 -68.5
l400 -385q5 -4 3.5 -8.5t-8.5 -4.5h-91zM254 -12q-70 0 -115 23.5t-67 63.5t-22 89q0 47 17.5 84.5t48.5 69t70 60.5l58 -46q-43 -34 -67.5 -59.5t-34.5 -50t-10 -56.5q0 -43 33.5 -73t97.5 -30q84 0 132.5 35.5t69.5 101t21 154.5q0 10 10 10h63q10 0 10 -10
q0 -113 -34 -195t-104 -126.5t-177 -44.5z" />
    <glyph glyph-name="quotesingle" unicode="'" horiz-adv-x="185" 
d="M60 429q-10 0 -10 10v234q0 10 10 10h65q10 0 10 -10v-234q0 -10 -10 -10h-65z" />
    <glyph glyph-name="parenleft" unicode="(" horiz-adv-x="270" 
d="M168 -140q-36 29 -56 56t-28.5 60t-8.5 78v448q0 46 9.5 77t30.5 58t53 59q3 3 7 3t7 -3l41 -41q7 -7 0 -14q-23 -23 -37 -41.5t-20 -40.5t-6 -57v-448q0 -34 7 -55.5t21 -39.5t35 -44q6 -8 0 -14l-41 -41q-3 -3 -6.5 -3t-7.5 3z" />
    <glyph glyph-name="parenright" unicode=")" horiz-adv-x="270" 
d="M88 -140l-41 41q-6 6 0 14q23 24 36.5 42.5t20 40.5t6.5 56v448q0 35 -6 57t-20 40.5t-37 41.5q-7 7 0 14l41 41q3 3 7 3t7 -3q35 -30 55 -57.5t29 -59t9 -77.5v-448q0 -45 -8 -78t-28.5 -60t-56.5 -56q-4 -3 -7.5 -3t-6.5 3z" />
    <glyph glyph-name="asterisk" unicode="*" horiz-adv-x="414" 
d="M141 416l-40 30q-4 3 -4 7t3 7l67 77l-100 22q-6 1 -6.5 4.5t0.5 7.5l16 46q2 5 5.5 6.5t7.5 -0.5l92 -39l-9 101q-2 10 9 10h49q11 0 9 -10l-9 -102l93 40q4 2 8 0.5t5 -6.5l16 -46q2 -6 0.5 -8.5t-6.5 -3.5l-101 -23l67 -76q4 -4 3 -7.5t-5 -6.5l-40 -29q-8 -6 -13 3
l-52 87l-52 -88q-3 -4 -6 -5t-7 2z" />
    <glyph glyph-name="plus" unicode="+" horiz-adv-x="600" 
d="M272 113q-10 0 -10 10v142h-160q-10 0 -10 10v51q0 10 10 10h160v142q0 10 10 10h56q10 0 10 -10v-142h160q10 0 10 -10v-51q0 -10 -10 -10h-160v-142q0 -10 -10 -10h-56z" />
    <glyph glyph-name="comma" unicode="," horiz-adv-x="232" 
d="M40 -128q-12 0 -9 13l50 211q2 9 10 9h76q13 0 8 -14l-72 -212q-3 -7 -9 -7h-54z" />
    <glyph glyph-name="hyphen" unicode="-" horiz-adv-x="490" 
d="M80 233q-10 0 -10 10v45q0 10 10 10h330q10 0 10 -10v-45q0 -10 -10 -10h-330z" />
    <glyph glyph-name="period" unicode="." horiz-adv-x="232" 
d="M116 -12q-30 0 -43 15.5t-13 40.5v10q0 25 13 40.5t43 15.5t43 -15.5t13 -40.5v-10q0 -25 -13 -40.5t-43 -15.5z" />
    <glyph glyph-name="slash" unicode="/" horiz-adv-x="372" 
d="M22 0q-14 0 -9 11l263 636q3 8 12 8h62q14 0 9 -11l-263 -636q-3 -8 -12 -8h-62z" />
    <glyph glyph-name="zero" unicode="0" horiz-adv-x="580" 
d="M290 -12q-105 0 -164 60t-59 167v225q0 107 59 167t164 60t164 -60t59 -167v-225q0 -107 -59 -167t-164 -60zM290 63q65 0 101.5 38.5t36.5 105.5v241q0 68 -36.5 106t-101.5 38t-101.5 -38t-36.5 -106v-241q0 -67 36.5 -105.5t101.5 -38.5z" />
    <glyph glyph-name="one" unicode="1" horiz-adv-x="454" 
d="M50 0q-10 0 -10 10v57q0 10 10 10h156v481l-150 -47q-10 -3 -10 7v59q0 8 6 10l209 70q3 1 6.5 1.5t7.5 0.5h6q10 0 10 -10v-572h138q10 0 10 -10v-57q0 -10 -10 -10h-379z" />
    <glyph glyph-name="two" unicode="2" horiz-adv-x="540" 
d="M80 0q-10 0 -10 10v69q0 48 17.5 85.5t46.5 66.5t63.5 53.5t69 47t63.5 45t46.5 49t17.5 59.5v21q0 43 -30.5 64.5t-89.5 21.5t-87.5 -26t-28.5 -73q0 -10 -9 -10h-65q-10 0 -10 10q0 56 23 95t69.5 59t116.5 20q99 0 147.5 -42t48.5 -123q0 -53 -17.5 -90.5t-46 -66
t-63 -51t-68.5 -43.5t-62.5 -45t-46 -55t-17.5 -74h308q10 0 10 -10v-57q0 -10 -10 -10h-386z" />
    <glyph glyph-name="three" unicode="3" horiz-adv-x="548" 
d="M263 -12q-67 0 -112.5 21.5t-68 61t-22.5 91.5q0 10 10 10h64q10 0 10 -10q0 -48 29.5 -73.5t87.5 -25.5q68 0 105 28.5t37 79.5v26q0 102 -137 102h-87q-10 0 -10 10v54q0 10 10 10h88q59 0 89.5 27t30.5 79v26q0 44 -30.5 65.5t-91.5 21.5t-90.5 -23.5t-29.5 -75.5
q0 -10 -10 -10h-64q-10 0 -10 10q0 87 52.5 130.5t158.5 43.5q102 0 151 -40.5t49 -126.5q0 -64 -26.5 -103.5t-70.5 -53.5v-2q58 -19 85.5 -58.5t27.5 -102.5q0 -93 -58 -142.5t-167 -49.5z" />
    <glyph glyph-name="four" unicode="4" horiz-adv-x="542" 
d="M360 0q-10 0 -10 10v119h-330q-10 0 -10 10v6q0 9 3 14l269 488q5 8 13 8h66q13 0 7 -11l-242 -438h225v219q0 10 10 10h61q10 0 10 -10v-219h76q10 0 10 -10v-57q0 -10 -10 -10h-76v-119q0 -10 -10 -10h-62z" />
    <glyph glyph-name="five" unicode="5" horiz-adv-x="522" 
d="M244 -12q-62 0 -105.5 20t-66 58.5t-22.5 95.5q0 10 10 10h63q10 0 10 -10q0 -49 30 -74t88 -25q72 0 104 30t32 93v30q0 44 -14.5 72.5t-45 42t-78.5 13.5q-31 0 -75.5 -9.5t-85.5 -28.5q-8 -4 -13.5 0t-4.5 11l30 328q1 10 10 10h314q10 0 10 -10v-57q0 -10 -10 -10
h-249l-13 -176q32 8 59.5 11t49.5 3q94 0 147.5 -53t53.5 -157q0 -106 -58.5 -162t-169.5 -56z" />
    <glyph glyph-name="six" unicode="6" horiz-adv-x="568" 
d="M290 -12q-105 0 -164 55t-59 160v252q0 100 60 156t170 56q60 0 103.5 -16.5t67.5 -47t24 -73.5q0 -10 -10 -10h-64q-10 0 -10 10q0 29 -29.5 45.5t-80.5 16.5q-73 0 -109.5 -33t-36.5 -101v-254q0 -66 36.5 -103.5t100.5 -37.5q65 0 101 38t36 105v28q0 54 -28 81.5
t-83 27.5q-43 0 -89.5 -18.5t-87.5 -53.5v72q46 37 95.5 55.5t102.5 18.5q87 0 131 -48.5t44 -143.5q0 -112 -57.5 -174.5t-163.5 -62.5z" />
    <glyph glyph-name="seven" unicode="7" horiz-adv-x="529" 
d="M150 0q-5 0 -7 3.5t0 8.5l258 566h-262v-82q0 -10 -10 -10h-64q-10 0 -10 10v149q0 10 10 10h439q10 0 10 -10v-5q0 -7 -3 -15l-279 -616q-4 -9 -14 -9h-68z" />
    <glyph glyph-name="eight" unicode="8" horiz-adv-x="576" 
d="M288 -12q-111 0 -172 46.5t-61 141.5q0 65 30.5 109.5t82.5 63.5q-43 20 -64 53.5t-21 93.5q0 79 53 125t152 46t152 -46t53 -125q0 -60 -21 -93.5t-64 -53.5q52 -19 82.5 -63.5t30.5 -109.5q0 -95 -61 -141.5t-172 -46.5zM288 60q74 0 111 29t37 82v17q0 61 -39.5 94.5
t-108.5 33.5t-108.5 -33.5t-39.5 -94.5v-17q0 -53 37 -82t111 -29zM288 382q58 0 89 27t31 74v15q0 44 -30.5 70.5t-89.5 26.5q-58 0 -89 -26.5t-31 -70.5v-15q0 -47 31 -74t89 -27z" />
    <glyph glyph-name="nine" unicode="9" horiz-adv-x="580" 
d="M282 -12q-97 0 -150 41t-53 118q0 10 10 10h64q10 0 10 -10q0 -30 30.5 -57t89.5 -27q74 0 109.5 36t35.5 106v246q0 66 -38 103.5t-104 37.5q-65 0 -99.5 -36.5t-34.5 -104.5v-38q0 -49 31 -77t86 -28q44 0 87.5 18t85.5 55l1 -72q-48 -40 -91.5 -57.5t-94.5 -17.5
q-93 0 -141.5 52t-48.5 151q0 112 57 171t163 59q107 0 166.5 -59t59.5 -163v-235q0 -109 -58 -165.5t-173 -56.5z" />
    <glyph glyph-name="colon" unicode=":" horiz-adv-x="232" 
d="M116 356q-30 0 -43 15.5t-13 40.5v10q0 25 13 40.5t43 15.5t43 -15.5t13 -40.5v-10q0 -25 -13 -40.5t-43 -15.5zM116 -12q-30 0 -43 15.5t-13 40.5v10q0 25 13 40.5t43 15.5t43 -15.5t13 -40.5v-10q0 -25 -13 -40.5t-43 -15.5z" />
    <glyph glyph-name="semicolon" unicode=";" horiz-adv-x="236" 
d="M24 -128q-5 0 -8.5 4t-2.5 9l50 212q2 8 9 8h75q5 0 8.5 -4.5t1.5 -9.5l-72 -212q-3 -7 -9 -7h-52zM120 356q-30 0 -43 15.5t-13 40.5v10q0 25 13 40.5t43 15.5t43 -15.5t13 -40.5v-10q0 -25 -13 -40.5t-43 -15.5z" />
    <glyph glyph-name="less" unicode="&#x3c;" horiz-adv-x="600" 
d="M498 103l-400 153q-8 3 -8 11v59q0 8 8 11l400 153q12 5 12 -8v-62q0 -9 -8 -12l-328 -111l328 -112q8 -3 8 -12v-62q0 -13 -12 -8z" />
    <glyph glyph-name="equal" unicode="=" horiz-adv-x="600" 
d="M103 351q-10 0 -10 10v50q0 10 10 10h394q10 0 10 -10v-50q0 -10 -10 -10h-394zM103 180q-10 0 -10 10v50q0 10 10 10h394q10 0 10 -10v-50q0 -10 -10 -10h-394z" />
    <glyph glyph-name="greater" unicode="&#x3e;" horiz-adv-x="600" 
d="M102 103q-12 -5 -12 8v62q0 9 8 12l328 112l-328 111q-8 3 -8 12v62q0 13 12 8l400 -153q8 -3 8 -11v-59q0 -8 -8 -11z" />
    <glyph glyph-name="question" unicode="?" horiz-adv-x="469" 
d="M179 200q-10 0 -10 10v39q0 32 17.5 58t43.5 49.5t52 48t43.5 53t17.5 64.5q0 37 -26 55t-76 18q-61 0 -85.5 -28.5t-24.5 -81.5q0 -11 -9 -11h-66q-6 0 -8 4t-2 8q0 92 50 136.5t148 44.5q93 0 139 -36.5t46 -102.5q0 -44 -18 -79t-44 -63t-52.5 -51.5t-44.5 -44
t-19 -40.5l-1 -40q0 -10 -10 -10h-61zM213 -12q-30 0 -43 15.5t-13 40.5v10q0 25 13 40.5t43 15.5t43 -15.5t13 -40.5v-10q0 -25 -13 -40.5t-43 -15.5z" />
    <glyph glyph-name="at" unicode="@" horiz-adv-x="1000" 
d="M489 -185q-144 0 -238 43t-140 126t-46 204v100q0 120 45 211.5t139.5 143.5t240.5 52q228 0 336.5 -95.5t108.5 -281.5v-50q0 -74 -26 -131.5t-76 -89.5t-122 -32q-53 0 -86 21.5t-46.5 57.5t-7.5 79l32 229q-24 5 -50.5 8t-53.5 3q-43 0 -74.5 -26t-41.5 -95l-14 -99
q-7 -54 7.5 -79t57.5 -25q38 0 74 23.5t76 56.5l8 -73q-37 -29 -85 -55.5t-99 -26.5q-76 0 -104.5 44.5t-17.5 128.5l15 113q11 86 60.5 137t137.5 51q38 0 67 -4.5t56 -9.5t60 -8q10 -1 9 -11l-36 -264q-7 -50 4.5 -75.5t52.5 -25.5q61 0 99.5 46.5t38.5 131.5v50
q0 148 -87.5 224.5t-272.5 76.5q-110 0 -186 -38.5t-115 -112t-39 -180.5v-100q0 -97 37 -163t112 -100t190 -34h136q10 0 10 -10v-56q0 -10 -10 -10h-136z" />
    <glyph glyph-name="A" unicode="A" horiz-adv-x="560" 
d="M9 0q-11 0 -8 11l221 636q3 8 12 8h89q9 0 12 -8l224 -636q3 -11 -8 -11h-71q-9 0 -12 8l-150 450l-20 60t-21 60h-1q-10 -29 -20 -58.5t-20 -58.5l-148 -453q-3 -8 -12 -8h-67zM120 153l21 74h272l22 -74h-315z" />
    <glyph glyph-name="B" unicode="B" horiz-adv-x="573" 
d="M95 0q-10 0 -10 10v635q0 10 10 10h178q114 0 170.5 -40.5t56.5 -123.5q0 -54 -26 -87.5t-85 -55.5v-2q70 -13 104.5 -55t34.5 -111q0 -92 -61.5 -136t-192.5 -44h-179zM170 74h103q92 0 131 26t39 86q0 62 -39.5 90.5t-127.5 28.5h-106v-231zM170 374h99q76 0 111 25.5
t35 80.5q0 56 -35.5 79t-119.5 23h-90v-208z" />
    <glyph glyph-name="C" unicode="C" horiz-adv-x="633" 
d="M320 -12q-122 0 -184.5 61t-62.5 174v209q0 113 63.5 174t184.5 61q77 0 135.5 -26.5t88 -76t19.5 -118.5q-1 -5 -3 -9.5t-8 -4.5h-65q-11 0 -9 10q3 72 -37.5 111t-119.5 39t-121.5 -41t-42.5 -118v-211q0 -77 42.5 -118t121.5 -41t122 39.5t35 110.5q-2 10 9 10h64
q10 0 12 -14q6 -67 -23.5 -116.5t-86.5 -77t-134 -27.5z" />
    <glyph glyph-name="D" unicode="D" horiz-adv-x="641" 
d="M95 0q-10 0 -10 10v635q0 10 10 10h175q154 0 230 -71.5t76 -216.5v-50q0 -160 -75.5 -238.5t-230.5 -78.5h-175zM170 72h94q117 0 172 58t55 181v62q0 108 -55 159t-172 51h-94v-511z" />
    <glyph glyph-name="E" unicode="E" horiz-adv-x="533" 
d="M95 0q-10 0 -10 10v635q0 10 10 10h356q10 0 10 -10v-57q0 -10 -10 -10h-281v-208h257q10 0 10 -10v-54q0 -10 -10 -10h-257v-219h281q10 0 10 -10v-57q0 -10 -10 -10h-356z" />
    <glyph glyph-name="F" unicode="F" horiz-adv-x="504" 
d="M95 0q-10 0 -10 10v635q0 10 10 10h356q10 0 10 -10v-57q0 -10 -10 -10h-281v-218h243q10 0 10 -10v-54q0 -10 -10 -10h-243v-276q0 -10 -10 -10h-65z" />
    <glyph glyph-name="G" unicode="G" horiz-adv-x="653" 
d="M306 -12q-73 0 -125 28t-80 80.5t-28 126.5v209q0 110 67 172.5t184 62.5q79 0 136.5 -26.5t86 -74.5t18.5 -114q-1 -10 -11 -10h-65q-11 0 -9 10q3 46 -14 77t-52 47t-88 16q-83 0 -125.5 -40t-42.5 -119v-211q0 -80 40 -119.5t121 -39.5q83 0 126.5 41t43.5 118v38
h-156q-10 0 -10 10v54q0 10 10 10h225q10 0 10 -10v-197q0 -31 1.5 -59.5t5.5 -56.5q1 -5 -1.5 -8t-7.5 -3h-53q-4 0 -7 2t-4 6q-2 13 -4 29t-3 34h-1q-19 -28 -47.5 -46.5t-64 -27.5t-76.5 -9z" />
    <glyph glyph-name="H" unicode="H" horiz-adv-x="661" 
d="M95 0q-10 0 -10 10v635q0 10 10 10h65q10 0 10 -10v-270h321v270q0 10 10 10h65q10 0 10 -10v-635q0 -10 -10 -10h-65q-10 0 -10 10v291h-321v-291q0 -10 -10 -10h-65z" />
    <glyph glyph-name="I" unicode="I" horiz-adv-x="255" 
d="M95 0q-10 0 -10 10v635q0 10 10 10h65q10 0 10 -10v-635q0 -10 -10 -10h-65z" />
    <glyph glyph-name="J" unicode="J" horiz-adv-x="265" 
d="M37 -139q-22 -5 -25 4l-17 59q-3 11 18 16q41 10 61.5 46t20.5 96v563q0 10 10 10h65q10 0 10 -10v-559q0 -97 -36.5 -152.5t-106.5 -72.5z" />
    <glyph glyph-name="K" unicode="K" horiz-adv-x="595" 
d="M95 0q-10 0 -10 10v635q0 10 10 10h65q10 0 10 -10v-193v-60.5t-1 -60.5h1q23 26 46 51t46 51l195 217q4 5 12 5h85q6 0 8.5 -3.5t-2.5 -8.5l-235 -254l253 -377q3 -5 1.5 -8.5t-7.5 -3.5h-83q-7 0 -12 7l-211 317l-96 -104v-210q0 -10 -10 -10h-65z" />
    <glyph glyph-name="L" unicode="L" horiz-adv-x="476" 
d="M95 0q-10 0 -10 10v635q0 10 10 10h65q10 0 10 -10v-568h276q10 0 10 -10v-57q0 -10 -10 -10h-351z" />
    <glyph glyph-name="M" unicode="M" horiz-adv-x="769" 
d="M80 0q-10 0 -10 10l14 635q0 10 10 10h106q7 0 11 -8l175 -393l172 393q4 8 11 8h106q10 0 10 -10l14 -635q0 -10 -10 -10h-63q-10 0 -10 10l-10 402q-1 37 0.5 73t2.5 73h-2q-15 -37 -30.5 -73t-32.5 -73l-148 -321q-3 -7 -11 -7h-2q-8 0 -11 7l-150 326
q-16 35 -30.5 70.5t-28.5 70.5h-2q2 -35 2.5 -71t-0.5 -71l-10 -406q0 -10 -10 -10h-63z" />
    <glyph glyph-name="N" unicode="N" horiz-adv-x="662" 
d="M95 0q-10 0 -10 10v635q0 10 10 10h116q9 0 12 -7l188 -382q19 -37 33.5 -67t26 -56t21.5 -51h2v58.5t-0.5 61.5t-0.5 58v375q0 10 10 10h64q10 0 10 -10v-635q0 -10 -10 -10h-113q-9 0 -12 7l-185 372q-16 33 -31 63.5t-29 60.5t-27 60h-2q0 -34 0.5 -65t0.5 -61.5
v-65.5v-361q0 -10 -10 -10h-64z" />
    <glyph glyph-name="O" unicode="O" horiz-adv-x="642" 
d="M321 -12q-125 0 -186.5 61.5t-61.5 173.5v209q0 113 61.5 174t186.5 61t186.5 -61t61.5 -174v-209q0 -112 -61.5 -173.5t-186.5 -61.5zM321 63q80 0 121.5 41t41.5 120v207q0 80 -41.5 120.5t-121.5 40.5q-79 0 -121 -40.5t-42 -120.5v-207q0 -79 42 -120t121 -41z" />
    <glyph glyph-name="P" unicode="P" horiz-adv-x="545" 
d="M95 0q-10 0 -10 10v635q0 10 10 10h167q121 0 182 -51.5t61 -152.5q0 -100 -61.5 -152t-181.5 -52h-92v-237q0 -10 -10 -10h-65zM170 319h90q84 0 122 31.5t38 97.5q0 71 -39.5 103t-122.5 32h-88v-264z" />
    <glyph glyph-name="Q" unicode="Q" horiz-adv-x="642" 
d="M441 -182q-43 0 -72.5 23t-43.5 71t-11 122q0 10 10 10l61 -4q10 0 10 -11q-2 -74 13 -103.5t49 -29.5q7 0 15 2t16 3q5 1 8 -1.5t3 -7.5v-55q0 -9 -12 -13q-8 -2 -21 -4t-25 -2zM321 -12q-125 0 -186.5 61.5t-61.5 173.5v209q0 113 61.5 174t186.5 61t186.5 -61
t61.5 -174v-209q0 -112 -61.5 -173.5t-186.5 -61.5zM321 63q80 0 121.5 41t41.5 120v207q0 80 -41.5 120.5t-121.5 40.5q-79 0 -121 -40.5t-42 -120.5v-207q0 -79 42 -120t121 -41z" />
    <glyph glyph-name="R" unicode="R" horiz-adv-x="604" 
d="M95 0q-10 0 -10 10v635q0 10 10 10h193q119 0 176.5 -45t57.5 -135q0 -72 -34.5 -119.5t-97.5 -65.5v-1l167 -277q3 -5 1 -8.5t-8 -3.5h-77q-8 0 -12 7l-163 272h-128v-269q0 -10 -10 -10h-65zM170 347h109q84 0 121 29t37 93q0 62 -34.5 88t-117.5 26h-115v-236z" />
    <glyph glyph-name="S" unicode="S" horiz-adv-x="568" 
d="M278 -12q-120 0 -176 51.5t-50 134.5q1 18 12 18h63q12 0 12 -16q0 -61 36 -87.5t110 -26.5q71 0 107.5 25.5t36.5 77.5q0 26 -8.5 44.5t-28.5 32.5t-54 28l-147 61q-46 19 -74.5 42.5t-41 54t-12.5 69.5q1 83 55.5 126t158.5 43q71 0 123 -21t79 -61t22 -98
q-2 -19 -11 -19h-64q-5 0 -7.5 4t-1.5 15q4 51 -34.5 78.5t-108.5 27.5q-62 0 -93.5 -22t-32.5 -68q0 -24 8.5 -42t29 -33t56.5 -30l145 -61q46 -19 74 -42t40.5 -53.5t12.5 -73.5q0 -84 -57 -131.5t-179 -47.5z" />
    <glyph glyph-name="T" unicode="T" horiz-adv-x="535" 
d="M235 0q-10 0 -10 10v568h-180q-10 0 -10 10v57q0 10 10 10h445q10 0 10 -10v-57q0 -10 -10 -10h-180v-568q0 -10 -10 -10h-65z" />
    <glyph glyph-name="U" unicode="U" horiz-adv-x="644" 
d="M322 -12q-115 0 -178.5 61t-63.5 176v420q0 10 10 10h65q10 0 10 -10v-423q0 -76 40.5 -117.5t116.5 -41.5t116.5 41.5t40.5 117.5v423q0 10 10 10h65q10 0 10 -10v-422q0 -109 -64.5 -172t-177.5 -63z" />
    <glyph glyph-name="V" unicode="V" horiz-adv-x="584" 
d="M242 0q-9 0 -12 8l-214 636q-3 11 8 11h70q9 0 12 -8l138 -426q11 -34 22.5 -69t21.5 -70h2q11 34 22.5 68t22.5 68l144 429q3 8 12 8h69q11 0 8 -11l-219 -636q-3 -8 -12 -8h-95z" />
    <glyph glyph-name="W" unicode="W" horiz-adv-x="847" 
d="M215 0q-9 0 -11 8l-183 636q-3 11 9 11h66q9 0 11 -8l116 -413q7 -23 13 -46.5t12.5 -47t12.5 -47.5h1q11 35 21.5 69t20.5 68l84 279l-36 125q-1 5 1.5 8t7.5 3h68q9 0 11 -9l113 -415q9 -32 17.5 -64t17.5 -64h1l12 46l12 46l12 46l112 416q2 8 11 8h69q12 0 9 -11
l-176 -636q-2 -8 -11 -8h-95q-9 0 -11 8l-68 235q-10 33 -19 66l-18 66h-1q-10 -32 -19.5 -64.5t-19.5 -64.5l-71 -238q-3 -8 -11 -8h-91z" />
    <glyph glyph-name="X" unicode="X" horiz-adv-x="551" 
d="M13 0q-6 0 -7.5 3.5t1.5 8.5l214 326l-200 305q-3 5 -1.5 8.5t7.5 3.5h80q7 0 11 -6l113 -173q11 -18 23.5 -37.5t23.5 -37.5h1q12 20 24.5 40t25.5 39l109 169q5 6 12 6h76q6 0 7.5 -3.5t-1.5 -8.5l-199 -307l211 -324q3 -5 1.5 -8.5t-7.5 -3.5h-80q-7 0 -12 6l-119 183
q-13 20 -26.5 41.5t-25.5 41.5h-1q-12 -19 -25 -40t-26 -41l-119 -184q-5 -7 -12 -7h-79z" />
    <glyph glyph-name="Y" unicode="Y" horiz-adv-x="535" 
d="M235 0q-10 0 -10 10v215l-214 418q-2 5 0 8.5t7 3.5h76q9 0 12 -7l110 -226q13 -26 26 -53.5t26 -53.5h1q14 28 27 55t26 55l109 223q3 7 12 7h74q5 0 7 -3.5t0 -8.5l-214 -418v-215q0 -10 -10 -10h-65z" />
    <glyph glyph-name="Z" unicode="Z" horiz-adv-x="545" 
d="M30 0q-10 0 -10 9v2q0 5 4 13l298 455q16 25 32 49.5t33 49.5v1q-28 -1 -57 -1h-58h-209q-10 0 -10 10v57q0 10 10 10h449q10 0 10 -9v-2q0 -5 -4 -13l-294 -445q-18 -28 -35.5 -55t-36.5 -54v-1q33 1 66 1h66h205q10 0 10 -10v-57q0 -10 -10 -10h-459z" />
    <glyph glyph-name="bracketleft" unicode="[" horiz-adv-x="270" 
d="M85 -142q-10 0 -10 10v819q0 10 10 10h185q10 0 10 -10v-50q0 -10 -10 -10h-110v-699h110q10 0 10 -10v-50q0 -10 -10 -10h-185z" />
    <glyph glyph-name="backslash" unicode="\" horiz-adv-x="372" 
d="M288 0q-9 0 -12 8l-263 636q-5 11 9 11h62q9 0 12 -8l263 -636q5 -11 -9 -11h-62z" />
    <glyph glyph-name="bracketright" unicode="]" horiz-adv-x="270" 
d="M0 -142q-10 0 -10 10v50q0 10 10 10h110v699h-110q-10 0 -10 10v50q0 10 10 10h185q10 0 10 -10v-819q0 -10 -10 -10h-185z" />
    <glyph glyph-name="asciicircum" unicode="^" horiz-adv-x="506" 
d="M54 350q-5 0 -7.5 3.5t0.5 8.5l165 314q4 7 12 7h59q8 0 12 -7l165 -314q2 -5 0 -8.5t-7 -3.5h-62q-9 0 -12 7l-126 249l-125 -249q-4 -7 -12 -7h-62z" />
    <glyph glyph-name="underscore" unicode="_" horiz-adv-x="540" 
d="M10 -128q-10 0 -10 10v45q0 10 10 10h520q10 0 10 -10v-45q0 -10 -10 -10h-520z" />
    <glyph glyph-name="grave" unicode="`" horiz-adv-x="216" 
d="M126 556q-7 0 -11 6l-83 122q-3 4 -1.5 7.5t6.5 3.5h70q9 0 12 -7l66 -122q5 -10 -5 -10h-54z" />
    <glyph glyph-name="a" unicode="a" horiz-adv-x="494" 
d="M358 0q-6 0 -8 4t-4 10q-1 8 -4.5 34.5t-4.5 47.5l-3 38v199q0 50 -20 71t-70 21q-90 0 -90 -62q0 -10 -9 -10h-66q-10 0 -11 19q-5 57 44.5 92.5t134.5 35.5q87 0 129.5 -41t42.5 -124v-214q0 -35 2 -62.5t5 -47.5q2 -11 -10 -11h-58zM167 -12q-58 0 -88.5 35t-30.5 102
q0 52 20.5 85t66 51t121.5 24l94 8v-65l-96 -8q-69 -6 -95 -25t-26 -64q0 -34 14 -51t42 -17q33 0 69 22.5t95 83.5v-75q-35 -38 -65.5 -61.5t-59.5 -34t-61 -10.5z" />
    <glyph glyph-name="b" unicode="b" horiz-adv-x="536" 
d="M268 -12q-32 0 -60.5 4t-60 9t-72.5 7v665q0 10 10 10h65q10 0 10 -10v-600q23 -4 49.5 -7t46.5 -3q68 0 99.5 34t31.5 102v110q0 60 -20.5 88t-61.5 28q-35 0 -71 -20.5t-93 -71.5l4 83q47 44 89.5 64t88.5 20q73 0 111 -46t38 -140v-123q0 -100 -50.5 -151.5
t-153.5 -51.5z" />
    <glyph glyph-name="c" unicode="c" horiz-adv-x="517" 
d="M266 -12q-100 0 -152 50t-52 144v124q0 94 53 144t153 50q59 0 101 -18t65 -49.5t23 -74.5q0 -23 -10 -23h-66q-9 0 -9 16q0 35 -28 54.5t-76 19.5q-61 0 -91 -31t-30 -96v-108q0 -64 30 -95.5t90 -31.5q48 0 76 21t28 52q0 16 9 16h66q10 0 10 -9q0 -71 -49 -113
t-141 -42z" />
    <glyph glyph-name="d" unicode="d" horiz-adv-x="543" 
d="M209 -12q-70 0 -107.5 47t-37.5 139v125q0 95 48 148t133 53q39 0 82 -10.5t65 -26.5l5 -73q-32 17 -70 26t-67 9q-56 0 -83.5 -34t-27.5 -102v-120q0 -53 20.5 -79.5t61.5 -26.5q25 0 49 9.5t53 32t68 61.5l-2 -78q-34 -34 -64.5 -56.5t-61 -33t-64.5 -10.5zM406 0
q-11 0 -12 11q-2 15 -5 38t-2 38l-5 45v541q0 10 10 10h65q10 0 10 -10v-560q0 -14 1 -33.5t2.5 -37.5t3.5 -28q3 -14 -10 -14h-58z" />
    <glyph glyph-name="e" unicode="e" horiz-adv-x="519" 
d="M261 -12q-96 0 -147.5 45t-51.5 133v140q0 95 51 144.5t148 49.5t147.5 -48.5t50.5 -140.5v-78q0 -10 -10 -10h-302v-32q0 -67 28 -97.5t91 -30.5q47 0 72.5 15.5t25.5 45.5q0 11 11 11h65q8 0 10 -9q4 -64 -47 -101t-142 -37zM147 296h227v6q0 63 -28 93t-84 30
q-58 0 -86.5 -31t-28.5 -93v-5z" />
    <glyph glyph-name="f" unicode="f" horiz-adv-x="367" 
d="M117 0q-4 0 -7 3t-3 7v405h-77q-4 0 -7 3t-3 7v53q0 5 3 7.5t7 2.5h77v52q0 74 43.5 114.5t119.5 40.5q23 0 47 -4.5t41 -11.5q19 -7 19 -17v-53q0 -6 -4.5 -8t-18.5 4q-16 7 -38 11.5t-40 4.5q-41 0 -62.5 -21t-21.5 -62v-50h145q10 0 10 -10v-53q0 -4 -2.5 -7t-7.5 -3
h-145v-405q0 -4 -2.5 -7t-7.5 -3h-65z" />
    <glyph glyph-name="g" unicode="g" horiz-adv-x="517" 
d="M255 -197q-117 0 -168.5 31.5t-51.5 95.5q0 41 19.5 71.5t59.5 49.5l67 -27q-30 -9 -44 -29.5t-14 -48.5q0 -40 30 -55.5t106 -15.5q79 0 109.5 16t30.5 59q0 29 -14 43t-46 15l-185 10q-31 2 -56.5 23.5t-25.5 67.5q0 32 15 53.5t51 48.5l54 -32q-22 -9 -32 -22t-10 -30
q0 -18 12 -25.5t37 -9.5l166 -10q59 -4 88.5 -37.5t29.5 -98.5q0 -76 -54.5 -109.5t-173.5 -33.5zM263 158q-94 0 -139 42t-45 129t45.5 129t141.5 42q92 0 136.5 -42.5t44.5 -129.5t-44.5 -128.5t-139.5 -41.5zM263 232q56 0 77.5 21.5t21.5 74.5q0 54 -22 76t-77 22
t-77 -22t-22 -76q0 -53 22 -74.5t77 -21.5zM385 444l-70 30q5 47 10.5 78.5t10.5 53.5q3 12 12 12h63q11 0 8 -10q-10 -31 -17 -66t-17 -98z" />
    <glyph glyph-name="h" unicode="h" horiz-adv-x="556" 
d="M406 0q-10 0 -10 10v319q0 49 -20 72.5t-61 23.5q-40 0 -81 -24.5t-89 -76.5l1 78q33 35 63 56.5t60.5 31.5t64.5 10q72 0 109.5 -42t37.5 -125v-323q0 -10 -10 -10h-65zM85 0q-10 0 -10 10v663q0 10 10 10h65q10 0 10 -10v-663q0 -10 -10 -10h-65z" />
    <glyph glyph-name="i" unicode="i" horiz-adv-x="235" 
d="M85 0q-10 0 -10 10v468q0 10 10 10h65q10 0 10 -10v-468q0 -10 -10 -10h-65zM118 570q-29 0 -42 15.5t-13 39.5v10q0 24 13 39.5t42 15.5t42 -15.5t13 -39.5v-10q0 -24 -13 -39.5t-42 -15.5z" />
    <glyph glyph-name="j" unicode="j" horiz-adv-x="236" 
d="M42 -190q-8 -5 -14 3l-39 49q-3 5 -2 8t5 6q26 18 44.5 44.5t28.5 62t10 81.5v414q0 5 3 7.5t7 2.5h65q5 0 7.5 -2.5t2.5 -7.5v-419q0 -60 -12.5 -107t-38.5 -82t-67 -60zM118 570q-29 0 -42 15.5t-13 39.5v10q0 24 13 39.5t42 15.5t42 -15.5t13 -39.5v-10
q0 -24 -13 -39.5t-42 -15.5z" />
    <glyph glyph-name="k" unicode="k" horiz-adv-x="491" 
d="M85 0q-10 0 -10 10v663q0 10 10 10h65q10 0 10 -10v-259v-68.5t-1 -69.5h1q18 20 36.5 40t37.5 40l118 127q4 5 12 5h88q7 0 8.5 -3.5t-3.5 -8.5l-166 -170l181 -294q3 -5 1 -8.5t-8 -3.5h-77q-7 0 -12 7l-146 236l-70 -71v-162q0 -10 -10 -10h-65z" />
    <glyph glyph-name="l" unicode="l" horiz-adv-x="235" 
d="M85 0q-10 0 -10 10v663q0 10 10 10h65q10 0 10 -10v-663q0 -10 -10 -10h-65z" />
    <glyph glyph-name="m" unicode="m" horiz-adv-x="845" 
d="M85 0q-10 0 -10 10v356q0 27 -1.5 56.5t-5.5 53.5q-2 12 11 12h60q9 0 10 -7q2 -15 5 -32t4 -35q45 45 85 65.5t86 20.5q51 0 82.5 -23.5t44.5 -69.5q48 49 89 71t89 22q67 0 101.5 -42t34.5 -124v-324q0 -10 -10 -10h-65q-10 0 -10 10v319q0 48 -17.5 72t-54.5 24
q-33 0 -67.5 -20.5t-80.5 -64.5v-330q0 -10 -10 -10h-65q-10 0 -10 10v319q0 48 -17.5 72t-54.5 24q-33 0 -67.5 -20.5t-80.5 -64.5v-330q0 -10 -10 -10h-65z" />
    <glyph glyph-name="n" unicode="n" horiz-adv-x="556" 
d="M406 0q-10 0 -10 10v319q0 50 -20.5 73t-61.5 23q-39 0 -77 -23t-95 -79l1 77q34 36 64.5 58t61 32t64.5 10q72 0 110 -42t38 -125v-323q0 -10 -10 -10h-65zM85 0q-10 0 -10 10v356q0 26 -2.5 58.5t-4.5 50.5q-2 13 10 13h61q9 0 11 -10q2 -8 4 -25t4 -35.5t2 -31.5v-26
v-350q0 -10 -10 -10h-65z" />
    <glyph glyph-name="o" unicode="o" horiz-adv-x="536" 
d="M268 -12q-101 0 -153.5 49t-52.5 149v116q0 100 52 149t154 49q101 0 153.5 -49t52.5 -149v-116q0 -100 -52 -149t-154 -49zM268 63q64 0 92.5 32.5t28.5 98.5v100q0 66 -28.5 98.5t-92.5 32.5t-92.5 -32.5t-28.5 -98.5v-100q0 -66 28.5 -98.5t92.5 -32.5z" />
    <glyph glyph-name="p" unicode="p" horiz-adv-x="537" 
d="M294 -12q-38 0 -79 10t-66 27l-3 72q29 -16 64 -25t66 -9q58 0 85 34t27 102v110q0 60 -21 88t-62 28q-35 0 -70.5 -20.5t-93.5 -72.5v80q34 31 63.5 50.5t58 28.5t60.5 9q74 0 112 -46t38 -140v-125q0 -97 -46 -149t-133 -52zM85 -185q-10 0 -10 10v550q0 23 -2 51
t-5 50q-1 12 10 12h61q10 0 11 -10q2 -7 4 -20t3 -25.5t0 -17.5l3 -50v-540q0 -10 -10 -10h-65z" />
    <glyph glyph-name="q" unicode="q" horiz-adv-x="541" 
d="M391 -185q-10 0 -10 10v589q-25 5 -54 8t-51 3q-67 0 -97 -32.5t-30 -103.5v-110q0 -61 19.5 -88.5t62.5 -27.5q36 0 72 19t92 68l-3 -81q-46 -43 -89 -62t-91 -19q-75 0 -111.5 46t-36.5 140v123q0 101 51 152t153 51q37 0 67 -5t61 -11t70 -9v-650q0 -10 -10 -10h-65z
" />
    <glyph glyph-name="r" unicode="r" horiz-adv-x="356" 
d="M85 0q-10 0 -10 10v359q0 28 -1.5 54.5t-5.5 53.5q-2 11 10 11h61q10 0 11 -9q4 -19 6 -43.5t2 -41.5l2 -53v-331q0 -10 -10 -10h-65zM149 311l-2 82q21 31 48.5 55t56 38t52.5 14q18 0 27 -3q8 -2 9 -10q2 -21 1.5 -43t-3.5 -42q-2 -11 -13 -8q-8 2 -17 3t-19 1
q-25 0 -50 -11t-48 -30.5t-42 -45.5z" />
    <glyph glyph-name="s" unicode="s" horiz-adv-x="464" 
d="M233 -12q-90 0 -135 39.5t-45 118.5q0 9 10 9h66q9 0 9 -8q0 -45 22.5 -65t73.5 -20q49 0 74 16.5t25 47.5q0 23 -14 38.5t-44 28.5l-114 47q-55 23 -78 52t-23 75q0 66 42 99.5t125 33.5q85 0 132 -35.5t47 -100.5q0 -9 -10 -9h-66q-10 0 -10 16q0 26 -24 40.5t-66 14.5
q-43 0 -64 -14.5t-21 -44.5q0 -22 11.5 -33t46.5 -26l114 -48q53 -22 77 -52t24 -77q0 -69 -48 -106t-137 -37z" />
    <glyph glyph-name="t" unicode="t" horiz-adv-x="385" 
d="M246 -12q-51 0 -81.5 17.5t-44 52.5t-13.5 87v270h-77q-10 0 -10 10v53q0 10 10 10h79l11 120q1 10 11 10h50q10 0 10 -10l1 -120h149q10 0 10 -10v-53q0 -10 -10 -10h-149v-268q0 -47 16.5 -66t56.5 -19q20 0 40 4.5t35 11.5q12 5 12 -7v-55q0 -8 -8 -11q-18 -7 -42 -12
t-56 -5z" />
    <glyph glyph-name="u" unicode="u" horiz-adv-x="542" 
d="M207 -12q-64 0 -98 43t-34 124v323q0 10 10 10h65q10 0 10 -10v-319q0 -49 17.5 -72.5t54.5 -23.5t74.5 23t93.5 80l-2 -79q-32 -33 -64 -55t-63.5 -33t-63.5 -11zM407 0q-11 0 -12 10q-3 19 -5 39t-3 41l-5 42v346q0 10 10 10h65q10 0 10 -10v-356q0 -27 1.5 -56
t5.5 -56q2 -10 -11 -10h-56z" />
    <glyph glyph-name="v" unicode="v" horiz-adv-x="496" 
d="M201 0q-9 0 -12 8l-163 469q-3 11 8 11h69q9 0 12 -8l89 -280q11 -34 22 -68.5t21 -69.5h2q10 35 21 69l22 68l89 281q3 8 12 8h69q11 0 8 -11l-164 -469q-3 -8 -12 -8h-93z" />
    <glyph glyph-name="w" unicode="w" horiz-adv-x="716" 
d="M182 0q-8 0 -11 9l-145 468q-3 11 8 11h70q8 0 11 -9l79 -276l18 -64l18 -64h2l20 62l20 62l54 167l-30 101q-3 11 8 11h63q9 0 11 -8l74 -272q8 -31 16 -61.5t16 -61.5h2q9 32 17.5 63.5t17.5 62.5l80 278q3 9 11 9h70q11 0 8 -11l-146 -468q-3 -9 -11 -9h-91
q-8 0 -11 8l-31 102q-10 34 -19 69t-19 75h-2q-10 -40 -20.5 -74t-21.5 -67l-34 -105q-3 -8 -11 -8h-91z" />
    <glyph glyph-name="x" unicode="x" horiz-adv-x="477" 
d="M18 0q-6 0 -8 4t2 8l173 239l-161 225q-4 5 -2 8.5t8 3.5h78q8 0 12 -6l70 -101q12 -17 24.5 -36t23.5 -36h1q13 19 27 39t27 39l67 95q4 6 12 6h73q6 0 8 -3.5t-2 -8.5l-161 -222l175 -242q4 -4 2 -8t-8 -4h-78q-8 0 -12 6l-67 94q-16 23 -32.5 47t-32.5 47h-1
q-15 -23 -31 -47t-32 -47l-66 -94q-4 -6 -12 -6h-77z" />
    <glyph glyph-name="y" unicode="y" horiz-adv-x="497" 
d="M145 -185q-12 0 -7 12l71 179l-185 470q-5 12 7 12h71q8 0 11 -8l90 -242q12 -31 23.5 -64t22.5 -65h1q11 32 23.5 65t23.5 64l90 242q3 8 12 8h67q13 0 8 -12l-253 -653q-3 -8 -11 -8h-65z" />
    <glyph glyph-name="z" unicode="z" horiz-adv-x="464" 
d="M35 0q-10 0 -10 9v2q0 8 4 13l219 309q14 20 28.5 40.5t29.5 40.5v1h-56.5h-57.5h-134q-10 0 -10 10v53q0 10 10 10h371q10 0 10 -9v-2q0 -4 -1 -7t-3 -6l-213 -300q-16 -22 -31.5 -44.5t-32.5 -45.5v-1h51h50h159q10 0 10 -10v-53q0 -10 -10 -10h-383z" />
    <glyph glyph-name="braceleft" unicode="{" horiz-adv-x="266" 
d="M261 -142q-64 0 -99 14t-48.5 53t-13.5 113v124q0 47 -14.5 63.5t-50.5 16.5h-15q-10 0 -10 10v50q0 10 10 10h15q36 0 50.5 17t14.5 63v125q0 76 14 114.5t49 52t98 13.5q10 0 10 -10v-50q0 -10 -10 -10q-32 0 -48.5 -7.5t-22 -26.5t-5.5 -55v-146q0 -51 -13.5 -77.5
t-44.5 -37.5q30 -10 44 -37t14 -78v-145q0 -37 6 -56.5t22.5 -26t47.5 -6.5q10 0 10 -10v-50q0 -10 -10 -10z" />
    <glyph glyph-name="bar" unicode="|" horiz-adv-x="257" 
d="M95 -185q-10 0 -10 10v995q0 10 10 10h67q10 0 10 -10v-995q0 -10 -10 -10h-67z" />
    <glyph glyph-name="braceright" unicode="}" horiz-adv-x="266" 
d="M5 -142q-10 0 -10 10v50q0 10 10 10q31 0 47.5 6.5t22.5 26t6 56.5v145q0 51 14 78t44 37q-31 11 -44.5 37.5t-13.5 77.5v146q0 36 -5.5 55t-21.5 26.5t-49 7.5q-10 0 -10 10v50q0 10 10 10q63 0 98 -13.5t49 -52t14 -114.5v-125q0 -46 14.5 -63t50.5 -17h15q10 0 10 -10
v-50q0 -10 -10 -10h-15q-36 0 -50.5 -16.5t-14.5 -63.5v-124q0 -74 -13.5 -113t-48 -53t-99.5 -14z" />
    <glyph glyph-name="asciitilde" unicode="~" horiz-adv-x="600" 
d="M389 251q-31 0 -52.5 4t-39 10t-38 10t-50.5 4q-25 0 -56.5 -8t-48.5 -13q-11 -3 -11 8v50q0 8 5 10q12 6 42.5 16t70.5 10q31 0 52.5 -4t39.5 -10t38.5 -10t49.5 -4q26 0 57.5 8.5t47.5 12.5q11 3 11 -8v-50q0 -9 -7 -12q-13 -5 -42.5 -14.5t-68.5 -9.5z" />
    <glyph glyph-name="uni00A0" unicode="&#xa0;" horiz-adv-x="210" 
 />
    <glyph glyph-name="exclamdown" unicode="&#xa1;" horiz-adv-x="231" 
d="M85 288h61q10 0 10 -10l6 -435q0 -10 -10 -10h-73q-10 0 -10 10l6 435q0 10 10 10zM116 500q30 0 43 -15.5t13 -40.5v-10q0 -25 -13 -40.5t-43 -15.5t-43 15.5t-13 40.5v10q0 25 13 40.5t43 15.5z" />
    <glyph glyph-name="cent" unicode="&#xa2;" horiz-adv-x="630" 
d="M289 529v87q0 10 10 10h56q10 0 10 -10v-83zM299 -38q-10 0 -10 10v87l76 -4v-83q0 -10 -10 -10h-56zM322 38q-100 0 -152 50t-52 144v124q0 94 53 144t153 50q59 0 101 -18t65 -49.5t23 -74.5q0 -23 -10 -23h-66q-9 0 -9 16q0 35 -28 54.5t-76 19.5q-61 0 -91 -31
t-30 -96v-108q0 -64 30 -95.5t90 -31.5q48 0 76 21t28 52q0 16 9 16h66q10 0 10 -9q0 -71 -49 -113t-141 -42z" />
    <glyph glyph-name="sterling" unicode="&#xa3;" horiz-adv-x="630" 
d="M131 0q-10 0 -10 10v43q0 7 5 12q23 25 33 49.5t10 51.5v303q0 58 17 102.5t57 70t108 25.5q51 0 89 -16t59.5 -54t21.5 -104q0 -10 -10 -10h-62q-10 0 -10 10q0 26 -6.5 48.5t-25.5 36.5t-55 14q-56 0 -77 -31t-21 -99v-278q0 -42 -11.5 -66t-28.5 -41h328q10 0 10 -10
v-57q0 -10 -10 -10h-411zM96 305q-10 0 -10 10v50q0 10 10 10h311q10 0 10 -10v-50q0 -10 -10 -10h-311z" />
    <glyph glyph-name="currency" unicode="&#xa4;" horiz-adv-x="630" 
d="M135 111q-6 -6 -14 1l-42 42q-6 7 1 14l62 53q-10 20 -16 43.5t-6 49.5t6 49.5t16 43.5l-62 53q-7 8 -1 14l42 42q8 8 14 1l58 -53q51 34 122 34t122 -34l58 53q7 7 14 -1l42 -42q7 -6 -1 -14l-62 -53q11 -20 16.5 -43.5t5.5 -49.5t-5.5 -49.5t-16.5 -43.5l62 -53
q8 -7 1 -14l-42 -42q-7 -7 -14 -1l-58 53q-51 -34 -122 -34t-122 34zM315 200q62 0 88.5 31t26.5 83q0 53 -26.5 83.5t-88.5 30.5q-61 0 -88 -30.5t-27 -83.5q0 -52 27 -83t88 -31z" />
    <glyph glyph-name="yen" unicode="&#xa5;" horiz-adv-x="631" 
d="M283 0q-10 0 -10 10v215l-203 418q-2 5 0 8.5t7 3.5h75q9 0 12 -7l110 -243q11 -23 21.5 -47t20.5 -47h1q10 23 21 47.5t21 47.5l110 242q3 7 12 7h73q5 0 7 -3.5t0 -8.5l-203 -418v-215q0 -10 -10 -10h-65zM167 97q-10 0 -10 10v50q0 10 10 10h296q10 0 10 -10v-50
q0 -10 -10 -10h-296zM167 225q-10 0 -10 10v50q0 10 10 10h296q10 0 10 -10v-50q0 -10 -10 -10h-296z" />
    <glyph glyph-name="brokenbar" unicode="&#xa6;" horiz-adv-x="257" 
d="M95 392q-10 0 -10 10v418q0 10 10 10h67q10 0 10 -10v-418q0 -10 -10 -10h-67zM95 -185q-10 0 -10 10v418q0 10 10 10h67q10 0 10 -10v-418q0 -10 -10 -10h-67z" />
    <glyph glyph-name="section" unicode="&#xa7;" horiz-adv-x="481" 
d="M305 115l-56 47q62 11 89.5 32.5t27.5 63.5q0 34 -20.5 57t-67.5 47l-108 56q-34 18 -56.5 38.5t-33.5 45.5t-11 56q0 68 46 102.5t135 34.5q93 0 137.5 -38.5t44.5 -97.5q0 -9 -10 -9h-65q-10 0 -10 10q0 26 -20.5 43.5t-77.5 17.5q-95 0 -95 -63q0 -27 14 -41t42 -30
l142 -80q25 -13 47.5 -32.5t37 -47t14.5 -66.5q0 -56 -38 -94.5t-108 -51.5zM231 -118q-61 0 -101.5 18t-60.5 48.5t-20 69.5q0 9 10 9h65q10 0 10 -10q0 -25 21 -43t77 -18q95 0 95 65q0 27 -13.5 40.5t-42.5 29.5l-142 78q-24 14 -47 33.5t-37.5 47.5t-14.5 66
q0 56 38 94.5t108 51.5l56 -47q-62 -11 -89.5 -32.5t-27.5 -63.5q0 -34 21 -56.5t67 -47.5l108 -57q51 -27 76 -58t25 -81q0 -68 -46 -102.5t-135 -34.5z" />
    <glyph glyph-name="dieresis" unicode="&#xa8;" horiz-adv-x="333" 
d="M82 570q-28 0 -40 14.5t-12 36.5v10q0 23 12 37t40 14t40 -14t12 -37v-10q0 -22 -12 -36.5t-40 -14.5zM251 570q-28 0 -40 14.5t-12 36.5v10q0 23 12 37t40 14t40 -14t12 -37v-10q0 -22 -12 -36.5t-40 -14.5z" />
    <glyph glyph-name="copyright" unicode="&#xa9;" horiz-adv-x="716" 
d="M358 -12q-97 0 -159.5 29.5t-93 84.5t-30.5 130v140q0 76 30.5 130.5t93 84t159.5 29.5t159.5 -29.5t93 -84t30.5 -130.5v-140q0 -75 -30.5 -130t-93 -84.5t-159.5 -29.5zM358 54q104 0 157.5 44.5t53.5 130.5v146q0 86 -53.5 130.5t-157.5 44.5q-103 0 -157 -44.5
t-54 -130.5v-146q0 -86 54 -130.5t157 -44.5zM359 127q-65 0 -101 35.5t-36 99.5v80q0 64 36.5 99.5t102.5 35.5q65 0 100 -30t35 -86q0 -11 -9 -11h-56q-9 0 -9 12q0 23 -15.5 34.5t-44.5 11.5q-33 0 -49 -17.5t-16 -53.5v-70q0 -71 63 -71q31 0 46 12t15 34q0 6 1.5 8.5
t8.5 2.5h55q9 0 9 -10q0 -50 -34.5 -83t-101.5 -33z" />
    <glyph glyph-name="ordfeminine" unicode="&#xaa;" horiz-adv-x="394" 
d="M144 322q-41 0 -65 24.5t-24 70.5q0 55 35.5 80.5t116.5 32.5l52 5v15q0 29 -13 41.5t-46 12.5q-60 0 -60 -34q0 -10 -11 -10h-45q-11 0 -12 14q-4 39 32 66t98 27t94.5 -28.5t32.5 -87.5v-136q0 -24 1.5 -42t3.5 -32q2 -12 -11 -12h-44q-6 0 -8.5 4.5t-3.5 8.5t-2 14
t-3 21q-31 -30 -60 -42.5t-58 -12.5zM70 204q-10 0 -10 10v43q0 10 10 10h259q10 0 10 -10v-43q0 -10 -10 -10h-259zM160 382q19 0 45 13t54 39v49l-51 -5q-48 -4 -66 -17t-18 -39q0 -22 9.5 -31t26.5 -9z" />
    <glyph glyph-name="guillemotleft" unicode="&#xab;" horiz-adv-x="498" 
d="M348 93q-7 0 -12 7l-92 156q-5 7 0 14l92 156q5 7 12 7h66q5 0 7.5 -3.5t-0.5 -8.5l-86 -158l86 -158q3 -5 0.5 -8.5t-7.5 -3.5h-66zM178 93q-7 0 -12 7l-92 156q-5 7 0 14l92 156q5 7 12 7h66q5 0 7.5 -3.5t-0.5 -8.5l-86 -158l86 -158q3 -5 0.5 -8.5t-7.5 -3.5h-66z
" />
    <glyph glyph-name="logicalnot" unicode="&#xac;" horiz-adv-x="600" 
d="M442 113q-10 0 -10 10v142h-330q-10 0 -10 10v50q0 10 10 10h396q10 0 10 -10v-202q0 -10 -10 -10h-56z" />
    <glyph glyph-name="uni00AD" unicode="&#xad;" horiz-adv-x="490" 
d="M80 233q-10 0 -10 10v45q0 10 10 10h330q10 0 10 -10v-45q0 -10 -10 -10h-330z" />
    <glyph glyph-name="registered" unicode="&#xae;" horiz-adv-x="598" 
d="M299 305q-115 0 -166 52t-51 134v30q0 82 51 132t166 50q116 0 168 -51t52 -133v-30q0 -82 -52 -133t-168 -51zM299 354q82 0 125 34t43 95v42q0 62 -43 95.5t-125 33.5t-123.5 -32.5t-41.5 -94.5v-42q0 -61 41.5 -96t123.5 -35zM227 395q-10 0 -10 10v204q0 9 11 9h71
q56 0 78.5 -18.5t22.5 -52.5q0 -26 -12 -41t-40 -25l52 -74q4 -4 2.5 -8t-7.5 -4h-32q-7 0 -12 7l-49 73h-38v-70q0 -10 -10 -10h-27zM264 513h40q26 0 37 7.5t11 20.5v8q0 17 -11 24t-39 7h-38v-67z" />
    <glyph glyph-name="macron" unicode="&#xaf;" horiz-adv-x="275" 
d="M40 570q-10 0 -10 10v52q0 10 10 10h195q10 0 10 -10v-52q0 -10 -10 -10h-195z" />
    <glyph glyph-name="degree" unicode="&#xb0;" horiz-adv-x="391" 
d="M196 400q-69 0 -107.5 35.5t-38.5 102.5v18q0 67 38.5 102.5t107.5 35.5t107 -35.5t38 -102.5v-18q0 -67 -38 -102.5t-107 -35.5zM196 457q38 0 59.5 19.5t21.5 61.5v18q0 42 -21 61.5t-60 19.5t-60.5 -19.5t-21.5 -61.5v-18q0 -42 21.5 -61.5t60.5 -19.5z" />
    <glyph glyph-name="plusminus" unicode="&#xb1;" horiz-adv-x="600" 
d="M272 173q-10 0 -10 10v142h-160q-10 0 -10 10v51q0 10 10 10h160v142q0 10 10 10h56q10 0 10 -10v-142h160q10 0 10 -10v-51q0 -10 -10 -10h-160v-142q0 -10 -10 -10h-56zM101 60q-10 0 -10 10v50q0 10 10 10h396q10 0 10 -10v-50q0 -10 -10 -10h-396z" />
    <glyph glyph-name="uni00B2" unicode="&#xb2;" horiz-adv-x="400" 
d="M66 351q-10 0 -10 10v48q0 36 15 62t38.5 46t50.5 36t50.5 31t38.5 32t15 38v14q0 21 -16 31.5t-52 10.5q-34 0 -50.5 -12.5t-16.5 -44.5q0 -9 -10 -9h-51q-10 0 -10 10q0 62 37.5 91.5t105.5 29.5t101.5 -28t33.5 -82q0 -38 -14 -64.5t-36.5 -45t-48 -33.5t-49 -29
t-39.5 -32t-19 -43h203q10 0 10 -10v-47q0 -10 -10 -10h-267z" />
    <glyph glyph-name="uni00B3" unicode="&#xb3;" horiz-adv-x="400" 
d="M191 344q-44 0 -75.5 13t-47.5 39.5t-16 68.5q0 10 10 10h51q10 0 10 -10q0 -33 16.5 -44.5t50.5 -11.5q41 0 61.5 15t20.5 41v16q0 26 -19 38.5t-60 12.5h-57q-10 0 -10 10v45q0 10 10 10h57q36 0 52.5 13t16.5 41v15q0 22 -16 33t-54 11q-37 0 -52.5 -13t-15.5 -43
q0 -10 -10 -10h-51q-10 0 -10 10q0 62 35.5 91.5t107.5 29.5q71 0 104.5 -28t33.5 -84q0 -32 -11 -55.5t-34 -37.5v-1q28 -15 41 -39.5t13 -59.5q0 -61 -39 -93.5t-113 -32.5z" />
    <glyph glyph-name="acute" unicode="&#xb4;" horiz-adv-x="216" 
d="M36 556q-10 0 -5 10l66 122q4 7 12 7h70q5 0 6.5 -3.5t-1.5 -7.5l-83 -122q-4 -6 -11 -6h-54z" />
    <glyph glyph-name="uni00B5" unicode="&#xb5;" horiz-adv-x="555" 
d="M85 -185q-10 0 -10 10v653q0 10 10 10h65q10 0 10 -10v-308q0 -55 20.5 -80.5t55.5 -25.5q36 0 77.5 23.5t68.5 61.5v329q0 10 10 10h65q10 0 10 -10v-362q0 -35 9 -45t31 -10q7 0 15.5 1.5t16.5 1.5q11 0 11 -10v-52q0 -4 -2 -6.5t-7 -3.5q-10 -1 -23 -2.5t-21 -1.5
q-53 0 -79.5 21.5t-26.5 64.5v1q-33 -40 -79 -63.5t-83 -23.5q-46 0 -74 25v-188q0 -10 -10 -10h-60z" />
    <glyph glyph-name="paragraph" unicode="&#xb6;" horiz-adv-x="616" 
d="M235 -185q-10 0 -10 10v488h-63q-50 0 -80 19.5t-43.5 52.5t-13.5 71v84q0 39 13.5 71.5t43.5 52t80 19.5h364q10 0 10 -10v-848q0 -10 -10 -10h-66q-10 0 -10 10v781h-139v-781q0 -10 -10 -10h-66z" />
    <glyph glyph-name="periodcentered" unicode="&#xb7;" horiz-adv-x="242" 
d="M121 197q-30 0 -43 15.5t-13 40.5v10q0 25 13 40.5t43 15.5t43 -15.5t13 -40.5v-10q0 -25 -13 -40.5t-43 -15.5z" />
    <glyph glyph-name="cedilla" unicode="&#xb8;" horiz-adv-x="204" 
d="M79 -197q-10 0 -20 1t-21 3q-8 1 -8 8v37q0 8 8 7q7 -1 15 -1.5t13 -0.5q22 0 31.5 7t9.5 17v13q0 15 -8.5 20.5t-25.5 5.5h-23q-7 0 -7 7q0 5 0.5 10.5t1.5 9.5l23 75q2 6 9 6h48q8 0 5 -11l-18 -58h9q26 0 39.5 -17.5t13.5 -46.5v-15q0 -40 -23.5 -58.5t-71.5 -18.5z
" />
    <glyph glyph-name="uni00B9" unicode="&#xb9;" horiz-adv-x="400" 
d="M74 351q-10 0 -10 10v47q0 10 10 10h96v268l-90 -27q-12 -3 -12 7v45q0 13 10 16l133 42q8 2 13 2h7q10 0 10 -10v-343h85q10 0 10 -10v-47q0 -10 -10 -10h-252z" />
    <glyph glyph-name="ordmasculine" unicode="&#xba;" horiz-adv-x="402" 
d="M200 322q-68 0 -106.5 39.5t-38.5 108.5v49q0 69 38.5 108.5t106.5 39.5q69 0 108 -39.5t39 -108.5v-49q0 -69 -39 -108.5t-108 -39.5zM71 204q-10 0 -10 10v43q0 10 10 10h259q10 0 10 -10v-43q0 -10 -10 -10h-259zM200 385q37 0 57 21.5t20 58.5v60q0 38 -20 58.5
t-57 20.5q-36 0 -55.5 -20.5t-19.5 -58.5v-60q0 -38 19.5 -59t55.5 -21z" />
    <glyph glyph-name="guillemotright" unicode="&#xbb;" horiz-adv-x="498" 
d="M254 93q-5 0 -7.5 3.5t0.5 8.5l86 158l-86 158q-3 5 -0.5 8.5t7.5 3.5h66q7 0 12 -7l92 -156q5 -7 0 -14l-92 -156q-5 -7 -12 -7h-66zM84 93q-5 0 -7.5 3.5t0.5 8.5l86 158l-86 158q-3 5 -0.5 8.5t7.5 3.5h66q7 0 12 -7l92 -156q5 -7 0 -14l-92 -156q-5 -7 -12 -7h-66z
" />
    <glyph glyph-name="onequarter" unicode="&#xbc;" horiz-adv-x="882" 
d="M74 238q-10 0 -10 10v47q0 10 10 10h96v268l-90 -27q-12 -3 -12 7v45q0 13 10 16l133 42q8 2 13 2h7q10 0 10 -10v-343h85q10 0 10 -10v-47q0 -10 -10 -10h-252zM268 -30q-12 0 -7 12l185 371l158 325q4 7 12 7h57q5 0 7.5 -3.5t-0.5 -8.5l-174 -348l-169 -348
q-3 -7 -12 -7h-57zM736 0q-10 0 -10 10v68h-204q-10 0 -10 10v6q0 8 4 16l163 297q6 10 14 10h55q7 0 9.5 -3.5t-1.5 -9.5l-143 -259h114v129q0 10 10 10h49q10 0 10 -10v-129h42q10 0 10 -10v-47q0 -10 -10 -10h-42v-68q0 -10 -10 -10h-50z" />
    <glyph glyph-name="onehalf" unicode="&#xbd;" horiz-adv-x="932" 
d="M74 238q-10 0 -10 10v47q0 10 10 10h96v268l-90 -27q-12 -3 -12 7v45q0 13 10 16l133 42q8 2 13 2h7q10 0 10 -10v-343h85q10 0 10 -10v-47q0 -10 -10 -10h-252zM268 -30q-12 0 -7 12l185 371l158 325q4 7 12 7h57q5 0 7.5 -3.5t-0.5 -8.5l-174 -348l-169 -348
q-3 -7 -12 -7h-57zM598 0q-10 0 -10 10v48q0 36 15 62t38.5 46t50.5 36t50.5 31t38.5 32t15 38v14q0 21 -16 31.5t-52 10.5q-34 0 -50.5 -12.5t-16.5 -44.5q0 -9 -10 -9h-51q-10 0 -10 10q0 62 37.5 91.5t105.5 29.5t101.5 -28t33.5 -82q0 -38 -14 -64.5t-36.5 -45
t-48 -33.5t-49 -29t-39.5 -32t-19 -43h203q10 0 10 -10v-47q0 -10 -10 -10h-267z" />
    <glyph glyph-name="threequarters" unicode="&#xbe;" horiz-adv-x="872" 
d="M191 231q-44 0 -75.5 13t-47.5 39.5t-16 68.5q0 10 10 10h51q10 0 10 -10q0 -33 16.5 -44.5t50.5 -11.5q41 0 61.5 15t20.5 41v16q0 26 -19 38.5t-60 12.5h-57q-10 0 -10 10v45q0 10 10 10h57q36 0 52.5 13t16.5 41v15q0 22 -16 33t-54 11q-37 0 -52.5 -13t-15.5 -43
q0 -10 -10 -10h-51q-10 0 -10 10q0 62 35.5 91.5t107.5 29.5q71 0 104.5 -28t33.5 -84q0 -32 -11 -55.5t-34 -37.5v-1q28 -15 41 -39.5t13 -59.5q0 -61 -39 -93.5t-113 -32.5zM258 -30q-12 0 -7 12l185 371l158 325q4 7 12 7h57q5 0 7.5 -3.5t-0.5 -8.5l-174 -348l-169 -348
q-3 -7 -12 -7h-57zM726 0q-10 0 -10 10v68h-204q-10 0 -10 10v6q0 8 4 16l163 297q6 10 14 10h55q7 0 9.5 -3.5t-1.5 -9.5l-143 -259h114v129q0 10 10 10h49q10 0 10 -10v-129h42q10 0 10 -10v-47q0 -10 -10 -10h-42v-68q0 -10 -10 -10h-50z" />
    <glyph glyph-name="questiondown" unicode="&#xbf;" horiz-adv-x="465" 
d="M297 288q10 0 10 -10v-39q0 -32 -17.5 -58t-43.5 -49.5t-52 -48t-43.5 -53t-17.5 -64.5q0 -37 26 -55t76 -18q62 0 86 28.5t24 81.5q0 11 9 11h66q6 0 8 -3.5t2 -8.5q0 -92 -50 -136.5t-148 -44.5q-93 0 -139 36.5t-46 102.5q0 44 18 79t44 63t52.5 51.5t44.5 44t19 40.5
l1 40q0 10 10 10h61zM263 500q30 0 43 -15.5t13 -40.5v-10q0 -25 -13 -40.5t-43 -15.5t-43 15.5t-13 40.5v10q0 25 13 40.5t43 15.5z" />
    <glyph glyph-name="Agrave" unicode="&#xc0;" horiz-adv-x="560" 
d="M9 0q-11 0 -8 11l221 636q3 8 12 8h89q9 0 12 -8l224 -636q3 -11 -8 -11h-71q-9 0 -12 8l-150 450l-20 60t-21 60h-1q-10 -29 -20 -58.5t-20 -58.5l-148 -453q-3 -8 -12 -8h-67zM120 153l21 74h272l22 -74h-315zM270 710q-7 0 -11 6l-72 101q-3 5 -1.5 8.5t6.5 3.5h73
q7 0 10 -7l56 -102q2 -4 1 -7t-6 -3h-56z" />
    <glyph glyph-name="Aacute" unicode="&#xc1;" horiz-adv-x="560" 
d="M9 0q-11 0 -8 11l221 636q3 8 12 8h89q9 0 12 -8l224 -636q3 -11 -8 -11h-71q-9 0 -12 8l-150 450l-20 60t-21 60h-1q-10 -29 -20 -58.5t-20 -58.5l-148 -453q-3 -8 -12 -8h-67zM120 153l21 74h272l22 -74h-315zM232 710q-5 0 -6 3t1 7l56 102q4 7 10 7h73q5 0 6.5 -3.5
t-1.5 -8.5l-72 -101q-4 -6 -11 -6h-56z" />
    <glyph glyph-name="Acircumflex" unicode="&#xc2;" horiz-adv-x="560" 
d="M9 0q-11 0 -8 11l221 636q3 8 12 8h89q9 0 12 -8l224 -636q3 -11 -8 -11h-71q-9 0 -12 8l-150 450l-20 60t-21 60h-1q-10 -29 -20 -58.5t-20 -58.5l-148 -453q-3 -8 -12 -8h-67zM120 153l21 74h272l22 -74h-315zM150 718q-11 -5 -11 6v50q0 7 7 10l126 56q7 4 14 0
l126 -56q7 -3 7 -10v-50q0 -11 -11 -6l-129 46z" />
    <glyph glyph-name="Atilde" unicode="&#xc3;" horiz-adv-x="560" 
d="M9 0q-11 0 -8 11l221 636q3 8 12 8h89q9 0 12 -8l224 -636q3 -11 -8 -11h-71q-9 0 -12 8l-150 450l-20 60t-21 60h-1q-10 -29 -20 -58.5t-20 -58.5l-148 -453q-3 -8 -12 -8h-67zM120 153l21 74h272l22 -74h-315zM335 719q-22 0 -39.5 6.5t-34.5 12.5t-38 6t-40.5 -6.5
t-30.5 -12.5q-12 -7 -12 6v47q0 10 6 13q11 5 30 15t50 10q27 0 44.5 -6t32.5 -12.5t34 -6.5q21 0 40.5 6.5t30.5 12.5q12 7 12 -6v-47q0 -8 -6 -13q-10 -7 -29.5 -16t-49.5 -9z" />
    <glyph glyph-name="Adieresis" unicode="&#xc4;" horiz-adv-x="560" 
d="M9 0q-11 0 -8 11l221 636q3 8 12 8h89q9 0 12 -8l224 -636q3 -11 -8 -11h-71q-9 0 -12 8l-150 450l-20 60t-21 60h-1q-10 -29 -20 -58.5t-20 -58.5l-148 -453q-3 -8 -12 -8h-67zM120 153l21 74h272l22 -74h-315zM195 711q-28 0 -40 14.5t-12 36.5v10q0 23 12 37t40 14
t40 -14t12 -37v-10q0 -22 -12 -36.5t-40 -14.5zM363 711q-28 0 -40 14.5t-12 36.5v10q0 23 12 37t40 14t40 -14t12 -37v-10q0 -22 -12 -36.5t-40 -14.5z" />
    <glyph glyph-name="Aring" unicode="&#xc5;" horiz-adv-x="560" 
d="M559 11q3 -11 -8 -11h-71q-9 0 -12 8l-48 145h-285l-47 -145q-3 -8 -12 -8h-67q-11 0 -8 11l212 611q-21 12 -32.5 32.5t-11.5 48.5q0 47 30 71.5t81 24.5q50 0 80.5 -24.5t30.5 -71.5q0 -29 -12 -50t-35 -32zM229 703q0 -20 11.5 -33t39.5 -13t39.5 13t11.5 33t-11.5 33
t-39.5 13t-39.5 -13t-11.5 -33zM160 227h235l-77 231l-20 60t-21 60h-1q-10 -29 -20 -58.5t-20 -58.5z" />
    <glyph glyph-name="AE" unicode="&#xc6;" horiz-adv-x="834" 
d="M9 0q-5 0 -7.5 3.5t0.5 8.5l330 636q4 7 12 7h408q10 0 10 -10v-57q0 -10 -10 -10h-281v-208h257q10 0 10 -10v-54q0 -10 -10 -10h-257v-219h281q10 0 10 -10v-57q0 -10 -10 -10h-356q-10 0 -10 10v143h-222l-74 -146q-4 -7 -12 -7h-69zM202 227h184v273v42.5t1 50.5h-2
q-10 -22 -21 -44.5t-22 -45.5z" />
    <glyph glyph-name="Ccedilla" unicode="&#xc7;" horiz-adv-x="633" 
d="M320 -12q-122 0 -184.5 61t-62.5 174v209q0 113 63.5 174t184.5 61q77 0 135.5 -26.5t88 -76t19.5 -118.5q-1 -5 -3 -9.5t-8 -4.5h-65q-11 0 -9 10q3 72 -37.5 111t-119.5 39t-121.5 -41t-42.5 -118v-211q0 -77 42.5 -118t121.5 -41t122 39.5t35 110.5q-2 10 9 10h64
q10 0 12 -14q6 -67 -23.5 -116.5t-86.5 -77t-134 -27.5zM307 -197q-10 0 -20 1t-21 3q-8 1 -8 8v37q0 8 8 7q7 -1 15 -1.5t13 -0.5q22 0 31.5 7t9.5 17v13q0 15 -8.5 20.5t-25.5 5.5h-23q-7 0 -7 7q0 5 0.5 10.5t1.5 9.5l23 75q2 6 9 6h48q8 0 5 -11l-18 -58h9
q26 0 39.5 -17.5t13.5 -46.5v-15q0 -40 -23.5 -58.5t-71.5 -18.5z" />
    <glyph glyph-name="Egrave" unicode="&#xc8;" horiz-adv-x="533" 
d="M95 0q-10 0 -10 10v635q0 10 10 10h356q10 0 10 -10v-57q0 -10 -10 -10h-281v-208h257q10 0 10 -10v-54q0 -10 -10 -10h-257v-219h281q10 0 10 -10v-57q0 -10 -10 -10h-356zM271 710q-7 0 -11 6l-72 101q-3 5 -1.5 8.5t6.5 3.5h73q7 0 10 -7l56 -102q2 -4 1 -7t-6 -3h-56
z" />
    <glyph glyph-name="Eacute" unicode="&#xc9;" horiz-adv-x="533" 
d="M95 0q-10 0 -10 10v635q0 10 10 10h356q10 0 10 -10v-57q0 -10 -10 -10h-281v-208h257q10 0 10 -10v-54q0 -10 -10 -10h-257v-219h281q10 0 10 -10v-57q0 -10 -10 -10h-356zM233 710q-5 0 -6 3t1 7l56 102q4 7 10 7h73q5 0 6.5 -3.5t-1.5 -8.5l-72 -101q-4 -6 -11 -6h-56
z" />
    <glyph glyph-name="Ecircumflex" unicode="&#xca;" horiz-adv-x="533" 
d="M95 0q-10 0 -10 10v635q0 10 10 10h356q10 0 10 -10v-57q0 -10 -10 -10h-281v-208h257q10 0 10 -10v-54q0 -10 -10 -10h-257v-219h281q10 0 10 -10v-57q0 -10 -10 -10h-356zM151 718q-11 -5 -11 6v50q0 7 7 10l126 56q7 4 14 0l126 -56q7 -3 7 -10v-50q0 -11 -11 -6
l-129 46z" />
    <glyph glyph-name="Edieresis" unicode="&#xcb;" horiz-adv-x="533" 
d="M95 0q-10 0 -10 10v635q0 10 10 10h356q10 0 10 -10v-57q0 -10 -10 -10h-281v-208h257q10 0 10 -10v-54q0 -10 -10 -10h-257v-219h281q10 0 10 -10v-57q0 -10 -10 -10h-356zM196 711q-28 0 -40 14.5t-12 36.5v10q0 23 12 37t40 14t40 -14t12 -37v-10q0 -22 -12 -36.5
t-40 -14.5zM364 711q-28 0 -40 14.5t-12 36.5v10q0 23 12 37t40 14t40 -14t12 -37v-10q0 -22 -12 -36.5t-40 -14.5z" />
    <glyph glyph-name="Igrave" unicode="&#xcc;" horiz-adv-x="255" 
d="M95 0q-10 0 -10 10v635q0 10 10 10h65q10 0 10 -10v-635q0 -10 -10 -10h-65zM119 710q-7 0 -11 6l-72 101q-3 5 -1.5 8.5t6.5 3.5h73q7 0 10 -7l56 -102q2 -4 1 -7t-6 -3h-56z" />
    <glyph glyph-name="Iacute" unicode="&#xcd;" horiz-adv-x="255" 
d="M95 0q-10 0 -10 10v635q0 10 10 10h65q10 0 10 -10v-635q0 -10 -10 -10h-65zM81 710q-5 0 -6 3t1 7l56 102q4 7 10 7h73q5 0 6.5 -3.5t-1.5 -8.5l-72 -101q-4 -6 -11 -6h-56z" />
    <glyph glyph-name="Icircumflex" unicode="&#xce;" horiz-adv-x="255" 
d="M95 0q-10 0 -10 10v635q0 10 10 10h65q10 0 10 -10v-635q0 -10 -10 -10h-65zM-1 718q-11 -5 -11 6v50q0 7 7 10l126 56q7 4 14 0l126 -56q7 -3 7 -10v-50q0 -11 -11 -6l-129 46z" />
    <glyph glyph-name="Idieresis" unicode="&#xcf;" horiz-adv-x="255" 
d="M95 0q-10 0 -10 10v635q0 10 10 10h65q10 0 10 -10v-635q0 -10 -10 -10h-65zM44 711q-28 0 -40 14.5t-12 36.5v10q0 23 12 37t40 14t40 -14t12 -37v-10q0 -22 -12 -36.5t-40 -14.5zM212 711q-28 0 -40 14.5t-12 36.5v10q0 23 12 37t40 14t40 -14t12 -37v-10
q0 -22 -12 -36.5t-40 -14.5z" />
    <glyph glyph-name="Eth" unicode="&#xd0;" horiz-adv-x="641" 
d="M15 298q-10 0 -10 10v50q0 10 10 10h70h232q10 0 10 -10v-50q0 -10 -10 -10h-302zM95 0q-10 0 -10 10v635q0 10 10 10h175q154 0 230 -71.5t76 -216.5v-50q0 -160 -75.5 -238.5t-230.5 -78.5h-175zM170 72h94q117 0 172 58t55 181v62q0 108 -55 159t-172 51h-94v-511z
" />
    <glyph glyph-name="Ntilde" unicode="&#xd1;" horiz-adv-x="662" 
d="M95 0q-10 0 -10 10v635q0 10 10 10h116q9 0 12 -7l188 -382q19 -37 33.5 -67t26 -56t21.5 -51h2v58.5t-0.5 61.5t-0.5 58v375q0 10 10 10h64q10 0 10 -10v-635q0 -10 -10 -10h-113q-9 0 -12 7l-185 372q-16 33 -31 63.5t-29 60.5t-27 60h-2q0 -34 0.5 -65t0.5 -61.5
v-65.5v-361q0 -10 -10 -10h-64zM387 719q-22 0 -39.5 6.5t-34.5 12.5t-38 6t-40.5 -6.5t-30.5 -12.5q-12 -7 -12 6v47q0 10 6 13q11 5 30 15t50 10q27 0 44.5 -6t32.5 -12.5t34 -6.5q21 0 40.5 6.5t30.5 12.5q12 7 12 -6v-47q0 -8 -6 -13q-10 -7 -29.5 -16t-49.5 -9z" />
    <glyph glyph-name="Ograve" unicode="&#xd2;" horiz-adv-x="642" 
d="M321 -12q-125 0 -186.5 61.5t-61.5 173.5v209q0 113 61.5 174t186.5 61t186.5 -61t61.5 -174v-209q0 -112 -61.5 -173.5t-186.5 -61.5zM321 63q80 0 121.5 41t41.5 120v207q0 80 -41.5 120.5t-121.5 40.5q-79 0 -121 -40.5t-42 -120.5v-207q0 -79 42 -120t121 -41z
M312 710q-7 0 -11 6l-72 101q-3 5 -1.5 8.5t6.5 3.5h73q7 0 10 -7l56 -102q2 -4 1 -7t-6 -3h-56z" />
    <glyph glyph-name="Oacute" unicode="&#xd3;" horiz-adv-x="642" 
d="M321 -12q-125 0 -186.5 61.5t-61.5 173.5v209q0 113 61.5 174t186.5 61t186.5 -61t61.5 -174v-209q0 -112 -61.5 -173.5t-186.5 -61.5zM321 63q80 0 121.5 41t41.5 120v207q0 80 -41.5 120.5t-121.5 40.5q-79 0 -121 -40.5t-42 -120.5v-207q0 -79 42 -120t121 -41z
M274 710q-5 0 -6 3t1 7l56 102q4 7 10 7h73q5 0 6.5 -3.5t-1.5 -8.5l-72 -101q-4 -6 -11 -6h-56z" />
    <glyph glyph-name="Ocircumflex" unicode="&#xd4;" horiz-adv-x="642" 
d="M321 -12q-125 0 -186.5 61.5t-61.5 173.5v209q0 113 61.5 174t186.5 61t186.5 -61t61.5 -174v-209q0 -112 -61.5 -173.5t-186.5 -61.5zM321 63q80 0 121.5 41t41.5 120v207q0 80 -41.5 120.5t-121.5 40.5q-79 0 -121 -40.5t-42 -120.5v-207q0 -79 42 -120t121 -41z
M192 718q-11 -5 -11 6v50q0 7 7 10l126 56q7 4 14 0l126 -56q7 -3 7 -10v-50q0 -11 -11 -6l-129 46z" />
    <glyph glyph-name="Otilde" unicode="&#xd5;" horiz-adv-x="642" 
d="M321 -12q-125 0 -186.5 61.5t-61.5 173.5v209q0 113 61.5 174t186.5 61t186.5 -61t61.5 -174v-209q0 -112 -61.5 -173.5t-186.5 -61.5zM321 63q80 0 121.5 41t41.5 120v207q0 80 -41.5 120.5t-121.5 40.5q-79 0 -121 -40.5t-42 -120.5v-207q0 -79 42 -120t121 -41z
M377 719q-22 0 -39.5 6.5t-34.5 12.5t-38 6t-40.5 -6.5t-30.5 -12.5q-12 -7 -12 6v47q0 10 6 13q11 5 30 15t50 10q27 0 44.5 -6t32.5 -12.5t34 -6.5q21 0 40.5 6.5t30.5 12.5q12 7 12 -6v-47q0 -8 -6 -13q-10 -7 -29.5 -16t-49.5 -9z" />
    <glyph glyph-name="Odieresis" unicode="&#xd6;" horiz-adv-x="642" 
d="M321 -12q-125 0 -186.5 61.5t-61.5 173.5v209q0 113 61.5 174t186.5 61t186.5 -61t61.5 -174v-209q0 -112 -61.5 -173.5t-186.5 -61.5zM321 63q80 0 121.5 41t41.5 120v207q0 80 -41.5 120.5t-121.5 40.5q-79 0 -121 -40.5t-42 -120.5v-207q0 -79 42 -120t121 -41z
M237 711q-28 0 -40 14.5t-12 36.5v10q0 23 12 37t40 14t40 -14t12 -37v-10q0 -22 -12 -36.5t-40 -14.5zM405 711q-28 0 -40 14.5t-12 36.5v10q0 23 12 37t40 14t40 -14t12 -37v-10q0 -22 -12 -36.5t-40 -14.5z" />
    <glyph glyph-name="multiply" unicode="&#xd7;" horiz-adv-x="600" 
d="M171 135l-36 36q-7 7 0 14l115 116l-115 115q-7 7 0 14l36 36q7 7 14 0l116 -115l115 115q7 7 14 0l36 -36q7 -7 0 -14l-115 -115l115 -116q7 -7 0 -14l-36 -36q-7 -7 -14 0l-115 115l-116 -115q-7 -7 -14 0z" />
    <glyph glyph-name="Oslash" unicode="&#xd8;" horiz-adv-x="642" 
d="M52 -50q-6 0 -7.5 3.5t1.5 8.5l82 128l30 47l288 453l15 24l54 85q4 6 12 6h63q6 0 7.5 -3.5t-1.5 -8.5l-84 -132l-23 -37l-287 -449l-20 -32l-55 -87q-4 -6 -12 -6h-63zM321 -12q-125 0 -186.5 61.5t-61.5 173.5v209q0 113 61.5 174t186.5 61t186.5 -61t61.5 -174v-209
q0 -112 -61.5 -173.5t-186.5 -61.5zM321 63q80 0 121.5 41t41.5 120v207q0 80 -41.5 120.5t-121.5 40.5q-79 0 -121 -40.5t-42 -120.5v-207q0 -79 42 -120t121 -41z" />
    <glyph glyph-name="Ugrave" unicode="&#xd9;" horiz-adv-x="644" 
d="M322 -12q-115 0 -178.5 61t-63.5 176v420q0 10 10 10h65q10 0 10 -10v-423q0 -76 40.5 -117.5t116.5 -41.5t116.5 41.5t40.5 117.5v423q0 10 10 10h65q10 0 10 -10v-422q0 -109 -64.5 -172t-177.5 -63zM313 710q-7 0 -11 6l-72 101q-3 5 -1.5 8.5t6.5 3.5h73q7 0 10 -7
l56 -102q2 -4 1 -7t-6 -3h-56z" />
    <glyph glyph-name="Uacute" unicode="&#xda;" horiz-adv-x="644" 
d="M322 -12q-115 0 -178.5 61t-63.5 176v420q0 10 10 10h65q10 0 10 -10v-423q0 -76 40.5 -117.5t116.5 -41.5t116.5 41.5t40.5 117.5v423q0 10 10 10h65q10 0 10 -10v-422q0 -109 -64.5 -172t-177.5 -63zM275 710q-5 0 -6 3t1 7l56 102q4 7 10 7h73q5 0 6.5 -3.5t-1.5 -8.5
l-72 -101q-4 -6 -11 -6h-56z" />
    <glyph glyph-name="Ucircumflex" unicode="&#xdb;" horiz-adv-x="644" 
d="M322 -12q-115 0 -178.5 61t-63.5 176v420q0 10 10 10h65q10 0 10 -10v-423q0 -76 40.5 -117.5t116.5 -41.5t116.5 41.5t40.5 117.5v423q0 10 10 10h65q10 0 10 -10v-422q0 -109 -64.5 -172t-177.5 -63zM193 718q-11 -5 -11 6v50q0 7 7 10l126 56q7 4 14 0l126 -56
q7 -3 7 -10v-50q0 -11 -11 -6l-129 46z" />
    <glyph glyph-name="Udieresis" unicode="&#xdc;" horiz-adv-x="644" 
d="M322 -12q-115 0 -178.5 61t-63.5 176v420q0 10 10 10h65q10 0 10 -10v-423q0 -76 40.5 -117.5t116.5 -41.5t116.5 41.5t40.5 117.5v423q0 10 10 10h65q10 0 10 -10v-422q0 -109 -64.5 -172t-177.5 -63zM238 711q-28 0 -40 14.5t-12 36.5v10q0 23 12 37t40 14t40 -14
t12 -37v-10q0 -22 -12 -36.5t-40 -14.5zM406 711q-28 0 -40 14.5t-12 36.5v10q0 23 12 37t40 14t40 -14t12 -37v-10q0 -22 -12 -36.5t-40 -14.5z" />
    <glyph glyph-name="Yacute" unicode="&#xdd;" horiz-adv-x="535" 
d="M235 0q-10 0 -10 10v215l-214 418q-2 5 0 8.5t7 3.5h76q9 0 12 -7l110 -226q13 -26 26 -53.5t26 -53.5h1q14 28 27 55t26 55l109 223q3 7 12 7h74q5 0 7 -3.5t0 -8.5l-214 -418v-215q0 -10 -10 -10h-65zM221 710q-5 0 -6 3t1 7l56 102q4 7 10 7h73q5 0 6.5 -3.5
t-1.5 -8.5l-72 -101q-4 -6 -11 -6h-56z" />
    <glyph glyph-name="Thorn" unicode="&#xde;" horiz-adv-x="545" 
d="M95 0q-10 0 -10 10v635q0 10 10 10h65q10 0 10 -10v-101h92q121 0 182 -51.5t61 -152.5q0 -100 -61.5 -152t-181.5 -52h-92v-126q0 -10 -10 -10h-65zM170 208h90q84 0 122 31.5t38 97.5q0 71 -39.5 103t-122.5 32h-88v-264z" />
    <glyph glyph-name="germandbls" unicode="&#xdf;" horiz-adv-x="538" 
d="M343 -12q-49 0 -81 12.5t-47.5 39.5t-15.5 68q0 9 11 9h62q9 0 9 -10q0 -22 16 -33.5t47 -11.5q38 0 57 16.5t19 48.5q0 35 -17.5 58t-43 41t-51 36.5t-43 43t-17.5 60.5q0 31 14.5 53t33.5 41t33.5 41t14.5 53q0 34 -22 51.5t-64 17.5q-50 0 -74 -26.5t-24 -83.5v-503
q0 -10 -10 -10h-65q-10 0 -10 10v492q0 99 44 146t136 47q56 0 95 -15.5t59 -46.5t20 -77q0 -41 -14.5 -68t-33.5 -46t-33.5 -35t-14.5 -35q0 -21 17.5 -38t43 -35.5t51 -41.5t43 -55t17.5 -78q0 -65 -40.5 -100.5t-121.5 -35.5z" />
    <glyph glyph-name="agrave" unicode="&#xe0;" horiz-adv-x="494" 
d="M358 0q-6 0 -8 4t-4 10q-1 8 -4.5 34.5t-4.5 47.5l-3 38v199q0 50 -20 71t-70 21q-90 0 -90 -62q0 -10 -9 -10h-66q-10 0 -11 19q-5 57 44.5 92.5t134.5 35.5q87 0 129.5 -41t42.5 -124v-214q0 -35 2 -62.5t5 -47.5q2 -11 -10 -11h-58zM167 -12q-58 0 -88.5 35t-30.5 102
q0 52 20.5 85t66 51t121.5 24l94 8v-65l-96 -8q-69 -6 -95 -25t-26 -64q0 -34 14 -51t42 -17q33 0 69 22.5t95 83.5v-75q-35 -38 -65.5 -61.5t-59.5 -34t-61 -10.5zM239 556q-7 0 -11 6l-83 122q-3 4 -1.5 7.5t6.5 3.5h70q9 0 12 -7l66 -122q5 -10 -5 -10h-54z" />
    <glyph glyph-name="aacute" unicode="&#xe1;" horiz-adv-x="494" 
d="M358 0q-6 0 -8 4t-4 10q-1 8 -4.5 34.5t-4.5 47.5l-3 38v199q0 50 -20 71t-70 21q-90 0 -90 -62q0 -10 -9 -10h-66q-10 0 -11 19q-5 57 44.5 92.5t134.5 35.5q87 0 129.5 -41t42.5 -124v-214q0 -35 2 -62.5t5 -47.5q2 -11 -10 -11h-58zM167 -12q-58 0 -88.5 35t-30.5 102
q0 52 20.5 85t66 51t121.5 24l94 8v-65l-96 -8q-69 -6 -95 -25t-26 -64q0 -34 14 -51t42 -17q33 0 69 22.5t95 83.5v-75q-35 -38 -65.5 -61.5t-59.5 -34t-61 -10.5zM192 556q-10 0 -5 10l66 122q4 7 12 7h70q5 0 6.5 -3.5t-1.5 -7.5l-83 -122q-4 -6 -11 -6h-54z" />
    <glyph glyph-name="acircumflex" unicode="&#xe2;" horiz-adv-x="494" 
d="M358 0q-6 0 -8 4t-4 10q-1 8 -4.5 34.5t-4.5 47.5l-3 38v199q0 50 -20 71t-70 21q-90 0 -90 -62q0 -10 -9 -10h-66q-10 0 -11 19q-5 57 44.5 92.5t134.5 35.5q87 0 129.5 -41t42.5 -124v-214q0 -35 2 -62.5t5 -47.5q2 -11 -10 -11h-58zM167 -12q-58 0 -88.5 35t-30.5 102
q0 52 20.5 85t66 51t121.5 24l94 8v-65l-96 -8q-69 -6 -95 -25t-26 -64q0 -34 14 -51t42 -17q33 0 69 22.5t95 83.5v-75q-35 -38 -65.5 -61.5t-59.5 -34t-61 -10.5zM124 552q-11 -6 -11 4v51q0 9 7 13l116 66q7 5 14 0l116 -66q7 -4 7 -13v-51q0 -10 -11 -4l-119 59z" />
    <glyph glyph-name="atilde" unicode="&#xe3;" horiz-adv-x="494" 
d="M358 0q-6 0 -8 4t-4 10q-1 8 -4.5 34.5t-4.5 47.5l-3 38v199q0 50 -20 71t-70 21q-90 0 -90 -62q0 -10 -9 -10h-66q-10 0 -11 19q-5 57 44.5 92.5t134.5 35.5q87 0 129.5 -41t42.5 -124v-214q0 -35 2 -62.5t5 -47.5q2 -11 -10 -11h-58zM167 -12q-58 0 -88.5 35t-30.5 102
q0 52 20.5 85t66 51t121.5 24l94 8v-65l-96 -8q-69 -6 -95 -25t-26 -64q0 -34 14 -51t42 -17q33 0 69 22.5t95 83.5v-75q-35 -38 -65.5 -61.5t-59.5 -34t-61 -10.5zM293 567q-20 0 -36 6.5t-31.5 12.5t-34.5 6q-17 0 -36 -7t-30 -12q-12 -5 -12 6v47q0 9 6 13q9 7 28.5 16
t45.5 9q25 0 41.5 -6t30 -12.5t30.5 -6.5t36 7t30 12q12 5 12 -6v-47q0 -8 -6 -13q-9 -7 -28.5 -16t-45.5 -9z" />
    <glyph glyph-name="adieresis" unicode="&#xe4;" horiz-adv-x="494" 
d="M358 0q-6 0 -8 4t-4 10q-1 8 -4.5 34.5t-4.5 47.5l-3 38v199q0 50 -20 71t-70 21q-90 0 -90 -62q0 -10 -9 -10h-66q-10 0 -11 19q-5 57 44.5 92.5t134.5 35.5q87 0 129.5 -41t42.5 -124v-214q0 -35 2 -62.5t5 -47.5q2 -11 -10 -11h-58zM167 -12q-58 0 -88.5 35t-30.5 102
q0 52 20.5 85t66 51t121.5 24l94 8v-65l-96 -8q-69 -6 -95 -25t-26 -64q0 -34 14 -51t42 -17q33 0 69 22.5t95 83.5v-75q-35 -38 -65.5 -61.5t-59.5 -34t-61 -10.5zM158 570q-28 0 -40 14.5t-12 36.5v10q0 23 12 37t40 14t40 -14t12 -37v-10q0 -22 -12 -36.5t-40 -14.5z
M327 570q-28 0 -40 14.5t-12 36.5v10q0 23 12 37t40 14t40 -14t12 -37v-10q0 -22 -12 -36.5t-40 -14.5z" />
    <glyph glyph-name="aring" unicode="&#xe5;" horiz-adv-x="494" 
d="M358 0q-6 0 -8 4t-4 10q-1 8 -4.5 34.5t-4.5 47.5l-3 38v199q0 50 -20 71t-70 21q-90 0 -90 -62q0 -10 -9 -10h-66q-10 0 -11 19q-5 57 44.5 92.5t134.5 35.5q87 0 129.5 -41t42.5 -124v-214q0 -35 2 -62.5t5 -47.5q2 -11 -10 -11h-58zM167 -12q-58 0 -88.5 35t-30.5 102
q0 52 20.5 85t66 51t121.5 24l94 8v-65l-96 -8q-69 -6 -95 -25t-26 -64q0 -34 14 -51t42 -17q33 0 69 22.5t95 83.5v-75q-35 -38 -65.5 -61.5t-59.5 -34t-61 -10.5zM243 551q-50 0 -80.5 25t-30.5 71q0 47 30 71.5t81 24.5q50 0 80.5 -24.5t30.5 -71.5q0 -46 -30 -71
t-81 -25zM243 601q28 0 39.5 13t11.5 33t-11.5 33t-39.5 13t-39.5 -13t-11.5 -33t11.5 -33t39.5 -13z" />
    <glyph glyph-name="ae" unicode="&#xe6;" horiz-adv-x="778" 
d="M164 -12q-56 0 -86 35t-30 102q0 53 20.5 86.5t66.5 52t121 25.5l78 7v37q0 50 -20 71t-70 21q-45 0 -67.5 -15.5t-22.5 -46.5q0 -10 -9 -10h-66q-10 0 -11 19q-3 38 17.5 66.5t59.5 45t91 16.5t88.5 -17t56.5 -50q24 32 65 49.5t91 17.5q86 0 133.5 -50t47.5 -139v-74
q0 -10 -10 -10h-293v-36q0 -69 25.5 -98.5t84.5 -29.5q46 0 72 15t26 40q0 17 11 17h65q10 0 10 -23q0 -56 -52 -90t-140 -34q-66 0 -107.5 24.5t-59.5 73.5q-49 -50 -94.5 -74t-91.5 -24zM189 63q30 0 62.5 20t84.5 69q-1 11 -1.5 24t-0.5 25v26l-80 -7q-69 -6 -95 -25
t-26 -64q0 -34 14 -51t42 -17zM415 296h218v2q0 65 -25 96t-79 31q-56 0 -85 -32t-29 -96v-1z" />
    <glyph glyph-name="ccedilla" unicode="&#xe7;" horiz-adv-x="517" 
d="M266 -12q-100 0 -152 50t-52 144v124q0 94 53 144t153 50q59 0 101 -18t65 -49.5t23 -74.5q0 -23 -10 -23h-66q-9 0 -9 16q0 35 -28 54.5t-76 19.5q-61 0 -91 -31t-30 -96v-108q0 -64 30 -95.5t90 -31.5q48 0 76 21t28 52q0 16 9 16h66q10 0 10 -9q0 -71 -49 -113
t-141 -42zM248 -197q-10 0 -20 1t-21 3q-8 1 -8 8v37q0 8 8 7q7 -1 15 -1.5t13 -0.5q22 0 31.5 7t9.5 17v13q0 15 -8.5 20.5t-25.5 5.5h-23q-7 0 -7 7q0 5 0.5 10.5t1.5 9.5l23 75q2 6 9 6h48q8 0 5 -11l-18 -58h9q26 0 39.5 -17.5t13.5 -46.5v-15q0 -40 -23.5 -58.5
t-71.5 -18.5z" />
    <glyph glyph-name="egrave" unicode="&#xe8;" horiz-adv-x="519" 
d="M261 -12q-96 0 -147.5 45t-51.5 133v140q0 95 51 144.5t148 49.5t147.5 -48.5t50.5 -140.5v-78q0 -10 -10 -10h-302v-32q0 -67 28 -97.5t91 -30.5q47 0 72.5 15.5t25.5 45.5q0 11 11 11h65q8 0 10 -9q4 -64 -47 -101t-142 -37zM147 296h227v6q0 63 -28 93t-84 30
q-58 0 -86.5 -31t-28.5 -93v-5zM254 568q-7 0 -11 6l-83 122q-3 4 -1.5 7.5t6.5 3.5h70q9 0 12 -7l66 -122q5 -10 -5 -10h-54z" />
    <glyph glyph-name="eacute" unicode="&#xe9;" horiz-adv-x="519" 
d="M261 -12q-96 0 -147.5 45t-51.5 133v140q0 95 51 144.5t148 49.5t147.5 -48.5t50.5 -140.5v-78q0 -10 -10 -10h-302v-32q0 -67 28 -97.5t91 -30.5q47 0 72.5 15.5t25.5 45.5q0 11 11 11h65q8 0 10 -9q4 -64 -47 -101t-142 -37zM147 296h227v6q0 63 -28 93t-84 30
q-58 0 -86.5 -31t-28.5 -93v-5zM207 568q-10 0 -5 10l66 122q4 7 12 7h70q5 0 6.5 -3.5t-1.5 -7.5l-83 -122q-4 -6 -11 -6h-54z" />
    <glyph glyph-name="ecircumflex" unicode="&#xea;" horiz-adv-x="519" 
d="M261 -12q-96 0 -147.5 45t-51.5 133v140q0 95 51 144.5t148 49.5t147.5 -48.5t50.5 -140.5v-78q0 -10 -10 -10h-302v-32q0 -67 28 -97.5t91 -30.5q47 0 72.5 15.5t25.5 45.5q0 11 11 11h65q8 0 10 -9q4 -64 -47 -101t-142 -37zM147 296h227v6q0 63 -28 93t-84 30
q-58 0 -86.5 -31t-28.5 -93v-5zM139 564q-11 -6 -11 4v51q0 9 7 13l116 66q7 5 14 0l116 -66q7 -4 7 -13v-51q0 -10 -11 -4l-119 59z" />
    <glyph glyph-name="edieresis" unicode="&#xeb;" horiz-adv-x="519" 
d="M261 -12q-96 0 -147.5 45t-51.5 133v140q0 95 51 144.5t148 49.5t147.5 -48.5t50.5 -140.5v-78q0 -10 -10 -10h-302v-32q0 -67 28 -97.5t91 -30.5q47 0 72.5 15.5t25.5 45.5q0 11 11 11h65q8 0 10 -9q4 -64 -47 -101t-142 -37zM147 296h227v6q0 63 -28 93t-84 30
q-58 0 -86.5 -31t-28.5 -93v-5zM173 582q-28 0 -40 14.5t-12 36.5v10q0 23 12 37t40 14t40 -14t12 -37v-10q0 -22 -12 -36.5t-40 -14.5zM342 582q-28 0 -40 14.5t-12 36.5v10q0 23 12 37t40 14t40 -14t12 -37v-10q0 -22 -12 -36.5t-40 -14.5z" />
    <glyph glyph-name="igrave" unicode="&#xec;" horiz-adv-x="235" 
d="M85 0q-10 0 -10 10v468q0 10 10 10h65q10 0 10 -10v-468q0 -10 -10 -10h-65zM114 556q-7 0 -11 6l-83 122q-3 4 -1.5 7.5t6.5 3.5h70q9 0 12 -7l66 -122q5 -10 -5 -10h-54z" />
    <glyph glyph-name="iacute" unicode="&#xed;" horiz-adv-x="235" 
d="M85 0q-10 0 -10 10v468q0 10 10 10h65q10 0 10 -10v-468q0 -10 -10 -10h-65zM67 556q-10 0 -5 10l66 122q4 7 12 7h70q5 0 6.5 -3.5t-1.5 -7.5l-83 -122q-4 -6 -11 -6h-54z" />
    <glyph glyph-name="icircumflex" unicode="&#xee;" horiz-adv-x="235" 
d="M85 0q-10 0 -10 10v468q0 10 10 10h65q10 0 10 -10v-468q0 -10 -10 -10h-65zM-1 552q-11 -6 -11 4v51q0 9 7 13l116 66q7 5 14 0l116 -66q7 -4 7 -13v-51q0 -10 -11 -4l-119 59z" />
    <glyph glyph-name="idieresis" unicode="&#xef;" horiz-adv-x="235" 
d="M85 0q-10 0 -10 10v468q0 10 10 10h65q10 0 10 -10v-468q0 -10 -10 -10h-65zM33 570q-28 0 -40 14.5t-12 36.5v10q0 23 12 37t40 14t40 -14t12 -37v-10q0 -22 -12 -36.5t-40 -14.5zM202 570q-28 0 -40 14.5t-12 36.5v10q0 23 12 37t40 14t40 -14t12 -37v-10
q0 -22 -12 -36.5t-40 -14.5z" />
    <glyph glyph-name="eth" unicode="&#xf0;" horiz-adv-x="532" 
d="M266 -12q-100 0 -152 46t-52 141v105q0 92 42.5 139t113.5 47q54 0 98 -20.5t76 -63.5v-86q-28 45 -70.5 69.5t-86.5 24.5q-42 0 -65 -29.5t-23 -92.5v-85q0 -67 29 -95t90 -28q62 0 91.5 35.5t29.5 101.5v109q6 63 -7.5 117t-43 96t-71 71t-91.5 41q-12 3 -14.5 7
t1.5 10l27 39q4 6 8.5 7t12.5 -1q79 -14 137.5 -63.5t91 -121t32.5 -153.5v-160q0 -100 -52 -153.5t-152 -53.5zM193 515q-8 -4 -13 7l-18 38q-3 8 6 12l266 120q8 4 13 -7l17 -38q3 -8 -6 -12z" />
    <glyph glyph-name="ntilde" unicode="&#xf1;" horiz-adv-x="556" 
d="M406 0q-10 0 -10 10v319q0 50 -20.5 73t-61.5 23q-39 0 -77 -23t-95 -79l1 77q34 36 64.5 58t61 32t64.5 10q72 0 110 -42t38 -125v-323q0 -10 -10 -10h-65zM85 0q-10 0 -10 10v356q0 26 -2.5 58.5t-4.5 50.5q-2 13 10 13h61q9 0 11 -10q2 -8 4 -25t4 -35.5t2 -31.5v-26
v-350q0 -10 -10 -10h-65zM332 567q-20 0 -36 6.5t-31.5 12.5t-34.5 6q-17 0 -36 -7t-30 -12q-12 -5 -12 6v47q0 9 6 13q9 7 28.5 16t45.5 9q25 0 41.5 -6t30 -12.5t30.5 -6.5t36 7t30 12q12 5 12 -6v-47q0 -8 -6 -13q-9 -7 -28.5 -16t-45.5 -9z" />
    <glyph glyph-name="ograve" unicode="&#xf2;" horiz-adv-x="536" 
d="M268 -12q-101 0 -153.5 49t-52.5 149v116q0 100 52 149t154 49q101 0 153.5 -49t52.5 -149v-116q0 -100 -52 -149t-154 -49zM268 63q64 0 92.5 32.5t28.5 98.5v100q0 66 -28.5 98.5t-92.5 32.5t-92.5 -32.5t-28.5 -98.5v-100q0 -66 28.5 -98.5t92.5 -32.5zM264 556
q-7 0 -11 6l-83 122q-3 4 -1.5 7.5t6.5 3.5h70q9 0 12 -7l66 -122q5 -10 -5 -10h-54z" />
    <glyph glyph-name="oacute" unicode="&#xf3;" horiz-adv-x="536" 
d="M268 -12q-101 0 -153.5 49t-52.5 149v116q0 100 52 149t154 49q101 0 153.5 -49t52.5 -149v-116q0 -100 -52 -149t-154 -49zM268 63q64 0 92.5 32.5t28.5 98.5v100q0 66 -28.5 98.5t-92.5 32.5t-92.5 -32.5t-28.5 -98.5v-100q0 -66 28.5 -98.5t92.5 -32.5zM217 556
q-10 0 -5 10l66 122q4 7 12 7h70q5 0 6.5 -3.5t-1.5 -7.5l-83 -122q-4 -6 -11 -6h-54z" />
    <glyph glyph-name="ocircumflex" unicode="&#xf4;" horiz-adv-x="536" 
d="M268 -12q-101 0 -153.5 49t-52.5 149v116q0 100 52 149t154 49q101 0 153.5 -49t52.5 -149v-116q0 -100 -52 -149t-154 -49zM268 63q64 0 92.5 32.5t28.5 98.5v100q0 66 -28.5 98.5t-92.5 32.5t-92.5 -32.5t-28.5 -98.5v-100q0 -66 28.5 -98.5t92.5 -32.5zM149 552
q-11 -6 -11 4v51q0 9 7 13l116 66q7 5 14 0l116 -66q7 -4 7 -13v-51q0 -10 -11 -4l-119 59z" />
    <glyph glyph-name="otilde" unicode="&#xf5;" horiz-adv-x="536" 
d="M268 -12q-101 0 -153.5 49t-52.5 149v116q0 100 52 149t154 49q101 0 153.5 -49t52.5 -149v-116q0 -100 -52 -149t-154 -49zM268 63q64 0 92.5 32.5t28.5 98.5v100q0 66 -28.5 98.5t-92.5 32.5t-92.5 -32.5t-28.5 -98.5v-100q0 -66 28.5 -98.5t92.5 -32.5zM318 567
q-20 0 -36 6.5t-31.5 12.5t-34.5 6q-17 0 -36 -7t-30 -12q-12 -5 -12 6v47q0 9 6 13q9 7 28.5 16t45.5 9q25 0 41.5 -6t30 -12.5t30.5 -6.5t36 7t30 12q12 5 12 -6v-47q0 -8 -6 -13q-9 -7 -28.5 -16t-45.5 -9z" />
    <glyph glyph-name="odieresis" unicode="&#xf6;" horiz-adv-x="536" 
d="M268 -12q-101 0 -153.5 49t-52.5 149v116q0 100 52 149t154 49q101 0 153.5 -49t52.5 -149v-116q0 -100 -52 -149t-154 -49zM268 63q64 0 92.5 32.5t28.5 98.5v100q0 66 -28.5 98.5t-92.5 32.5t-92.5 -32.5t-28.5 -98.5v-100q0 -66 28.5 -98.5t92.5 -32.5zM183 570
q-28 0 -40 14.5t-12 36.5v10q0 23 12 37t40 14t40 -14t12 -37v-10q0 -22 -12 -36.5t-40 -14.5zM352 570q-28 0 -40 14.5t-12 36.5v10q0 23 12 37t40 14t40 -14t12 -37v-10q0 -22 -12 -36.5t-40 -14.5z" />
    <glyph glyph-name="divide" unicode="&#xf7;" horiz-adv-x="600" 
d="M102 265q-10 0 -10 10v51q0 10 10 10h396q10 0 10 -10v-51q0 -10 -10 -10h-396zM300 111q-25 0 -38 12t-13 31v17q0 20 13 32t38 12q26 0 38.5 -12t12.5 -32v-17q0 -19 -12.5 -31t-38.5 -12zM300 385q-25 0 -38 12t-13 31v17q0 20 13 32t38 12q26 0 38.5 -12t12.5 -32
v-17q0 -19 -12.5 -31t-38.5 -12z" />
    <glyph glyph-name="oslash" unicode="&#xf8;" horiz-adv-x="536" 
d="M13 -51q-6 0 -8 4t2 8l97 127l16 20l239 312l29 37l57 75q5 6 13 6h65q6 0 8 -3.5t-2 -8.5l-91 -118l-33 -44l-225 -293l-29 -37l-60 -79q-4 -6 -13 -6h-65zM268 -12q-101 0 -153.5 49t-52.5 149v116q0 100 52 149t154 49q101 0 153.5 -49t52.5 -149v-116
q0 -100 -52 -149t-154 -49zM268 63q64 0 92.5 32.5t28.5 98.5v100q0 66 -28.5 98.5t-92.5 32.5t-92.5 -32.5t-28.5 -98.5v-100q0 -66 28.5 -98.5t92.5 -32.5z" />
    <glyph glyph-name="ugrave" unicode="&#xf9;" horiz-adv-x="542" 
d="M207 -12q-64 0 -98 43t-34 124v323q0 10 10 10h65q10 0 10 -10v-319q0 -49 17.5 -72.5t54.5 -23.5t74.5 23t93.5 80l-2 -79q-32 -33 -64 -55t-63.5 -33t-63.5 -11zM407 0q-11 0 -12 10q-3 19 -5 39t-3 41l-5 42v346q0 10 10 10h65q10 0 10 -10v-356q0 -27 1.5 -56
t5.5 -56q2 -10 -11 -10h-56zM267 556q-7 0 -11 6l-83 122q-3 4 -1.5 7.5t6.5 3.5h70q9 0 12 -7l66 -122q5 -10 -5 -10h-54z" />
    <glyph glyph-name="uacute" unicode="&#xfa;" horiz-adv-x="542" 
d="M207 -12q-64 0 -98 43t-34 124v323q0 10 10 10h65q10 0 10 -10v-319q0 -49 17.5 -72.5t54.5 -23.5t74.5 23t93.5 80l-2 -79q-32 -33 -64 -55t-63.5 -33t-63.5 -11zM407 0q-11 0 -12 10q-3 19 -5 39t-3 41l-5 42v346q0 10 10 10h65q10 0 10 -10v-356q0 -27 1.5 -56
t5.5 -56q2 -10 -11 -10h-56zM220 556q-10 0 -5 10l66 122q4 7 12 7h70q5 0 6.5 -3.5t-1.5 -7.5l-83 -122q-4 -6 -11 -6h-54z" />
    <glyph glyph-name="ucircumflex" unicode="&#xfb;" horiz-adv-x="542" 
d="M207 -12q-64 0 -98 43t-34 124v323q0 10 10 10h65q10 0 10 -10v-319q0 -49 17.5 -72.5t54.5 -23.5t74.5 23t93.5 80l-2 -79q-32 -33 -64 -55t-63.5 -33t-63.5 -11zM407 0q-11 0 -12 10q-3 19 -5 39t-3 41l-5 42v346q0 10 10 10h65q10 0 10 -10v-356q0 -27 1.5 -56
t5.5 -56q2 -10 -11 -10h-56zM152 552q-11 -6 -11 4v51q0 9 7 13l116 66q7 5 14 0l116 -66q7 -4 7 -13v-51q0 -10 -11 -4l-119 59z" />
    <glyph glyph-name="udieresis" unicode="&#xfc;" horiz-adv-x="542" 
d="M207 -12q-64 0 -98 43t-34 124v323q0 10 10 10h65q10 0 10 -10v-319q0 -49 17.5 -72.5t54.5 -23.5t74.5 23t93.5 80l-2 -79q-32 -33 -64 -55t-63.5 -33t-63.5 -11zM407 0q-11 0 -12 10q-3 19 -5 39t-3 41l-5 42v346q0 10 10 10h65q10 0 10 -10v-356q0 -27 1.5 -56
t5.5 -56q2 -10 -11 -10h-56zM186 570q-28 0 -40 14.5t-12 36.5v10q0 23 12 37t40 14t40 -14t12 -37v-10q0 -22 -12 -36.5t-40 -14.5zM355 570q-28 0 -40 14.5t-12 36.5v10q0 23 12 37t40 14t40 -14t12 -37v-10q0 -22 -12 -36.5t-40 -14.5z" />
    <glyph glyph-name="yacute" unicode="&#xfd;" horiz-adv-x="497" 
d="M145 -185q-12 0 -7 12l71 179l-185 470q-5 12 7 12h71q8 0 11 -8l90 -242q12 -31 23.5 -64t22.5 -65h1q11 32 23.5 65t23.5 64l90 242q3 8 12 8h67q13 0 8 -12l-253 -653q-3 -8 -11 -8h-65zM195 556q-10 0 -5 10l66 122q4 7 12 7h70q5 0 6.5 -3.5t-1.5 -7.5l-83 -122
q-4 -6 -11 -6h-54z" />
    <glyph glyph-name="thorn" unicode="&#xfe;" horiz-adv-x="537" 
d="M85 -185q-10 0 -10 10v848q0 10 10 10h65q10 0 10 -10v-244q44 38 82 54.5t81 16.5q74 0 112 -46t38 -140v-125q0 -97 -46 -149t-133 -52q-34 0 -71 8.5t-63 21.5v-193q0 -10 -10 -10h-65zM276 63q58 0 85 34t27 102v110q0 60 -21 88t-62 28q-32 0 -64 -17t-81 -59v-259
q27 -13 58 -20t58 -7z" />
    <glyph glyph-name="ydieresis" unicode="&#xff;" horiz-adv-x="497" 
d="M145 -185q-12 0 -7 12l71 179l-185 470q-5 12 7 12h71q8 0 11 -8l90 -242q12 -31 23.5 -64t22.5 -65h1q11 32 23.5 65t23.5 64l90 242q3 8 12 8h67q13 0 8 -12l-253 -653q-3 -8 -11 -8h-65zM161 570q-28 0 -40 14.5t-12 36.5v10q0 23 12 37t40 14t40 -14t12 -37v-10
q0 -22 -12 -36.5t-40 -14.5zM330 570q-28 0 -40 14.5t-12 36.5v10q0 23 12 37t40 14t40 -14t12 -37v-10q0 -22 -12 -36.5t-40 -14.5z" />
    <glyph glyph-name="Amacron" unicode="&#x100;" horiz-adv-x="560" 
d="M9 0q-11 0 -8 11l221 636q3 8 12 8h89q9 0 12 -8l224 -636q3 -11 -8 -11h-71q-9 0 -12 8l-150 450l-20 60t-21 60h-1q-10 -29 -20 -58.5t-20 -58.5l-148 -453q-3 -8 -12 -8h-67zM120 153l21 74h272l22 -74h-315zM171 717q-10 0 -10 10v52q0 10 10 10h215q10 0 10 -10v-52
q0 -10 -10 -10h-215z" />
    <glyph glyph-name="amacron" unicode="&#x101;" horiz-adv-x="494" 
d="M358 0q-6 0 -8 4t-4 10q-1 8 -4.5 34.5t-4.5 47.5l-3 38v199q0 50 -20 71t-70 21q-90 0 -90 -62q0 -10 -9 -10h-66q-10 0 -11 19q-5 57 44.5 92.5t134.5 35.5q87 0 129.5 -41t42.5 -124v-214q0 -35 2 -62.5t5 -47.5q2 -11 -10 -11h-58zM167 -12q-58 0 -88.5 35t-30.5 102
q0 52 20.5 85t66 51t121.5 24l94 8v-65l-96 -8q-69 -6 -95 -25t-26 -64q0 -34 14 -51t42 -17q33 0 69 22.5t95 83.5v-75q-35 -38 -65.5 -61.5t-59.5 -34t-61 -10.5zM145 570q-10 0 -10 10v52q0 10 10 10h195q10 0 10 -10v-52q0 -10 -10 -10h-195z" />
    <glyph glyph-name="Abreve" unicode="&#x102;" horiz-adv-x="560" 
d="M9 0q-11 0 -8 11l221 636q3 8 12 8h89q9 0 12 -8l224 -636q3 -11 -8 -11h-71q-9 0 -12 8l-150 450l-20 60t-21 60h-1q-10 -29 -20 -58.5t-20 -58.5l-148 -453q-3 -8 -12 -8h-67zM120 153l21 74h272l22 -74h-315zM279 716q-45 0 -81.5 15.5t-49.5 24.5q-6 5 -6 12v55
q0 6 3 8t8 -1q19 -10 53.5 -26.5t72.5 -16.5t72.5 16.5t53.5 26.5q5 3 8 1t3 -8v-55q0 -7 -6 -12q-13 -9 -49.5 -24.5t-81.5 -15.5z" />
    <glyph glyph-name="abreve" unicode="&#x103;" horiz-adv-x="494" 
d="M358 0q-6 0 -8 4t-4 10q-1 8 -4.5 34.5t-4.5 47.5l-3 38v199q0 50 -20 71t-70 21q-90 0 -90 -62q0 -10 -9 -10h-66q-10 0 -11 19q-5 57 44.5 92.5t134.5 35.5q87 0 129.5 -41t42.5 -124v-214q0 -35 2 -62.5t5 -47.5q2 -11 -10 -11h-58zM167 -12q-58 0 -88.5 35t-30.5 102
q0 52 20.5 85t66 51t121.5 24l94 8v-65l-96 -8q-69 -6 -95 -25t-26 -64q0 -34 14 -51t42 -17q33 0 69 22.5t95 83.5v-75q-35 -38 -65.5 -61.5t-59.5 -34t-61 -10.5zM243 556q-34 0 -58.5 9.5t-39.5 21t-22 18.5q-4 4 -4 12v54q0 6 3 8.5t8 -2.5q14 -13 43.5 -31.5
t69.5 -18.5q41 0 70.5 18.5t42.5 31.5q5 5 8 2.5t3 -8.5v-54q0 -4 -1 -7t-3 -5q-7 -7 -22 -18.5t-39 -21t-59 -9.5z" />
    <glyph glyph-name="Aogonek" unicode="&#x104;" horiz-adv-x="560" 
d="M9 0q-11 0 -8 11l221 636q3 8 12 8h89q9 0 12 -8l224 -636q3 -11 -8 -11h-71q-9 0 -12 8l-150 450l-20 60t-21 60h-1q-10 -29 -20 -58.5t-20 -58.5l-148 -453q-3 -8 -12 -8h-67zM120 153l21 74h272l22 -74h-315zM515 -197q-51 0 -75 22.5t-24 58.5v12q0 41 30 75.5
t80 51.5l20 -11v-11q-28 -14 -43 -38t-15 -50v-10q0 -37 41 -37h13.5t11.5 1q9 1 9 -7v-44q0 -4 -1.5 -6.5t-6.5 -3.5q-10 -1 -20.5 -2t-19.5 -1z" />
    <glyph glyph-name="aogonek" unicode="&#x105;" horiz-adv-x="494" 
d="M358 0q-6 0 -8 4t-4 10q-1 8 -4.5 34.5t-4.5 47.5l-3 38v199q0 50 -20 71t-70 21q-90 0 -90 -62q0 -10 -9 -10h-66q-10 0 -11 19q-5 57 44.5 92.5t134.5 35.5q87 0 129.5 -41t42.5 -124v-214q0 -35 2 -62.5t5 -47.5q2 -11 -10 -11h-58zM167 -12q-58 0 -88.5 35t-30.5 102
q0 52 20.5 85t66 51t121.5 24l94 8v-65l-96 -8q-69 -6 -95 -25t-26 -64q0 -34 14 -51t42 -17q33 0 69 22.5t95 83.5v-75q-35 -38 -65.5 -61.5t-59.5 -34t-61 -10.5zM391 -197q-51 0 -75 22.5t-24 58.5v12q0 41 30 75.5t80 51.5l20 -11v-11q-28 -14 -43 -38t-15 -50v-10
q0 -37 41 -37h13.5t11.5 1q9 1 9 -7v-44q0 -4 -1.5 -6.5t-6.5 -3.5q-10 -1 -20.5 -2t-19.5 -1z" />
    <glyph glyph-name="Cacute" unicode="&#x106;" horiz-adv-x="633" 
d="M320 -12q-122 0 -184.5 61t-62.5 174v209q0 113 63.5 174t184.5 61q77 0 135.5 -26.5t88 -76t19.5 -118.5q-1 -5 -3 -9.5t-8 -4.5h-65q-11 0 -9 10q3 72 -37.5 111t-119.5 39t-121.5 -41t-42.5 -118v-211q0 -77 42.5 -118t121.5 -41t122 39.5t35 110.5q-2 10 9 10h64
q10 0 12 -14q6 -67 -23.5 -116.5t-86.5 -77t-134 -27.5zM270 710q-5 0 -6 3t1 7l56 102q4 7 10 7h73q5 0 6.5 -3.5t-1.5 -8.5l-72 -101q-4 -6 -11 -6h-56z" />
    <glyph glyph-name="cacute" unicode="&#x107;" horiz-adv-x="517" 
d="M266 -12q-100 0 -152 50t-52 144v124q0 94 53 144t153 50q59 0 101 -18t65 -49.5t23 -74.5q0 -23 -10 -23h-66q-9 0 -9 16q0 35 -28 54.5t-76 19.5q-61 0 -91 -31t-30 -96v-108q0 -64 30 -95.5t90 -31.5q48 0 76 21t28 52q0 16 9 16h66q10 0 10 -9q0 -71 -49 -113
t-141 -42zM208 556q-10 0 -5 10l66 122q4 7 12 7h70q5 0 6.5 -3.5t-1.5 -7.5l-83 -122q-4 -6 -11 -6h-54z" />
    <glyph glyph-name="Cdotaccent" unicode="&#x10a;" horiz-adv-x="633" 
d="M320 -12q-122 0 -184.5 61t-62.5 174v209q0 113 63.5 174t184.5 61q77 0 135.5 -26.5t88 -76t19.5 -118.5q-1 -5 -3 -9.5t-8 -4.5h-65q-11 0 -9 10q3 72 -37.5 111t-119.5 39t-121.5 -41t-42.5 -118v-211q0 -77 42.5 -118t121.5 -41t122 39.5t35 110.5q-2 10 9 10h64
q10 0 12 -14q6 -67 -23.5 -116.5t-86.5 -77t-134 -27.5zM317 725q-29 0 -42 15.5t-13 39.5v10q0 24 13 39.5t42 15.5t42 -15.5t13 -39.5v-10q0 -24 -13 -39.5t-42 -15.5z" />
    <glyph glyph-name="cdotaccent" unicode="&#x10b;" horiz-adv-x="517" 
d="M266 -12q-100 0 -152 50t-52 144v124q0 94 53 144t153 50q59 0 101 -18t65 -49.5t23 -74.5q0 -23 -10 -23h-66q-9 0 -9 16q0 35 -28 54.5t-76 19.5q-61 0 -91 -31t-30 -96v-108q0 -64 30 -95.5t90 -31.5q48 0 76 21t28 52q0 16 9 16h66q10 0 10 -9q0 -71 -49 -113
t-141 -42zM259 570q-29 0 -42 15.5t-13 39.5v10q0 24 13 39.5t42 15.5t42 -15.5t13 -39.5v-10q0 -24 -13 -39.5t-42 -15.5z" />
    <glyph glyph-name="Ccaron" unicode="&#x10c;" horiz-adv-x="633" 
d="M320 -12q-122 0 -184.5 61t-62.5 174v209q0 113 63.5 174t184.5 61q77 0 135.5 -26.5t88 -76t19.5 -118.5q-1 -5 -3 -9.5t-8 -4.5h-65q-11 0 -9 10q3 72 -37.5 111t-119.5 39t-121.5 -41t-42.5 -118v-211q0 -77 42.5 -118t121.5 -41t122 39.5t35 110.5q-2 10 9 10h64
q10 0 12 -14q6 -67 -23.5 -116.5t-86.5 -77t-134 -27.5zM310 718l-126 56q-7 3 -7 10v50q0 11 11 6l129 -46l129 46q11 5 11 -6v-50q0 -7 -7 -10l-126 -56q-7 -3 -14 0z" />
    <glyph glyph-name="ccaron" unicode="&#x10d;" horiz-adv-x="517" 
d="M266 -12q-100 0 -152 50t-52 144v124q0 94 53 144t153 50q59 0 101 -18t65 -49.5t23 -74.5q0 -23 -10 -23h-66q-9 0 -9 16q0 35 -28 54.5t-76 19.5q-61 0 -91 -31t-30 -96v-108q0 -64 30 -95.5t90 -31.5q48 0 76 21t28 52q0 16 9 16h66q10 0 10 -9q0 -71 -49 -113
t-141 -42zM252 552l-116 66q-7 4 -7 13v51q0 10 11 4l119 -59l119 59q11 6 11 -4v-51q0 -9 -7 -13l-116 -66q-7 -5 -14 0z" />
    <glyph glyph-name="Dcaron" unicode="&#x10e;" horiz-adv-x="641" 
d="M95 0q-10 0 -10 10v635q0 10 10 10h175q154 0 230 -71.5t76 -216.5v-50q0 -160 -75.5 -238.5t-230.5 -78.5h-175zM170 72h94q117 0 172 58t55 181v62q0 108 -55 159t-172 51h-94v-511zM286 718l-126 56q-7 3 -7 10v50q0 11 11 6l129 -46l129 46q11 5 11 -6v-50
q0 -7 -7 -10l-126 -56q-7 -3 -14 0z" />
    <glyph glyph-name="dcaron" unicode="&#x10f;" horiz-adv-x="543" 
d="M209 -12q-70 0 -107.5 47t-37.5 139v125q0 95 48 148t133 53q39 0 82 -10.5t65 -26.5l5 -73q-32 17 -70 26t-67 9q-56 0 -83.5 -34t-27.5 -102v-120q0 -53 20.5 -79.5t61.5 -26.5q25 0 49 9.5t53 32t68 61.5l-2 -78q-34 -34 -64.5 -56.5t-61 -33t-64.5 -10.5zM406 0
q-11 0 -12 11q-2 15 -5 38t-2 38l-5 45v541q0 10 10 10h65q10 0 10 -10v-560q0 -14 1 -33.5t2.5 -37.5t3.5 -28q3 -14 -10 -14h-58zM536 528q-11 0 -9 11l14 57q-16 5 -22.5 13.5t-6.5 24.5v25q0 16 12 26t32 10q26 0 37.5 -10t11.5 -26v-26q0 -13 -1.5 -24t-6.5 -23
l-18 -50q-3 -8 -12 -8h-31z" />
    <glyph glyph-name="Dcroat" unicode="&#x110;" horiz-adv-x="641" 
d="M15 298q-10 0 -10 10v50q0 10 10 10h70h232q10 0 10 -10v-50q0 -10 -10 -10h-302zM95 0q-10 0 -10 10v635q0 10 10 10h175q154 0 230 -71.5t76 -216.5v-50q0 -160 -75.5 -238.5t-230.5 -78.5h-175zM170 72h94q117 0 172 58t55 181v62q0 108 -55 159t-172 51h-94v-511z
" />
    <glyph glyph-name="dcroat" unicode="&#x111;" horiz-adv-x="542" 
d="M277 553q-10 0 -10 10v50q0 10 10 10h261q10 0 10 -10v-50q0 -10 -10 -10h-71h-190zM209 -12q-70 0 -107.5 47t-37.5 139v125q0 95 48 148t133 53q39 0 82 -10.5t65 -26.5l5 -73q-32 17 -70 26t-67 9q-56 0 -83.5 -34t-27.5 -102v-120q0 -53 20.5 -79.5t61.5 -26.5
q25 0 49 9.5t53 32t68 61.5l-2 -78q-34 -34 -64.5 -56.5t-61 -33t-64.5 -10.5zM406 0q-11 0 -12 11q-2 15 -5 38t-2 38l-5 45v541q0 10 10 10h65q10 0 10 -10v-560q0 -14 1 -33.5t2.5 -37.5t3.5 -28q3 -14 -10 -14h-58z" />
    <glyph glyph-name="Emacron" unicode="&#x112;" horiz-adv-x="533" 
d="M95 0q-10 0 -10 10v635q0 10 10 10h356q10 0 10 -10v-57q0 -10 -10 -10h-281v-208h257q10 0 10 -10v-54q0 -10 -10 -10h-257v-219h281q10 0 10 -10v-57q0 -10 -10 -10h-356zM172 717q-10 0 -10 10v52q0 10 10 10h215q10 0 10 -10v-52q0 -10 -10 -10h-215z" />
    <glyph glyph-name="emacron" unicode="&#x113;" horiz-adv-x="519" 
d="M261 -12q-96 0 -147.5 45t-51.5 133v140q0 95 51 144.5t148 49.5t147.5 -48.5t50.5 -140.5v-78q0 -10 -10 -10h-302v-32q0 -67 28 -97.5t91 -30.5q47 0 72.5 15.5t25.5 45.5q0 11 11 11h65q8 0 10 -9q4 -64 -47 -101t-142 -37zM147 296h227v6q0 63 -28 93t-84 30
q-58 0 -86.5 -31t-28.5 -93v-5zM160 582q-10 0 -10 10v52q0 10 10 10h195q10 0 10 -10v-52q0 -10 -10 -10h-195z" />
    <glyph glyph-name="Edotaccent" unicode="&#x116;" horiz-adv-x="533" 
d="M95 0q-10 0 -10 10v635q0 10 10 10h356q10 0 10 -10v-57q0 -10 -10 -10h-281v-208h257q10 0 10 -10v-54q0 -10 -10 -10h-257v-219h281q10 0 10 -10v-57q0 -10 -10 -10h-356zM280 725q-29 0 -42 15.5t-13 39.5v10q0 24 13 39.5t42 15.5t42 -15.5t13 -39.5v-10
q0 -24 -13 -39.5t-42 -15.5z" />
    <glyph glyph-name="edotaccent" unicode="&#x117;" horiz-adv-x="519" 
d="M261 -12q-96 0 -147.5 45t-51.5 133v140q0 95 51 144.5t148 49.5t147.5 -48.5t50.5 -140.5v-78q0 -10 -10 -10h-302v-32q0 -67 28 -97.5t91 -30.5q47 0 72.5 15.5t25.5 45.5q0 11 11 11h65q8 0 10 -9q4 -64 -47 -101t-142 -37zM147 296h227v6q0 63 -28 93t-84 30
q-58 0 -86.5 -31t-28.5 -93v-5zM258 582q-29 0 -42 15.5t-13 39.5v10q0 24 13 39.5t42 15.5t42 -15.5t13 -39.5v-10q0 -24 -13 -39.5t-42 -15.5z" />
    <glyph glyph-name="Eogonek" unicode="&#x118;" horiz-adv-x="533" 
d="M95 0q-10 0 -10 10v635q0 10 10 10h356q10 0 10 -10v-57q0 -10 -10 -10h-281v-208h257q10 0 10 -10v-54q0 -10 -10 -10h-257v-219h281q10 0 10 -10v-57q0 -10 -10 -10h-356zM401 -197q-51 0 -75 22.5t-24 58.5v12q0 41 30 75.5t80 51.5l20 -11v-11q-28 -14 -43 -38
t-15 -50v-10q0 -37 41 -37h13.5t11.5 1q9 1 9 -7v-44q0 -4 -1.5 -6.5t-6.5 -3.5q-10 -1 -20.5 -2t-19.5 -1z" />
    <glyph glyph-name="eogonek" unicode="&#x119;" horiz-adv-x="519" 
d="M261 -12q-96 0 -147.5 45t-51.5 133v140q0 95 51 144.5t148 49.5t147.5 -48.5t50.5 -140.5v-78q0 -10 -10 -10h-302v-32q0 -67 28 -97.5t91 -30.5q47 0 72.5 15.5t25.5 45.5q0 11 11 11h65q8 0 10 -9q4 -64 -47 -101t-142 -37zM147 296h227v6q0 63 -28 93t-84 30
q-58 0 -86.5 -31t-28.5 -93v-5zM326 -196q-51 0 -75 22.5t-24 58.5v12q0 41 30 75.5t80 51.5l20 -11v-11q-28 -14 -43 -38t-15 -50v-10q0 -37 41 -37h13.5t11.5 1q9 1 9 -7v-44q0 -4 -1.5 -6.5t-6.5 -3.5q-10 -1 -20.5 -2t-19.5 -1z" />
    <glyph glyph-name="Ecaron" unicode="&#x11a;" horiz-adv-x="533" 
d="M95 0q-10 0 -10 10v635q0 10 10 10h356q10 0 10 -10v-57q0 -10 -10 -10h-281v-208h257q10 0 10 -10v-54q0 -10 -10 -10h-257v-219h281q10 0 10 -10v-57q0 -10 -10 -10h-356zM273 718l-126 56q-7 3 -7 10v50q0 11 11 6l129 -46l129 46q11 5 11 -6v-50q0 -7 -7 -10
l-126 -56q-7 -3 -14 0z" />
    <glyph glyph-name="ecaron" unicode="&#x11b;" horiz-adv-x="519" 
d="M261 -12q-96 0 -147.5 45t-51.5 133v140q0 95 51 144.5t148 49.5t147.5 -48.5t50.5 -140.5v-78q0 -10 -10 -10h-302v-32q0 -67 28 -97.5t91 -30.5q47 0 72.5 15.5t25.5 45.5q0 11 11 11h65q8 0 10 -9q4 -64 -47 -101t-142 -37zM147 296h227v6q0 63 -28 93t-84 30
q-58 0 -86.5 -31t-28.5 -93v-5zM251 564l-116 66q-7 4 -7 13v51q0 10 11 4l119 -59l119 59q11 6 11 -4v-51q0 -9 -7 -13l-116 -66q-7 -5 -14 0z" />
    <glyph glyph-name="Gbreve" unicode="&#x11e;" horiz-adv-x="653" 
d="M306 -12q-73 0 -125 28t-80 80.5t-28 126.5v209q0 110 67 172.5t184 62.5q79 0 136.5 -26.5t86 -74.5t18.5 -114q-1 -10 -11 -10h-65q-11 0 -9 10q3 46 -14 77t-52 47t-88 16q-83 0 -125.5 -40t-42.5 -119v-211q0 -80 40 -119.5t121 -39.5q83 0 126.5 41t43.5 118v38
h-156q-10 0 -10 10v54q0 10 10 10h225q10 0 10 -10v-197q0 -31 1.5 -59.5t5.5 -56.5q1 -5 -1.5 -8t-7.5 -3h-53q-4 0 -7 2t-4 6q-2 13 -4 29t-3 34h-1q-19 -28 -47.5 -46.5t-64 -27.5t-76.5 -9zM310 716q-45 0 -81.5 15.5t-49.5 24.5q-6 5 -6 12v55q0 6 3 8t8 -1
q19 -10 53.5 -26.5t72.5 -16.5t72.5 16.5t53.5 26.5q5 3 8 1t3 -8v-55q0 -7 -6 -12q-13 -9 -49.5 -24.5t-81.5 -15.5z" />
    <glyph glyph-name="gbreve" unicode="&#x11f;" horiz-adv-x="517" 
d="M255 -197q-117 0 -168.5 31.5t-51.5 95.5q0 41 19.5 71.5t59.5 49.5l67 -27q-30 -9 -44 -29.5t-14 -48.5q0 -40 30 -55.5t106 -15.5q79 0 109.5 16t30.5 59q0 29 -14 43t-46 15l-185 10q-31 2 -56.5 23.5t-25.5 67.5q0 32 15 53.5t51 48.5l54 -32q-22 -9 -32 -22t-10 -30
q0 -18 12 -25.5t37 -9.5l166 -10q59 -4 88.5 -37.5t29.5 -98.5q0 -76 -54.5 -109.5t-173.5 -33.5zM263 158q-94 0 -139 42t-45 129t45.5 129t141.5 42q92 0 136.5 -42.5t44.5 -129.5t-44.5 -128.5t-139.5 -41.5zM263 232q56 0 77.5 21.5t21.5 74.5q0 54 -22 76t-77 22
t-77 -22t-22 -76q0 -53 22 -74.5t77 -21.5zM267 556q-34 0 -58.5 9.5t-39.5 21t-22 18.5q-4 4 -4 12v54q0 6 3 8.5t8 -2.5q14 -13 43.5 -31.5t69.5 -18.5q41 0 70.5 18.5t42.5 31.5q5 5 8 2.5t3 -8.5v-54q0 -4 -1 -7t-3 -5q-7 -7 -22 -18.5t-39 -21t-59 -9.5z" />
    <glyph glyph-name="Gdotaccent" unicode="&#x120;" horiz-adv-x="653" 
d="M306 -12q-73 0 -125 28t-80 80.5t-28 126.5v209q0 110 67 172.5t184 62.5q79 0 136.5 -26.5t86 -74.5t18.5 -114q-1 -10 -11 -10h-65q-11 0 -9 10q3 46 -14 77t-52 47t-88 16q-83 0 -125.5 -40t-42.5 -119v-211q0 -80 40 -119.5t121 -39.5q83 0 126.5 41t43.5 118v38
h-156q-10 0 -10 10v54q0 10 10 10h225q10 0 10 -10v-197q0 -31 1.5 -59.5t5.5 -56.5q1 -5 -1.5 -8t-7.5 -3h-53q-4 0 -7 2t-4 6q-2 13 -4 29t-3 34h-1q-19 -28 -47.5 -46.5t-64 -27.5t-76.5 -9zM310 725q-29 0 -42 15.5t-13 39.5v10q0 24 13 39.5t42 15.5t42 -15.5t13 -39.5
v-10q0 -24 -13 -39.5t-42 -15.5z" />
    <glyph glyph-name="gdotaccent" unicode="&#x121;" horiz-adv-x="517" 
d="M255 -197q-117 0 -168.5 31.5t-51.5 95.5q0 41 19.5 71.5t59.5 49.5l67 -27q-30 -9 -44 -29.5t-14 -48.5q0 -40 30 -55.5t106 -15.5q79 0 109.5 16t30.5 59q0 29 -14 43t-46 15l-185 10q-31 2 -56.5 23.5t-25.5 67.5q0 32 15 53.5t51 48.5l54 -32q-22 -9 -32 -22t-10 -30
q0 -18 12 -25.5t37 -9.5l166 -10q59 -4 88.5 -37.5t29.5 -98.5q0 -76 -54.5 -109.5t-173.5 -33.5zM263 158q-94 0 -139 42t-45 129t45.5 129t141.5 42q92 0 136.5 -42.5t44.5 -129.5t-44.5 -128.5t-139.5 -41.5zM263 232q56 0 77.5 21.5t21.5 74.5q0 54 -22 76t-77 22
t-77 -22t-22 -76q0 -53 22 -74.5t77 -21.5zM267 570q-29 0 -42 15.5t-13 39.5v10q0 24 13 39.5t42 15.5t42 -15.5t13 -39.5v-10q0 -24 -13 -39.5t-42 -15.5z" />
    <glyph glyph-name="uni0122" unicode="&#x122;" horiz-adv-x="653" 
d="M306 -12q-73 0 -125 28t-80 80.5t-28 126.5v209q0 110 67 172.5t184 62.5q79 0 136.5 -26.5t86 -74.5t18.5 -114q-1 -10 -11 -10h-65q-11 0 -9 10q3 46 -14 77t-52 47t-88 16q-83 0 -125.5 -40t-42.5 -119v-211q0 -80 40 -119.5t121 -39.5q83 0 126.5 41t43.5 118v38
h-156q-10 0 -10 10v54q0 10 10 10h225q10 0 10 -10v-197q0 -31 1.5 -59.5t5.5 -56.5q1 -5 -1.5 -8t-7.5 -3h-53q-4 0 -7 2t-4 6q-2 13 -4 29t-3 34h-1q-19 -28 -47.5 -46.5t-64 -27.5t-76.5 -9zM292 -231q-7 0 -6 9l16 67q-16 5 -22.5 15t-6.5 26v17q0 19 12 30t32 11
q26 0 37.5 -11t11.5 -30v-18q0 -13 -2 -25.5t-6 -24.5l-20 -60q-2 -6 -10 -6h-36z" />
    <glyph glyph-name="uni0123" unicode="&#x123;" horiz-adv-x="517" 
d="M255 -197q-117 0 -168.5 31.5t-51.5 95.5q0 41 19.5 71.5t59.5 49.5l67 -27q-30 -9 -44 -29.5t-14 -48.5q0 -40 30 -55.5t106 -15.5q79 0 109.5 16t30.5 59q0 29 -14 43t-46 15l-185 10q-31 2 -56.5 23.5t-25.5 67.5q0 32 15 53.5t51 48.5l54 -32q-22 -9 -32 -22t-10 -30
q0 -18 12 -25.5t37 -9.5l166 -10q59 -4 88.5 -37.5t29.5 -98.5q0 -76 -54.5 -109.5t-173.5 -33.5zM263 158q-94 0 -139 42t-45 129t45.5 129t141.5 42q92 0 136.5 -42.5t44.5 -129.5t-44.5 -128.5t-139.5 -41.5zM263 232q56 0 77.5 21.5t21.5 74.5q0 54 -22 76t-77 22
t-77 -22t-22 -76q0 -53 22 -74.5t77 -21.5zM269 563q-26 0 -37.5 11t-11.5 30v18q0 14 2 26t6 24l20 60q2 6 10 6h36q8 0 6 -9l-16 -67q16 -5 22.5 -15t6.5 -26v-17q0 -19 -12 -30t-32 -11z" />
    <glyph glyph-name="Hbar" unicode="&#x126;" horiz-adv-x="661" 
d="M39 516q-10 0 -10 10v51q0 10 10 10h583q10 0 10 -10v-51q0 -10 -10 -10h-46h-491h-46zM95 0q-10 0 -10 10v635q0 10 10 10h65q10 0 10 -10v-270h321v270q0 10 10 10h65q10 0 10 -10v-635q0 -10 -10 -10h-65q-10 0 -10 10v291h-321v-291q0 -10 -10 -10h-65z" />
    <glyph glyph-name="hbar" unicode="&#x127;" horiz-adv-x="556" 
d="M4 553q-10 0 -10 10v50q0 10 10 10h261q10 0 10 -10v-50q0 -10 -10 -10h-190h-71zM406 0q-10 0 -10 10v319q0 49 -20 72.5t-61 23.5q-40 0 -81 -24.5t-89 -76.5l1 78q33 35 63 56.5t60.5 31.5t64.5 10q72 0 109.5 -42t37.5 -125v-323q0 -10 -10 -10h-65zM85 0
q-10 0 -10 10v663q0 10 10 10h65q10 0 10 -10v-663q0 -10 -10 -10h-65z" />
    <glyph glyph-name="Imacron" unicode="&#x12a;" horiz-adv-x="255" 
d="M95 0q-10 0 -10 10v635q0 10 10 10h65q10 0 10 -10v-635q0 -10 -10 -10h-65zM20 717q-10 0 -10 10v52q0 10 10 10h215q10 0 10 -10v-52q0 -10 -10 -10h-215z" />
    <glyph glyph-name="imacron" unicode="&#x12b;" horiz-adv-x="235" 
d="M85 0q-10 0 -10 10v468q0 10 10 10h65q10 0 10 -10v-468q0 -10 -10 -10h-65zM20 570q-10 0 -10 10v52q0 10 10 10h195q10 0 10 -10v-52q0 -10 -10 -10h-195z" />
    <glyph glyph-name="Iogonek" unicode="&#x12e;" horiz-adv-x="255" 
d="M95 0q-10 0 -10 10v635q0 10 10 10h65q10 0 10 -10v-635q0 -10 -10 -10h-65zM133 -197q-51 0 -75 22.5t-24 58.5v12q0 41 30 75.5t80 51.5l20 -11v-11q-28 -14 -43 -38t-15 -50v-10q0 -37 41 -37h13.5t11.5 1q9 1 9 -7v-44q0 -4 -1.5 -6.5t-6.5 -3.5q-10 -1 -20.5 -2
t-19.5 -1z" />
    <glyph glyph-name="iogonek" unicode="&#x12f;" horiz-adv-x="235" 
d="M85 0q-10 0 -10 10v468q0 10 10 10h65q10 0 10 -10v-468q0 -10 -10 -10h-65zM118 570q-29 0 -42 15.5t-13 39.5v10q0 24 13 39.5t42 15.5t42 -15.5t13 -39.5v-10q0 -24 -13 -39.5t-42 -15.5zM117 -197q-51 0 -75 22.5t-24 58.5v12q0 41 30 75.5t80 51.5l20 -11v-11
q-28 -14 -43 -38t-15 -50v-10q0 -37 41 -37h13.5t11.5 1q9 1 9 -7v-44q0 -4 -1.5 -6.5t-6.5 -3.5q-10 -1 -20.5 -2t-19.5 -1z" />
    <glyph glyph-name="Idotaccent" unicode="&#x130;" horiz-adv-x="255" 
d="M95 0q-10 0 -10 10v635q0 10 10 10h65q10 0 10 -10v-635q0 -10 -10 -10h-65zM128 725q-29 0 -42 15.5t-13 39.5v10q0 24 13 39.5t42 15.5t42 -15.5t13 -39.5v-10q0 -24 -13 -39.5t-42 -15.5z" />
    <glyph glyph-name="dotlessi" unicode="&#x131;" horiz-adv-x="235" 
d="M85 0q-10 0 -10 10v468q0 10 10 10h65q10 0 10 -10v-468q0 -10 -10 -10h-65z" />
    <glyph glyph-name="IJ" unicode="&#x132;" horiz-adv-x="520" 
d="M95 0q-10 0 -10 10v635q0 10 10 10h65q10 0 10 -10v-635q0 -10 -10 -10h-65zM292 -139q-22 -5 -25 4l-17 59q-3 11 18 16q41 10 61.5 46t20.5 96v563q0 10 10 10h65q10 0 10 -10v-559q0 -97 -36.5 -152.5t-106.5 -72.5z" />
    <glyph glyph-name="ij" unicode="&#x133;" horiz-adv-x="471" 
d="M85 0q-10 0 -10 10v468q0 10 10 10h65q10 0 10 -10v-468q0 -10 -10 -10h-65zM118 570q-29 0 -42 15.5t-13 39.5v10q0 24 13 39.5t42 15.5t42 -15.5t13 -39.5v-10q0 -24 -13 -39.5t-42 -15.5zM277 -190q-8 -5 -14 3l-39 49q-3 5 -2 8t5 6q26 18 44.5 44.5t28.5 62t10 81.5
v414q0 5 3 7.5t7 2.5h65q5 0 7.5 -2.5t2.5 -7.5v-419q0 -60 -12.5 -107t-38.5 -82t-67 -60zM353 570q-29 0 -42 15.5t-13 39.5v10q0 24 13 39.5t42 15.5t42 -15.5t13 -39.5v-10q0 -24 -13 -39.5t-42 -15.5z" />
    <glyph glyph-name="uni0136" unicode="&#x136;" horiz-adv-x="595" 
d="M95 0q-10 0 -10 10v635q0 10 10 10h65q10 0 10 -10v-193v-60.5t-1 -60.5h1q23 26 46 51t46 51l195 217q4 5 12 5h85q6 0 8.5 -3.5t-2.5 -8.5l-235 -254l253 -377q3 -5 1.5 -8.5t-7.5 -3.5h-83q-7 0 -12 7l-211 317l-96 -104v-210q0 -10 -10 -10h-65zM290 -231q-7 0 -6 9
l16 67q-16 5 -22.5 15t-6.5 26v17q0 19 12 30t32 11q26 0 37.5 -11t11.5 -30v-18q0 -13 -2 -25.5t-6 -24.5l-20 -60q-2 -6 -10 -6h-36z" />
    <glyph glyph-name="uni0137" unicode="&#x137;" horiz-adv-x="491" 
d="M85 0q-10 0 -10 10v663q0 10 10 10h65q10 0 10 -10v-259v-68.5t-1 -69.5h1q18 20 36.5 40t37.5 40l118 127q4 5 12 5h88q7 0 8.5 -3.5t-3.5 -8.5l-166 -170l181 -294q3 -5 1 -8.5t-8 -3.5h-77q-7 0 -12 7l-146 236l-70 -71v-162q0 -10 -10 -10h-65zM227 -231q-7 0 -6 9
l16 67q-16 5 -22.5 15t-6.5 26v17q0 19 12 30t32 11q26 0 37.5 -11t11.5 -30v-18q0 -13 -2 -25.5t-6 -24.5l-20 -60q-2 -6 -10 -6h-36z" />
    <glyph glyph-name="kgreenlandic" unicode="&#x138;" horiz-adv-x="491" 
d="M85 0q-10 0 -10 10v468q0 10 10 10h65q10 0 10 -10v-64v-68.5t-1 -69.5h1q18 20 36.5 40t37.5 40l118 127q4 5 12 5h88q7 0 8.5 -3.5t-3.5 -8.5l-166 -170l181 -294q3 -5 1 -8.5t-8 -3.5h-77q-7 0 -12 7l-146 236l-70 -71v-162q0 -10 -10 -10h-65z" />
    <glyph glyph-name="Lacute" unicode="&#x139;" horiz-adv-x="476" 
d="M95 0q-10 0 -10 10v635q0 10 10 10h65q10 0 10 -10v-568h276q10 0 10 -10v-57q0 -10 -10 -10h-351zM80 710q-5 0 -6 3t1 7l56 102q4 7 10 7h73q5 0 6.5 -3.5t-1.5 -8.5l-72 -101q-4 -6 -11 -6h-56z" />
    <glyph glyph-name="lacute" unicode="&#x13a;" horiz-adv-x="235" 
d="M85 0q-10 0 -10 10v663q0 10 10 10h65q10 0 10 -10v-663q0 -10 -10 -10h-65zM71 738q-5 0 -6 3t1 7l56 102q4 7 10 7h73q5 0 6.5 -3.5t-1.5 -8.5l-72 -101q-4 -6 -11 -6h-56z" />
    <glyph glyph-name="uni013B" unicode="&#x13b;" horiz-adv-x="476" 
d="M95 0q-10 0 -10 10v635q0 10 10 10h65q10 0 10 -10v-568h276q10 0 10 -10v-57q0 -10 -10 -10h-351zM250 -231q-7 0 -6 9l16 67q-16 5 -22.5 15t-6.5 26v17q0 19 12 30t32 11q26 0 37.5 -11t11.5 -30v-18q0 -13 -2 -25.5t-6 -24.5l-20 -60q-2 -6 -10 -6h-36z" />
    <glyph glyph-name="uni013C" unicode="&#x13c;" horiz-adv-x="235" 
d="M85 0q-10 0 -10 10v663q0 10 10 10h65q10 0 10 -10v-663q0 -10 -10 -10h-65zM90 -231q-7 0 -6 9l16 67q-16 5 -22.5 15t-6.5 26v17q0 19 12 30t32 11q26 0 37.5 -11t11.5 -30v-18q0 -13 -2 -25.5t-6 -24.5l-20 -60q-2 -6 -10 -6h-36z" />
    <glyph glyph-name="Lcaron" unicode="&#x13d;" horiz-adv-x="476" 
d="M95 0q-10 0 -10 10v635q0 10 10 10h65q10 0 10 -10v-568h276q10 0 10 -10v-57q0 -10 -10 -10h-351zM284 500q-11 0 -9 11l14 57q-16 5 -22.5 13.5t-6.5 24.5v25q0 16 12 26t32 10q26 0 37.5 -10t11.5 -26v-26q0 -13 -1.5 -24t-6.5 -23l-18 -50q-3 -8 -12 -8h-31z" />
    <glyph glyph-name="lcaron" unicode="&#x13e;" horiz-adv-x="236" 
d="M85 0q-10 0 -10 10v663q0 10 10 10h65q10 0 10 -10v-663q0 -10 -10 -10h-65zM229 528q-11 0 -9 11l14 57q-16 5 -22.5 13.5t-6.5 24.5v25q0 16 12 26t32 10q26 0 37.5 -10t11.5 -26v-26q0 -13 -1.5 -24t-6.5 -23l-18 -50q-3 -8 -12 -8h-31z" />
    <glyph glyph-name="Lslash" unicode="&#x141;" horiz-adv-x="476" 
d="M-1 264q-12 -5 -12 8v56q0 8 8 11l301 124q12 5 12 -8v-55q0 -8 -8 -11zM95 0q-10 0 -10 10v635q0 10 10 10h65q10 0 10 -10v-568h276q10 0 10 -10v-57q0 -10 -10 -10h-351z" />
    <glyph glyph-name="lslash" unicode="&#x142;" horiz-adv-x="235" 
d="M5 335q-5 -2 -8.5 0.5t-3.5 7.5v57q0 8 8 11l229 108q5 2 8.5 -0.5t3.5 -7.5v-57q0 -8 -8 -11l-159 -75zM85 0q-10 0 -10 10v663q0 10 10 10h65q10 0 10 -10v-663q0 -10 -10 -10h-65z" />
    <glyph glyph-name="Nacute" unicode="&#x143;" horiz-adv-x="662" 
d="M95 0q-10 0 -10 10v635q0 10 10 10h116q9 0 12 -7l188 -382q19 -37 33.5 -67t26 -56t21.5 -51h2v58.5t-0.5 61.5t-0.5 58v375q0 10 10 10h64q10 0 10 -10v-635q0 -10 -10 -10h-113q-9 0 -12 7l-185 372q-16 33 -31 63.5t-29 60.5t-27 60h-2q0 -34 0.5 -65t0.5 -61.5
v-65.5v-361q0 -10 -10 -10h-64zM284 710q-5 0 -6 3t1 7l56 102q4 7 10 7h73q5 0 6.5 -3.5t-1.5 -8.5l-72 -101q-4 -6 -11 -6h-56z" />
    <glyph glyph-name="nacute" unicode="&#x144;" horiz-adv-x="556" 
d="M406 0q-10 0 -10 10v319q0 50 -20.5 73t-61.5 23q-39 0 -77 -23t-95 -79l1 77q34 36 64.5 58t61 32t64.5 10q72 0 110 -42t38 -125v-323q0 -10 -10 -10h-65zM85 0q-10 0 -10 10v356q0 26 -2.5 58.5t-4.5 50.5q-2 13 10 13h61q9 0 11 -10q2 -8 4 -25t4 -35.5t2 -31.5v-26
v-350q0 -10 -10 -10h-65zM231 556q-10 0 -5 10l66 122q4 7 12 7h70q5 0 6.5 -3.5t-1.5 -7.5l-83 -122q-4 -6 -11 -6h-54z" />
    <glyph glyph-name="uni0145" unicode="&#x145;" horiz-adv-x="662" 
d="M95 0q-10 0 -10 10v635q0 10 10 10h116q9 0 12 -7l188 -382q19 -37 33.5 -67t26 -56t21.5 -51h2v58.5t-0.5 61.5t-0.5 58v375q0 10 10 10h64q10 0 10 -10v-635q0 -10 -10 -10h-113q-9 0 -12 7l-185 372q-16 33 -31 63.5t-29 60.5t-27 60h-2q0 -34 0.5 -65t0.5 -61.5
v-65.5v-361q0 -10 -10 -10h-64zM303 -231q-7 0 -6 9l16 67q-16 5 -22.5 15t-6.5 26v17q0 19 12 30t32 11q26 0 37.5 -11t11.5 -30v-18q0 -13 -2 -25.5t-6 -24.5l-20 -60q-2 -6 -10 -6h-36z" />
    <glyph glyph-name="uni0146" unicode="&#x146;" horiz-adv-x="556" 
d="M406 0q-10 0 -10 10v319q0 50 -20.5 73t-61.5 23q-39 0 -77 -23t-95 -79l1 77q34 36 64.5 58t61 32t64.5 10q72 0 110 -42t38 -125v-323q0 -10 -10 -10h-65zM85 0q-10 0 -10 10v356q0 26 -2.5 58.5t-4.5 50.5q-2 13 10 13h61q9 0 11 -10q2 -8 4 -25t4 -35.5t2 -31.5v-26
v-350q0 -10 -10 -10h-65zM258 -231q-7 0 -6 9l16 67q-16 5 -22.5 15t-6.5 26v17q0 19 12 30t32 11q26 0 37.5 -11t11.5 -30v-18q0 -13 -2 -25.5t-6 -24.5l-20 -60q-2 -6 -10 -6h-36z" />
    <glyph glyph-name="Ncaron" unicode="&#x147;" horiz-adv-x="662" 
d="M95 0q-10 0 -10 10v635q0 10 10 10h116q9 0 12 -7l188 -382q19 -37 33.5 -67t26 -56t21.5 -51h2v58.5t-0.5 61.5t-0.5 58v375q0 10 10 10h64q10 0 10 -10v-635q0 -10 -10 -10h-113q-9 0 -12 7l-185 372q-16 33 -31 63.5t-29 60.5t-27 60h-2q0 -34 0.5 -65t0.5 -61.5
v-65.5v-361q0 -10 -10 -10h-64zM324 718l-126 56q-7 3 -7 10v50q0 11 11 6l129 -46l129 46q11 5 11 -6v-50q0 -7 -7 -10l-126 -56q-7 -3 -14 0z" />
    <glyph glyph-name="ncaron" unicode="&#x148;" horiz-adv-x="556" 
d="M406 0q-10 0 -10 10v319q0 50 -20.5 73t-61.5 23q-39 0 -77 -23t-95 -79l1 77q34 36 64.5 58t61 32t64.5 10q72 0 110 -42t38 -125v-323q0 -10 -10 -10h-65zM85 0q-10 0 -10 10v356q0 26 -2.5 58.5t-4.5 50.5q-2 13 10 13h61q9 0 11 -10q2 -8 4 -25t4 -35.5t2 -31.5v-26
v-350q0 -10 -10 -10h-65zM275 552l-116 66q-7 4 -7 13v51q0 10 11 4l119 -59l119 59q11 6 11 -4v-51q0 -9 -7 -13l-116 -66q-7 -5 -14 0z" />
    <glyph glyph-name="Eng" unicode="&#x14a;" horiz-adv-x="662" 
d="M444 -187l-39 49q-4 5 -1.5 9t11.5 9q28 19 47 50.5t26 69.5h-34q-9 0 -12 7l-185 372q-16 33 -31 63.5t-29 60.5t-27 60h-2q0 -34 0.5 -65t0.5 -61.5v-65.5v-361q0 -10 -10 -10h-64q-10 0 -10 10v635q0 10 10 10h116q9 0 12 -7l188 -382q19 -37 33.5 -67t26 -56
t21.5 -51h2v58.5t-0.5 61.5t-0.5 58v375q0 10 10 10h64q10 0 10 -10v-585q0 -58 -12 -105t-35.5 -81t-58.5 -56q-12 -7 -17.5 -8t-9.5 3z" />
    <glyph glyph-name="eng" unicode="&#x14b;" horiz-adv-x="556" 
d="M363 -190q-8 -5 -14 3l-39 49q-3 5 -2 8t5 6q27 19 45.5 45t28 61.5t9.5 81.5v265q0 50 -20.5 73t-61.5 23q-36 0 -70.5 -19t-83.5 -66v-330q0 -10 -10 -10h-65q-10 0 -10 10v356q0 26 -2.5 58.5t-4.5 50.5q-2 13 10 13h61q9 0 11 -10q2 -9 4.5 -27t3.5 -36
q46 45 86.5 65t88.5 20q72 0 110 -42t38 -125v-274q0 -61 -13 -108.5t-39 -82.5t-66 -58z" />
    <glyph glyph-name="Omacron" unicode="&#x14c;" horiz-adv-x="642" 
d="M321 -12q-125 0 -186.5 61.5t-61.5 173.5v209q0 113 61.5 174t186.5 61t186.5 -61t61.5 -174v-209q0 -112 -61.5 -173.5t-186.5 -61.5zM321 63q80 0 121.5 41t41.5 120v207q0 80 -41.5 120.5t-121.5 40.5q-79 0 -121 -40.5t-42 -120.5v-207q0 -79 42 -120t121 -41z
M213 717q-10 0 -10 10v52q0 10 10 10h215q10 0 10 -10v-52q0 -10 -10 -10h-215z" />
    <glyph glyph-name="omacron" unicode="&#x14d;" horiz-adv-x="536" 
d="M268 -12q-101 0 -153.5 49t-52.5 149v116q0 100 52 149t154 49q101 0 153.5 -49t52.5 -149v-116q0 -100 -52 -149t-154 -49zM268 63q64 0 92.5 32.5t28.5 98.5v100q0 66 -28.5 98.5t-92.5 32.5t-92.5 -32.5t-28.5 -98.5v-100q0 -66 28.5 -98.5t92.5 -32.5zM170 570
q-10 0 -10 10v52q0 10 10 10h195q10 0 10 -10v-52q0 -10 -10 -10h-195z" />
    <glyph glyph-name="Ohungarumlaut" unicode="&#x150;" horiz-adv-x="642" 
d="M321 -12q-125 0 -186.5 61.5t-61.5 173.5v209q0 113 61.5 174t186.5 61t186.5 -61t61.5 -174v-209q0 -112 -61.5 -173.5t-186.5 -61.5zM321 63q80 0 121.5 41t41.5 120v207q0 80 -41.5 120.5t-121.5 40.5q-79 0 -121 -40.5t-42 -120.5v-207q0 -79 42 -120t121 -41z
M357 710q-11 0 -6 11l43 100q3 8 11 8h65q13 0 6 -12l-54 -100q-4 -7 -12 -7h-53zM215 710q-11 0 -6 11l43 100q3 8 11 8h65q13 0 6 -12l-54 -100q-4 -7 -12 -7h-53z" />
    <glyph glyph-name="ohungarumlaut" unicode="&#x151;" horiz-adv-x="536" 
d="M268 -12q-101 0 -153.5 49t-52.5 149v116q0 100 52 149t154 49q101 0 153.5 -49t52.5 -149v-116q0 -100 -52 -149t-154 -49zM268 63q64 0 92.5 32.5t28.5 98.5v100q0 66 -28.5 98.5t-92.5 32.5t-92.5 -32.5t-28.5 -98.5v-100q0 -66 28.5 -98.5t92.5 -32.5zM160 556
q-11 0 -6 11l51 120q3 8 11 8h67q12 0 5 -12l-63 -120q-4 -7 -11 -7h-54zM294 556q-11 0 -6 11l51 120q3 8 11 8h67q12 0 5 -12l-63 -120q-4 -7 -11 -7h-54z" />
    <glyph glyph-name="OE" unicode="&#x152;" horiz-adv-x="874" 
d="M321 -12q-124 0 -186 62t-62 173v209q0 111 62 173t186 62q26 0 55 -3t50 -9h366q10 0 10 -10v-57q0 -10 -10 -10h-281v-208h257q10 0 10 -10v-54q0 -10 -10 -10h-257v-219h281q10 0 10 -10v-57q0 -10 -10 -10h-366q-21 -6 -50 -9t-55 -3zM321 63q29 0 57.5 2.5t47.5 6.5
v511q-19 5 -47.5 7t-57.5 2q-79 0 -121 -41t-42 -118v-211q0 -77 42 -118t121 -41z" />
    <glyph glyph-name="oe" unicode="&#x153;" horiz-adv-x="836" 
d="M260 -12q-97 0 -147.5 50t-50.5 144v124q0 95 50.5 144.5t146.5 49.5q58 0 99.5 -19.5t63.5 -60.5q24 41 67.5 60.5t98.5 19.5q90 0 139 -49t49 -140v-78q0 -10 -10 -10h-302v-32q0 -67 28 -97.5t91 -30.5q47 0 72.5 16t25.5 41q0 15 11 15h65q10 0 10 -12q0 -63 -51 -99
t-137 -36q-56 0 -94 17.5t-66 60.5q-29 -43 -67 -60.5t-92 -17.5zM263 63q59 0 87.5 31.5t28.5 95.5v108q0 64 -28.5 95.5t-87.5 31.5q-58 0 -87 -31.5t-29 -95.5v-108q0 -64 29 -95.5t87 -31.5zM464 296h227v4q0 63 -28 94t-84 31q-58 0 -86.5 -32t-28.5 -94v-3z" />
    <glyph glyph-name="Racute" unicode="&#x154;" horiz-adv-x="604" 
d="M95 0q-10 0 -10 10v635q0 10 10 10h193q119 0 176.5 -45t57.5 -135q0 -72 -34.5 -119.5t-97.5 -65.5v-1l167 -277q3 -5 1 -8.5t-8 -3.5h-77q-8 0 -12 7l-163 272h-128v-269q0 -10 -10 -10h-65zM170 347h109q84 0 121 29t37 93q0 62 -34.5 88t-117.5 26h-115v-236z
M230 710q-5 0 -6 3t1 7l56 102q4 7 10 7h73q5 0 6.5 -3.5t-1.5 -8.5l-72 -101q-4 -6 -11 -6h-56z" />
    <glyph glyph-name="racute" unicode="&#x155;" horiz-adv-x="356" 
d="M85 0q-10 0 -10 10v359q0 28 -1.5 54.5t-5.5 53.5q-2 11 10 11h61q10 0 11 -9q4 -19 6 -43.5t2 -41.5l2 -53v-331q0 -10 -10 -10h-65zM149 311l-2 82q21 31 48.5 55t56 38t52.5 14q18 0 27 -3q8 -2 9 -10q2 -21 1.5 -43t-3.5 -42q-2 -11 -13 -8q-8 2 -17 3t-19 1
q-25 0 -50 -11t-48 -30.5t-42 -45.5zM157 556q-10 0 -5 10l66 122q4 7 12 7h70q5 0 6.5 -3.5t-1.5 -7.5l-83 -122q-4 -6 -11 -6h-54z" />
    <glyph glyph-name="uni0156" unicode="&#x156;" horiz-adv-x="604" 
d="M95 0q-10 0 -10 10v635q0 10 10 10h193q119 0 176.5 -45t57.5 -135q0 -72 -34.5 -119.5t-97.5 -65.5v-1l167 -277q3 -5 1 -8.5t-8 -3.5h-77q-8 0 -12 7l-163 272h-128v-269q0 -10 -10 -10h-65zM170 347h109q84 0 121 29t37 93q0 62 -34.5 88t-117.5 26h-115v-236z
M274 -231q-7 0 -6 9l16 67q-16 5 -22.5 15t-6.5 26v17q0 19 12 30t32 11q26 0 37.5 -11t11.5 -30v-18q0 -13 -2 -25.5t-6 -24.5l-20 -60q-2 -6 -10 -6h-36z" />
    <glyph glyph-name="uni0157" unicode="&#x157;" horiz-adv-x="356" 
d="M85 0q-10 0 -10 10v359q0 28 -1.5 54.5t-5.5 53.5q-2 11 10 11h61q10 0 11 -9q4 -19 6 -43.5t2 -41.5l2 -53v-331q0 -10 -10 -10h-65zM149 311l-2 82q21 31 48.5 55t56 38t52.5 14q18 0 27 -3q8 -2 9 -10q2 -21 1.5 -43t-3.5 -42q-2 -11 -13 -8q-8 2 -17 3t-19 1
q-25 0 -50 -11t-48 -30.5t-42 -45.5zM93 -231q-7 0 -6 9l16 67q-16 5 -22.5 15t-6.5 26v17q0 19 12 30t32 11q26 0 37.5 -11t11.5 -30v-18q0 -13 -2 -25.5t-6 -24.5l-20 -60q-2 -6 -10 -6h-36z" />
    <glyph glyph-name="Rcaron" unicode="&#x158;" horiz-adv-x="604" 
d="M95 0q-10 0 -10 10v635q0 10 10 10h193q119 0 176.5 -45t57.5 -135q0 -72 -34.5 -119.5t-97.5 -65.5v-1l167 -277q3 -5 1 -8.5t-8 -3.5h-77q-8 0 -12 7l-163 272h-128v-269q0 -10 -10 -10h-65zM170 347h109q84 0 121 29t37 93q0 62 -34.5 88t-117.5 26h-115v-236z
M270 718l-126 56q-7 3 -7 10v50q0 11 11 6l129 -46l129 46q11 5 11 -6v-50q0 -7 -7 -10l-126 -56q-7 -3 -14 0z" />
    <glyph glyph-name="rcaron" unicode="&#x159;" horiz-adv-x="356" 
d="M85 0q-10 0 -10 10v359q0 28 -1.5 54.5t-5.5 53.5q-2 11 10 11h61q10 0 11 -9q4 -19 6 -43.5t2 -41.5l2 -53v-331q0 -10 -10 -10h-65zM149 311l-2 82q21 31 48.5 55t56 38t52.5 14q18 0 27 -3q8 -2 9 -10q2 -21 1.5 -43t-3.5 -42q-2 -11 -13 -8q-8 2 -17 3t-19 1
q-25 0 -50 -11t-48 -30.5t-42 -45.5zM201 552l-116 66q-7 4 -7 13v51q0 10 11 4l119 -59l119 59q11 6 11 -4v-51q0 -9 -7 -13l-116 -66q-7 -5 -14 0z" />
    <glyph glyph-name="Sacute" unicode="&#x15a;" horiz-adv-x="568" 
d="M278 -12q-120 0 -176 51.5t-50 134.5q1 18 12 18h63q12 0 12 -16q0 -61 36 -87.5t110 -26.5q71 0 107.5 25.5t36.5 77.5q0 26 -8.5 44.5t-28.5 32.5t-54 28l-147 61q-46 19 -74.5 42.5t-41 54t-12.5 69.5q1 83 55.5 126t158.5 43q71 0 123 -21t79 -61t22 -98
q-2 -19 -11 -19h-64q-5 0 -7.5 4t-1.5 15q4 51 -34.5 78.5t-108.5 27.5q-62 0 -93.5 -22t-32.5 -68q0 -24 8.5 -42t29 -33t56.5 -30l145 -61q46 -19 74 -42t40.5 -53.5t12.5 -73.5q0 -84 -57 -131.5t-179 -47.5zM234 710q-5 0 -6 3t1 7l56 102q4 7 10 7h73q5 0 6.5 -3.5
t-1.5 -8.5l-72 -101q-4 -6 -11 -6h-56z" />
    <glyph glyph-name="sacute" unicode="&#x15b;" horiz-adv-x="464" 
d="M233 -12q-90 0 -135 39.5t-45 118.5q0 9 10 9h66q9 0 9 -8q0 -45 22.5 -65t73.5 -20q49 0 74 16.5t25 47.5q0 23 -14 38.5t-44 28.5l-114 47q-55 23 -78 52t-23 75q0 66 42 99.5t125 33.5q85 0 132 -35.5t47 -100.5q0 -9 -10 -9h-66q-10 0 -10 16q0 26 -24 40.5t-66 14.5
q-43 0 -64 -14.5t-21 -44.5q0 -22 11.5 -33t46.5 -26l114 -48q53 -22 77 -52t24 -77q0 -69 -48 -106t-137 -37zM177 556q-10 0 -5 10l66 122q4 7 12 7h70q5 0 6.5 -3.5t-1.5 -7.5l-83 -122q-4 -6 -11 -6h-54z" />
    <glyph glyph-name="Scedilla" unicode="&#x15e;" horiz-adv-x="568" 
d="M278 -12q-120 0 -176 51.5t-50 134.5q1 18 12 18h63q12 0 12 -16q0 -61 36 -87.5t110 -26.5q71 0 107.5 25.5t36.5 77.5q0 26 -8.5 44.5t-28.5 32.5t-54 28l-147 61q-46 19 -74.5 42.5t-41 54t-12.5 69.5q1 83 55.5 126t158.5 43q71 0 123 -21t79 -61t22 -98
q-2 -19 -11 -19h-64q-5 0 -7.5 4t-1.5 15q4 51 -34.5 78.5t-108.5 27.5q-62 0 -93.5 -22t-32.5 -68q0 -24 8.5 -42t29 -33t56.5 -30l145 -61q46 -19 74 -42t40.5 -53.5t12.5 -73.5q0 -84 -57 -131.5t-179 -47.5zM269 -197q-10 0 -20 1t-21 3q-8 1 -8 8v37q0 8 8 7
q7 -1 15 -1.5t13 -0.5q22 0 31.5 7t9.5 17v13q0 15 -8.5 20.5t-25.5 5.5h-23q-7 0 -7 7q0 5 0.5 10.5t1.5 9.5l23 75q2 6 9 6h48q8 0 5 -11l-18 -58h9q26 0 39.5 -17.5t13.5 -46.5v-15q0 -40 -23.5 -58.5t-71.5 -18.5z" />
    <glyph glyph-name="scedilla" unicode="&#x15f;" horiz-adv-x="464" 
d="M233 -12q-90 0 -135 39.5t-45 118.5q0 9 10 9h66q9 0 9 -8q0 -45 22.5 -65t73.5 -20q49 0 74 16.5t25 47.5q0 23 -14 38.5t-44 28.5l-114 47q-55 23 -78 52t-23 75q0 66 42 99.5t125 33.5q85 0 132 -35.5t47 -100.5q0 -9 -10 -9h-66q-10 0 -10 16q0 26 -24 40.5t-66 14.5
q-43 0 -64 -14.5t-21 -44.5q0 -22 11.5 -33t46.5 -26l114 -48q53 -22 77 -52t24 -77q0 -69 -48 -106t-137 -37zM222 -197q-10 0 -20 1t-21 3q-8 1 -8 8v37q0 8 8 7q7 -1 15 -1.5t13 -0.5q22 0 31.5 7t9.5 17v13q0 15 -8.5 20.5t-25.5 5.5h-23q-7 0 -7 7q0 5 0.5 10.5
t1.5 9.5l23 75q2 6 9 6h48q8 0 5 -11l-18 -58h9q26 0 39.5 -17.5t13.5 -46.5v-15q0 -40 -23.5 -58.5t-71.5 -18.5z" />
    <glyph glyph-name="Scaron" unicode="&#x160;" horiz-adv-x="568" 
d="M278 -12q-120 0 -176 51.5t-50 134.5q1 18 12 18h63q12 0 12 -16q0 -61 36 -87.5t110 -26.5q71 0 107.5 25.5t36.5 77.5q0 26 -8.5 44.5t-28.5 32.5t-54 28l-147 61q-46 19 -74.5 42.5t-41 54t-12.5 69.5q1 83 55.5 126t158.5 43q71 0 123 -21t79 -61t22 -98
q-2 -19 -11 -19h-64q-5 0 -7.5 4t-1.5 15q4 51 -34.5 78.5t-108.5 27.5q-62 0 -93.5 -22t-32.5 -68q0 -24 8.5 -42t29 -33t56.5 -30l145 -61q46 -19 74 -42t40.5 -53.5t12.5 -73.5q0 -84 -57 -131.5t-179 -47.5zM274 718l-126 56q-7 3 -7 10v50q0 11 11 6l129 -46l129 46
q11 5 11 -6v-50q0 -7 -7 -10l-126 -56q-7 -3 -14 0z" />
    <glyph glyph-name="scaron" unicode="&#x161;" horiz-adv-x="464" 
d="M233 -12q-90 0 -135 39.5t-45 118.5q0 9 10 9h66q9 0 9 -8q0 -45 22.5 -65t73.5 -20q49 0 74 16.5t25 47.5q0 23 -14 38.5t-44 28.5l-114 47q-55 23 -78 52t-23 75q0 66 42 99.5t125 33.5q85 0 132 -35.5t47 -100.5q0 -9 -10 -9h-66q-10 0 -10 16q0 26 -24 40.5t-66 14.5
q-43 0 -64 -14.5t-21 -44.5q0 -22 11.5 -33t46.5 -26l114 -48q53 -22 77 -52t24 -77q0 -69 -48 -106t-137 -37zM221 552l-116 66q-7 4 -7 13v51q0 10 11 4l119 -59l119 59q11 6 11 -4v-51q0 -9 -7 -13l-116 -66q-7 -5 -14 0z" />
    <glyph glyph-name="uni0162" unicode="&#x162;" horiz-adv-x="535" 
d="M235 0q-10 0 -10 10v568h-180q-10 0 -10 10v57q0 10 10 10h445q10 0 10 -10v-57q0 -10 -10 -10h-180v-568q0 -10 -10 -10h-65zM245 -197q-10 0 -20 1t-21 3q-8 1 -8 8v37q0 8 8 7q7 -1 15 -1.5t13 -0.5q22 0 31.5 7t9.5 17v13q0 15 -8.5 20.5t-25.5 5.5h-23q-7 0 -7 7
q0 5 0.5 10.5t1.5 9.5l23 75q2 6 9 6h48q8 0 5 -11l-18 -58h9q26 0 39.5 -17.5t13.5 -46.5v-15q0 -40 -23.5 -58.5t-71.5 -18.5z" />
    <glyph glyph-name="uni0163" unicode="&#x163;" horiz-adv-x="385" 
d="M246 -12q-51 0 -81.5 17.5t-44 52.5t-13.5 87v270h-77q-10 0 -10 10v53q0 10 10 10h79l11 120q1 10 11 10h50q10 0 10 -10l1 -120h149q10 0 10 -10v-53q0 -10 -10 -10h-149v-268q0 -47 16.5 -66t56.5 -19q20 0 40 4.5t35 11.5q12 5 12 -7v-55q0 -8 -8 -11q-18 -7 -42 -12
t-56 -5zM213 -197q-10 0 -20 1t-21 3q-8 1 -8 8v37q0 8 8 7q7 -1 15 -1.5t13 -0.5q22 0 31.5 7t9.5 17v13q0 15 -8.5 20.5t-25.5 5.5h-23q-7 0 -7 7q0 5 0.5 10.5t1.5 9.5l23 75q2 6 9 6h48q8 0 5 -11l-18 -58h9q26 0 39.5 -17.5t13.5 -46.5v-15q0 -40 -23.5 -58.5
t-71.5 -18.5z" />
    <glyph glyph-name="Tcaron" unicode="&#x164;" horiz-adv-x="535" 
d="M235 0q-10 0 -10 10v568h-180q-10 0 -10 10v57q0 10 10 10h445q10 0 10 -10v-57q0 -10 -10 -10h-180v-568q0 -10 -10 -10h-65zM261 718l-126 56q-7 3 -7 10v50q0 11 11 6l129 -46l129 46q11 5 11 -6v-50q0 -7 -7 -10l-126 -56q-7 -3 -14 0z" />
    <glyph glyph-name="tcaron" unicode="&#x165;" horiz-adv-x="387" 
d="M246 -12q-51 0 -81.5 17.5t-44 52.5t-13.5 87v270h-77q-10 0 -10 10v53q0 10 10 10h79l11 120q1 10 11 10h50q10 0 10 -10l1 -120h149q10 0 10 -10v-53q0 -10 -10 -10h-149v-268q0 -47 16.5 -66t56.5 -19q20 0 40 4.5t35 11.5q12 5 12 -7v-55q0 -8 -8 -11q-18 -7 -42 -12
t-56 -5zM274 528q-11 0 -9 11l14 57q-16 5 -22.5 13.5t-6.5 24.5v25q0 16 12 26t32 10q26 0 37.5 -10t11.5 -26v-26q0 -13 -1.5 -24t-6.5 -23l-18 -50q-3 -8 -12 -8h-31z" />
    <glyph glyph-name="Tbar" unicode="&#x166;" horiz-adv-x="535" 
d="M123 303q-10 0 -10 10v45q0 10 10 10h289q10 0 10 -10v-45q0 -10 -10 -10h-102h-85h-102zM235 0q-10 0 -10 10v568h-180q-10 0 -10 10v57q0 10 10 10h445q10 0 10 -10v-57q0 -10 -10 -10h-180v-568q0 -10 -10 -10h-65z" />
    <glyph glyph-name="tbar" unicode="&#x167;" horiz-adv-x="385" 
d="M39 263q-10 0 -10 10v50q0 10 10 10h68h85h135q10 0 10 -10v-50q0 -10 -10 -10h-288zM246 -12q-51 0 -81.5 17.5t-44 52.5t-13.5 87v270h-77q-10 0 -10 10v53q0 10 10 10h79l11 120q1 10 11 10h50q10 0 10 -10l1 -120h149q10 0 10 -10v-53q0 -10 -10 -10h-149v-268
q0 -47 16.5 -66t56.5 -19q20 0 40 4.5t35 11.5q12 5 12 -7v-55q0 -8 -8 -11q-18 -7 -42 -12t-56 -5z" />
    <glyph glyph-name="Umacron" unicode="&#x16a;" horiz-adv-x="644" 
d="M322 -12q-115 0 -178.5 61t-63.5 176v420q0 10 10 10h65q10 0 10 -10v-423q0 -76 40.5 -117.5t116.5 -41.5t116.5 41.5t40.5 117.5v423q0 10 10 10h65q10 0 10 -10v-422q0 -109 -64.5 -172t-177.5 -63zM214 717q-10 0 -10 10v52q0 10 10 10h215q10 0 10 -10v-52
q0 -10 -10 -10h-215z" />
    <glyph glyph-name="umacron" unicode="&#x16b;" horiz-adv-x="542" 
d="M207 -12q-64 0 -98 43t-34 124v323q0 10 10 10h65q10 0 10 -10v-319q0 -49 17.5 -72.5t54.5 -23.5t74.5 23t93.5 80l-2 -79q-32 -33 -64 -55t-63.5 -33t-63.5 -11zM407 0q-11 0 -12 10q-3 19 -5 39t-3 41l-5 42v346q0 10 10 10h65q10 0 10 -10v-356q0 -27 1.5 -56
t5.5 -56q2 -10 -11 -10h-56zM173 570q-10 0 -10 10v52q0 10 10 10h195q10 0 10 -10v-52q0 -10 -10 -10h-195z" />
    <glyph glyph-name="Uring" unicode="&#x16e;" horiz-adv-x="644" 
d="M322 -12q-115 0 -178.5 61t-63.5 176v420q0 10 10 10h65q10 0 10 -10v-423q0 -76 40.5 -117.5t116.5 -41.5t116.5 41.5t40.5 117.5v423q0 10 10 10h65q10 0 10 -10v-422q0 -109 -64.5 -172t-177.5 -63zM322 669q-50 0 -80.5 25t-30.5 71q0 47 30 71.5t81 24.5
q50 0 80.5 -24.5t30.5 -71.5q0 -46 -30 -71t-81 -25zM322 719q28 0 39.5 13t11.5 33t-11.5 33t-39.5 13t-39.5 -13t-11.5 -33t11.5 -33t39.5 -13z" />
    <glyph glyph-name="uring" unicode="&#x16f;" horiz-adv-x="542" 
d="M207 -12q-64 0 -98 43t-34 124v323q0 10 10 10h65q10 0 10 -10v-319q0 -49 17.5 -72.5t54.5 -23.5t74.5 23t93.5 80l-2 -79q-32 -33 -64 -55t-63.5 -33t-63.5 -11zM407 0q-11 0 -12 10q-3 19 -5 39t-3 41l-5 42v346q0 10 10 10h65q10 0 10 -10v-356q0 -27 1.5 -56
t5.5 -56q2 -10 -11 -10h-56zM271 551q-50 0 -80.5 25t-30.5 71q0 47 30 71.5t81 24.5q50 0 80.5 -24.5t30.5 -71.5q0 -46 -30 -71t-81 -25zM271 601q28 0 39.5 13t11.5 33t-11.5 33t-39.5 13t-39.5 -13t-11.5 -33t11.5 -33t39.5 -13z" />
    <glyph glyph-name="Uhungarumlaut" unicode="&#x170;" horiz-adv-x="644" 
d="M322 -12q-115 0 -178.5 61t-63.5 176v420q0 10 10 10h65q10 0 10 -10v-423q0 -76 40.5 -117.5t116.5 -41.5t116.5 41.5t40.5 117.5v423q0 10 10 10h65q10 0 10 -10v-422q0 -109 -64.5 -172t-177.5 -63zM358 710q-11 0 -6 11l43 100q3 8 11 8h65q13 0 6 -12l-54 -100
q-4 -7 -12 -7h-53zM216 710q-11 0 -6 11l43 100q3 8 11 8h65q13 0 6 -12l-54 -100q-4 -7 -12 -7h-53z" />
    <glyph glyph-name="uhungarumlaut" unicode="&#x171;" horiz-adv-x="542" 
d="M207 -12q-64 0 -98 43t-34 124v323q0 10 10 10h65q10 0 10 -10v-319q0 -49 17.5 -72.5t54.5 -23.5t74.5 23t93.5 80l-2 -79q-32 -33 -64 -55t-63.5 -33t-63.5 -11zM407 0q-11 0 -12 10q-3 19 -5 39t-3 41l-5 42v346q0 10 10 10h65q10 0 10 -10v-356q0 -27 1.5 -56
t5.5 -56q2 -10 -11 -10h-56zM163 556q-11 0 -6 11l51 120q3 8 11 8h67q12 0 5 -12l-63 -120q-4 -7 -11 -7h-54zM297 556q-11 0 -6 11l51 120q3 8 11 8h67q12 0 5 -12l-63 -120q-4 -7 -11 -7h-54z" />
    <glyph glyph-name="Uogonek" unicode="&#x172;" horiz-adv-x="644" 
d="M322 -12q-115 0 -178.5 61t-63.5 176v420q0 10 10 10h65q10 0 10 -10v-423q0 -76 40.5 -117.5t116.5 -41.5t116.5 41.5t40.5 117.5v423q0 10 10 10h65q10 0 10 -10v-422q0 -109 -64.5 -172t-177.5 -63zM382 -197q-51 0 -75 22.5t-24 58.5v12q0 41 30 75.5t80 51.5l20 -11
v-11q-28 -14 -43 -38t-15 -50v-10q0 -37 41 -37h13.5t11.5 1q9 1 9 -7v-44q0 -4 -1.5 -6.5t-6.5 -3.5q-10 -1 -20.5 -2t-19.5 -1z" />
    <glyph glyph-name="uogonek" unicode="&#x173;" horiz-adv-x="542" 
d="M207 -12q-64 0 -98 43t-34 124v323q0 10 10 10h65q10 0 10 -10v-319q0 -49 17.5 -72.5t54.5 -23.5t74.5 23t93.5 80l-2 -79q-32 -33 -64 -55t-63.5 -33t-63.5 -11zM407 0q-11 0 -12 10q-3 19 -5 39t-3 41l-5 42v346q0 10 10 10h65q10 0 10 -10v-356q0 -27 1.5 -56
t5.5 -56q2 -10 -11 -10h-56zM437 -197q-51 0 -75 22.5t-24 58.5v12q0 41 30 75.5t80 51.5l20 -11v-11q-28 -14 -43 -38t-15 -50v-10q0 -37 41 -37h13.5t11.5 1q9 1 9 -7v-44q0 -4 -1.5 -6.5t-6.5 -3.5q-10 -1 -20.5 -2t-19.5 -1z" />
    <glyph glyph-name="Wcircumflex" unicode="&#x174;" horiz-adv-x="847" 
d="M215 0q-9 0 -11 8l-183 636q-3 11 9 11h66q9 0 11 -8l116 -413q7 -23 13 -46.5t12.5 -47t12.5 -47.5h1q11 35 21.5 69t20.5 68l84 279l-36 125q-1 5 1.5 8t7.5 3h68q9 0 11 -9l113 -415q9 -32 17.5 -64t17.5 -64h1l12 46l12 46l12 46l112 416q2 8 11 8h69q12 0 9 -11
l-176 -636q-2 -8 -11 -8h-95q-9 0 -11 8l-68 235q-10 33 -19 66l-18 66h-1q-10 -32 -19.5 -64.5t-19.5 -64.5l-71 -238q-3 -8 -11 -8h-91zM295 718q-11 -5 -11 6v50q0 7 7 10l126 56q7 4 14 0l126 -56q7 -3 7 -10v-50q0 -11 -11 -6l-129 46z" />
    <glyph glyph-name="wcircumflex" unicode="&#x175;" horiz-adv-x="716" 
d="M182 0q-8 0 -11 9l-145 468q-3 11 8 11h70q8 0 11 -9l79 -276l18 -64l18 -64h2l20 62l20 62l54 167l-30 101q-3 11 8 11h63q9 0 11 -8l74 -272q8 -31 16 -61.5t16 -61.5h2q9 32 17.5 63.5t17.5 62.5l80 278q3 9 11 9h70q11 0 8 -11l-146 -468q-3 -9 -11 -9h-91
q-8 0 -11 8l-31 102q-10 34 -19 69t-19 75h-2q-10 -40 -20.5 -74t-21.5 -67l-34 -105q-3 -8 -11 -8h-91zM239 552q-11 -6 -11 4v51q0 9 7 13l116 66q7 5 14 0l116 -66q7 -4 7 -13v-51q0 -10 -11 -4l-119 59z" />
    <glyph glyph-name="Ycircumflex" unicode="&#x176;" horiz-adv-x="535" 
d="M235 0q-10 0 -10 10v215l-214 418q-2 5 0 8.5t7 3.5h76q9 0 12 -7l110 -226q13 -26 26 -53.5t26 -53.5h1q14 28 27 55t26 55l109 223q3 7 12 7h74q5 0 7 -3.5t0 -8.5l-214 -418v-215q0 -10 -10 -10h-65zM139 718q-11 -5 -11 6v50q0 7 7 10l126 56q7 4 14 0l126 -56
q7 -3 7 -10v-50q0 -11 -11 -6l-129 46z" />
    <glyph glyph-name="ycircumflex" unicode="&#x177;" horiz-adv-x="497" 
d="M145 -185q-12 0 -7 12l71 179l-185 470q-5 12 7 12h71q8 0 11 -8l90 -242q12 -31 23.5 -64t22.5 -65h1q11 32 23.5 65t23.5 64l90 242q3 8 12 8h67q13 0 8 -12l-253 -653q-3 -8 -11 -8h-65zM127 552q-11 -6 -11 4v51q0 9 7 13l116 66q7 5 14 0l116 -66q7 -4 7 -13v-51
q0 -10 -11 -4l-119 59z" />
    <glyph glyph-name="Ydieresis" unicode="&#x178;" horiz-adv-x="535" 
d="M235 0q-10 0 -10 10v215l-214 418q-2 5 0 8.5t7 3.5h76q9 0 12 -7l110 -226q13 -26 26 -53.5t26 -53.5h1q14 28 27 55t26 55l109 223q3 7 12 7h74q5 0 7 -3.5t0 -8.5l-214 -418v-215q0 -10 -10 -10h-65zM184 711q-28 0 -40 14.5t-12 36.5v10q0 23 12 37t40 14t40 -14
t12 -37v-10q0 -22 -12 -36.5t-40 -14.5zM352 711q-28 0 -40 14.5t-12 36.5v10q0 23 12 37t40 14t40 -14t12 -37v-10q0 -22 -12 -36.5t-40 -14.5z" />
    <glyph glyph-name="Zacute" unicode="&#x179;" horiz-adv-x="545" 
d="M30 0q-10 0 -10 9v2q0 5 4 13l298 455q16 25 32 49.5t33 49.5v1q-28 -1 -57 -1h-58h-209q-10 0 -10 10v57q0 10 10 10h449q10 0 10 -9v-2q0 -5 -4 -13l-294 -445q-18 -28 -35.5 -55t-36.5 -54v-1q33 1 66 1h66h205q10 0 10 -10v-57q0 -10 -10 -10h-459zM221 710
q-5 0 -6 3t1 7l56 102q4 7 10 7h73q5 0 6.5 -3.5t-1.5 -8.5l-72 -101q-4 -6 -11 -6h-56z" />
    <glyph glyph-name="zacute" unicode="&#x17a;" horiz-adv-x="464" 
d="M35 0q-10 0 -10 9v2q0 8 4 13l219 309q14 20 28.5 40.5t29.5 40.5v1h-56.5h-57.5h-134q-10 0 -10 10v53q0 10 10 10h371q10 0 10 -9v-2q0 -4 -1 -7t-3 -6l-213 -300q-16 -22 -31.5 -44.5t-32.5 -45.5v-1h51h50h159q10 0 10 -10v-53q0 -10 -10 -10h-383zM193 556
q-10 0 -5 10l66 122q4 7 12 7h70q5 0 6.5 -3.5t-1.5 -7.5l-83 -122q-4 -6 -11 -6h-54z" />
    <glyph glyph-name="Zdotaccent" unicode="&#x17b;" horiz-adv-x="545" 
d="M30 0q-10 0 -10 9v2q0 5 4 13l298 455q16 25 32 49.5t33 49.5v1q-28 -1 -57 -1h-58h-209q-10 0 -10 10v57q0 10 10 10h449q10 0 10 -9v-2q0 -5 -4 -13l-294 -445q-18 -28 -35.5 -55t-36.5 -54v-1q33 1 66 1h66h205q10 0 10 -10v-57q0 -10 -10 -10h-459zM268 725
q-29 0 -42 15.5t-13 39.5v10q0 24 13 39.5t42 15.5t42 -15.5t13 -39.5v-10q0 -24 -13 -39.5t-42 -15.5z" />
    <glyph glyph-name="zdotaccent" unicode="&#x17c;" horiz-adv-x="464" 
d="M35 0q-10 0 -10 9v2q0 8 4 13l219 309q14 20 28.5 40.5t29.5 40.5v1h-56.5h-57.5h-134q-10 0 -10 10v53q0 10 10 10h371q10 0 10 -9v-2q0 -4 -1 -7t-3 -6l-213 -300q-16 -22 -31.5 -44.5t-32.5 -45.5v-1h51h50h159q10 0 10 -10v-53q0 -10 -10 -10h-383zM244 570
q-29 0 -42 15.5t-13 39.5v10q0 24 13 39.5t42 15.5t42 -15.5t13 -39.5v-10q0 -24 -13 -39.5t-42 -15.5z" />
    <glyph glyph-name="Zcaron" unicode="&#x17d;" horiz-adv-x="545" 
d="M30 0q-10 0 -10 9v2q0 5 4 13l298 455q16 25 32 49.5t33 49.5v1q-28 -1 -57 -1h-58h-209q-10 0 -10 10v57q0 10 10 10h449q10 0 10 -9v-2q0 -5 -4 -13l-294 -445q-18 -28 -35.5 -55t-36.5 -54v-1q33 1 66 1h66h205q10 0 10 -10v-57q0 -10 -10 -10h-459zM261 718l-126 56
q-7 3 -7 10v50q0 11 11 6l129 -46l129 46q11 5 11 -6v-50q0 -7 -7 -10l-126 -56q-7 -3 -14 0z" />
    <glyph glyph-name="zcaron" unicode="&#x17e;" horiz-adv-x="464" 
d="M35 0q-10 0 -10 9v2q0 8 4 13l219 309q14 20 28.5 40.5t29.5 40.5v1h-56.5h-57.5h-134q-10 0 -10 10v53q0 10 10 10h371q10 0 10 -9v-2q0 -4 -1 -7t-3 -6l-213 -300q-16 -22 -31.5 -44.5t-32.5 -45.5v-1h51h50h159q10 0 10 -10v-53q0 -10 -10 -10h-383zM237 552l-116 66
q-7 4 -7 13v51q0 10 11 4l119 -59l119 59q11 6 11 -4v-51q0 -9 -7 -13l-116 -66q-7 -5 -14 0z" />
    <glyph glyph-name="florin" unicode="&#x192;" horiz-adv-x="630" 
d="M235 -185q-4 0 -7 3t-3 7v532h-83q-4 0 -7 3t-3 7v53q0 5 3 7.5t7 2.5h83v83q0 76 44.5 115t110.5 39q38 0 64.5 -6t46.5 -14q8 -3 8 -12v-56q0 -12 -12 -7q-19 8 -42 14.5t-51 6.5q-36 0 -60 -19t-24 -63v-81h149q5 0 7.5 -2.5t2.5 -7.5v-53q0 -4 -2.5 -7t-7.5 -3h-149
v-532q0 -4 -2.5 -7t-7.5 -3h-65z" />
    <glyph glyph-name="uni0218" unicode="&#x218;" horiz-adv-x="568" 
d="M278 -12q-120 0 -176 51.5t-50 134.5q1 18 12 18h63q12 0 12 -16q0 -61 36 -87.5t110 -26.5q71 0 107.5 25.5t36.5 77.5q0 26 -8.5 44.5t-28.5 32.5t-54 28l-147 61q-46 19 -74.5 42.5t-41 54t-12.5 69.5q1 83 55.5 126t158.5 43q71 0 123 -21t79 -61t22 -98
q-2 -19 -11 -19h-64q-5 0 -7.5 4t-1.5 15q4 51 -34.5 78.5t-108.5 27.5q-62 0 -93.5 -22t-32.5 -68q0 -24 8.5 -42t29 -33t56.5 -30l145 -61q46 -19 74 -42t40.5 -53.5t12.5 -73.5q0 -84 -57 -131.5t-179 -47.5zM264 -231q-7 0 -6 9l16 67q-16 5 -22.5 15t-6.5 26v17
q0 19 12 30t32 11q26 0 37.5 -11t11.5 -30v-18q0 -13 -2 -25.5t-6 -24.5l-20 -60q-2 -6 -10 -6h-36z" />
    <glyph glyph-name="uni0219" unicode="&#x219;" horiz-adv-x="464" 
d="M233 -12q-90 0 -135 39.5t-45 118.5q0 9 10 9h66q9 0 9 -8q0 -45 22.5 -65t73.5 -20q49 0 74 16.5t25 47.5q0 23 -14 38.5t-44 28.5l-114 47q-55 23 -78 52t-23 75q0 66 42 99.5t125 33.5q85 0 132 -35.5t47 -100.5q0 -9 -10 -9h-66q-10 0 -10 16q0 26 -24 40.5t-66 14.5
q-43 0 -64 -14.5t-21 -44.5q0 -22 11.5 -33t46.5 -26l114 -48q53 -22 77 -52t24 -77q0 -69 -48 -106t-137 -37zM217 -231q-7 0 -6 9l16 67q-16 5 -22.5 15t-6.5 26v17q0 19 12 30t32 11q26 0 37.5 -11t11.5 -30v-18q0 -13 -2 -25.5t-6 -24.5l-20 -60q-2 -6 -10 -6h-36z" />
    <glyph glyph-name="uni021A" unicode="&#x21a;" horiz-adv-x="535" 
d="M235 0q-10 0 -10 10v568h-180q-10 0 -10 10v57q0 10 10 10h445q10 0 10 -10v-57q0 -10 -10 -10h-180v-568q0 -10 -10 -10h-65zM240 -231q-7 0 -6 9l16 67q-16 5 -22.5 15t-6.5 26v17q0 19 12 30t32 11q26 0 37.5 -11t11.5 -30v-18q0 -13 -2 -25.5t-6 -24.5l-20 -60
q-2 -6 -10 -6h-36z" />
    <glyph glyph-name="uni021B" unicode="&#x21b;" horiz-adv-x="385" 
d="M246 -12q-51 0 -81.5 17.5t-44 52.5t-13.5 87v270h-77q-10 0 -10 10v53q0 10 10 10h79l11 120q1 10 11 10h50q10 0 10 -10l1 -120h149q10 0 10 -10v-53q0 -10 -10 -10h-149v-268q0 -47 16.5 -66t56.5 -19q20 0 40 4.5t35 11.5q12 5 12 -7v-55q0 -8 -8 -11q-18 -7 -42 -12
t-56 -5zM208 -231q-7 0 -6 9l16 67q-16 5 -22.5 15t-6.5 26v17q0 19 12 30t32 11q26 0 37.5 -11t11.5 -30v-18q0 -13 -2 -25.5t-6 -24.5l-20 -60q-2 -6 -10 -6h-36z" />
    <glyph glyph-name="uni0237" unicode="&#x237;" horiz-adv-x="236" 
d="M42 -190q-8 -5 -14 3l-39 49q-3 5 -2 8t5 6q26 18 44.5 44.5t28.5 62t10 81.5v414q0 5 3 7.5t7 2.5h65q5 0 7.5 -2.5t2.5 -7.5v-419q0 -60 -12.5 -107t-38.5 -82t-67 -60z" />
    <glyph glyph-name="uni02BC" unicode="&#x2bc;" horiz-adv-x="153" 
d="M49 520q-7 0 -6 9l16 67q-16 5 -22.5 15t-6.5 26v17q0 19 12 30t32 11q26 0 37.5 -11t11.5 -30v-18q0 -13 -2 -25.5t-6 -24.5l-20 -60q-2 -6 -10 -6h-36z" />
    <glyph glyph-name="circumflex" unicode="&#x2c6;" horiz-adv-x="320" 
d="M41 552q-11 -6 -11 4v51q0 9 7 13l116 66q7 5 14 0l116 -66q7 -4 7 -13v-51q0 -10 -11 -4l-119 59z" />
    <glyph glyph-name="caron" unicode="&#x2c7;" horiz-adv-x="320" 
d="M153 552l-116 66q-7 4 -7 13v51q0 10 11 4l119 -59l119 59q11 6 11 -4v-51q0 -9 -7 -13l-116 -66q-7 -5 -14 0z" />
    <glyph glyph-name="breve" unicode="&#x2d8;" horiz-adv-x="308" 
d="M154 556q-34 0 -58.5 9.5t-39.5 21t-22 18.5q-4 4 -4 12v54q0 6 3 8.5t8 -2.5q14 -13 43.5 -31.5t69.5 -18.5q41 0 70.5 18.5t42.5 31.5q5 5 8 2.5t3 -8.5v-54q0 -4 -1 -7t-3 -5q-7 -7 -22 -18.5t-39 -21t-59 -9.5z" />
    <glyph glyph-name="dotaccent" unicode="&#x2d9;" horiz-adv-x="170" 
d="M85 570q-29 0 -42 15.5t-13 39.5v10q0 24 13 39.5t42 15.5t42 -15.5t13 -39.5v-10q0 -24 -13 -39.5t-42 -15.5z" />
    <glyph glyph-name="ring" unicode="&#x2da;" horiz-adv-x="282" 
d="M141 551q-50 0 -80.5 25t-30.5 71q0 47 30 71.5t81 24.5q50 0 80.5 -24.5t30.5 -71.5q0 -46 -30 -71t-81 -25zM141 601q28 0 39.5 13t11.5 33t-11.5 33t-39.5 13t-39.5 -13t-11.5 -33t11.5 -33t39.5 -13z" />
    <glyph glyph-name="ogonek" unicode="&#x2db;" horiz-adv-x="207" 
d="M129 -197q-51 0 -75 22.5t-24 58.5v12q0 41 30 75.5t80 51.5l20 -11v-11q-28 -14 -43 -38t-15 -50v-10q0 -37 41 -37h13.5t11.5 1q9 1 9 -7v-44q0 -4 -1.5 -6.5t-6.5 -3.5q-10 -1 -20.5 -2t-19.5 -1z" />
    <glyph glyph-name="tilde" unicode="&#x2dc;" horiz-adv-x="320" 
d="M210 567q-20 0 -36 6.5t-31.5 12.5t-34.5 6q-17 0 -36 -7t-30 -12q-12 -5 -12 6v47q0 9 6 13q9 7 28.5 16t45.5 9q25 0 41.5 -6t30 -12.5t30.5 -6.5t36 7t30 12q12 5 12 -6v-47q0 -8 -6 -13q-9 -7 -28.5 -16t-45.5 -9z" />
    <glyph glyph-name="hungarumlaut" unicode="&#x2dd;" horiz-adv-x="331" 
d="M37 556q-11 0 -6 11l51 120q3 8 11 8h67q12 0 5 -12l-63 -120q-4 -7 -11 -7h-54zM171 556q-11 0 -6 11l51 120q3 8 11 8h67q12 0 5 -12l-63 -120q-4 -7 -11 -7h-54z" />
    <glyph glyph-name="gravecomb" unicode="&#x300;" 
d="M126 556q-7 0 -11 6l-83 122q-3 4 -1.5 7.5t6.5 3.5h70q9 0 12 -7l66 -122q5 -10 -5 -10h-54z" />
    <glyph glyph-name="acutecomb" unicode="&#x301;" 
d="M36 556q-10 0 -5 10l66 122q4 7 12 7h70q5 0 6.5 -3.5t-1.5 -7.5l-83 -122q-4 -6 -11 -6h-54z" />
    <glyph glyph-name="uni0302" unicode="&#x302;" 
d="M41 552q-11 -6 -11 4v51q0 9 7 13l116 66q7 5 14 0l116 -66q7 -4 7 -13v-51q0 -10 -11 -4l-119 59z" />
    <glyph glyph-name="tildecomb" unicode="&#x303;" 
d="M210 567q-20 0 -36 6.5t-31.5 12.5t-34.5 6q-17 0 -36 -7t-30 -12q-12 -5 -12 6v47q0 9 6 13q9 7 28.5 16t45.5 9q25 0 41.5 -6t30 -12.5t30.5 -6.5t36 7t30 12q12 5 12 -6v-47q0 -8 -6 -13q-9 -7 -28.5 -16t-45.5 -9z" />
    <glyph glyph-name="uni0304" unicode="&#x304;" 
d="M40 570q-10 0 -10 10v52q0 10 10 10h195q10 0 10 -10v-52q0 -10 -10 -10h-195z" />
    <glyph glyph-name="uni0306" unicode="&#x306;" 
d="M154 556q-34 0 -58.5 9.5t-39.5 21t-22 18.5q-4 4 -4 12v54q0 6 3 8.5t8 -2.5q14 -13 43.5 -31.5t69.5 -18.5q41 0 70.5 18.5t42.5 31.5q5 5 8 2.5t3 -8.5v-54q0 -4 -1 -7t-3 -5q-7 -7 -22 -18.5t-39 -21t-59 -9.5z" />
    <glyph glyph-name="uni0307" unicode="&#x307;" 
d="M85 570q-29 0 -42 15.5t-13 39.5v10q0 24 13 39.5t42 15.5t42 -15.5t13 -39.5v-10q0 -24 -13 -39.5t-42 -15.5z" />
    <glyph glyph-name="uni0308" unicode="&#x308;" 
d="M82 570q-28 0 -40 14.5t-12 36.5v10q0 23 12 37t40 14t40 -14t12 -37v-10q0 -22 -12 -36.5t-40 -14.5zM251 570q-28 0 -40 14.5t-12 36.5v10q0 23 12 37t40 14t40 -14t12 -37v-10q0 -22 -12 -36.5t-40 -14.5z" />
    <glyph glyph-name="uni030A" unicode="&#x30a;" 
d="M141 551q-50 0 -80.5 25t-30.5 71q0 47 30 71.5t81 24.5q50 0 80.5 -24.5t30.5 -71.5q0 -46 -30 -71t-81 -25zM141 601q28 0 39.5 13t11.5 33t-11.5 33t-39.5 13t-39.5 -13t-11.5 -33t11.5 -33t39.5 -13z" />
    <glyph glyph-name="uni030B" unicode="&#x30b;" 
d="M37 556q-11 0 -6 11l51 120q3 8 11 8h67q12 0 5 -12l-63 -120q-4 -7 -11 -7h-54zM171 556q-11 0 -6 11l51 120q3 8 11 8h67q12 0 5 -12l-63 -120q-4 -7 -11 -7h-54z" />
    <glyph glyph-name="uni030C" unicode="&#x30c;" 
d="M153 552l-116 66q-7 4 -7 13v51q0 10 11 4l119 -59l119 59q11 6 11 -4v-51q0 -9 -7 -13l-116 -66q-7 -5 -14 0z" />
    <glyph glyph-name="uni0312" unicode="&#x312;" 
d="M79 563q-26 0 -37.5 11t-11.5 30v18q0 14 2 26t6 24l20 60q2 6 10 6h36q8 0 6 -9l-16 -67q16 -5 22.5 -15t6.5 -26v-17q0 -19 -12 -30t-32 -11z" />
    <glyph glyph-name="uni0313" unicode="&#x313;" 
d="M49 546q-7 0 -6 9l16 67q-16 5 -22.5 15t-6.5 26v17q0 19 12 30t32 11q26 0 37.5 -11t11.5 -30v-18q0 -13 -2 -25.5t-6 -24.5l-20 -60q-2 -6 -10 -6h-36z" />
    <glyph glyph-name="uni0324" unicode="&#x324;" 
d="M82 -167q-28 0 -40 14.5t-12 36.5v10q0 23 12 37t40 14t40 -14t12 -37v-10q0 -22 -12 -36.5t-40 -14.5zM251 -167q-28 0 -40 14.5t-12 36.5v10q0 23 12 37t40 14t40 -14t12 -37v-10q0 -22 -12 -36.5t-40 -14.5z" />
    <glyph glyph-name="uni0325" unicode="&#x325;" 
d="M141 -221q-50 0 -80.5 25t-30.5 71q0 47 30 71.5t81 24.5q50 0 80.5 -24.5t30.5 -71.5q0 -46 -30 -71t-81 -25zM141 -171q28 0 39.5 13t11.5 33t-11.5 33t-39.5 13t-39.5 -13t-11.5 -33t11.5 -33t39.5 -13z" />
    <glyph glyph-name="uni0326" unicode="&#x326;" 
d="M49 -231q-7 0 -6 9l16 67q-16 5 -22.5 15t-6.5 26v17q0 19 12 30t32 11q26 0 37.5 -11t11.5 -30v-18q0 -13 -2 -25.5t-6 -24.5l-20 -60q-2 -6 -10 -6h-36z" />
    <glyph glyph-name="uni0327" unicode="&#x327;" 
d="M79 -197q-10 0 -20 1t-21 3q-8 1 -8 8v37q0 8 8 7q7 -1 15 -1.5t13 -0.5q22 0 31.5 7t9.5 17v13q0 15 -8.5 20.5t-25.5 5.5h-23q-7 0 -7 7q0 5 0.5 10.5t1.5 9.5l23 75q2 6 9 6h48q8 0 5 -11l-18 -58h9q26 0 39.5 -17.5t13.5 -46.5v-15q0 -40 -23.5 -58.5t-71.5 -18.5z
" />
    <glyph glyph-name="uni0328" unicode="&#x328;" 
d="M129 -197q-51 0 -75 22.5t-24 58.5v12q0 41 30 75.5t80 51.5l20 -11v-11q-28 -14 -43 -38t-15 -50v-10q0 -37 41 -37h13.5t11.5 1q9 1 9 -7v-44q0 -4 -1.5 -6.5t-6.5 -3.5q-10 -1 -20.5 -2t-19.5 -1z" />
    <glyph glyph-name="uni0330" unicode="&#x330;" 
d="M210 -189q-20 0 -36 6.5t-31.5 12.5t-34.5 6q-17 0 -36 -7t-30 -12q-12 -5 -12 6v47q0 9 6 13q9 7 28.5 16t45.5 9q25 0 41.5 -6t30 -12.5t30.5 -6.5t36 7t30 12q12 5 12 -6v-47q0 -8 -6 -13q-9 -7 -28.5 -16t-45.5 -9z" />
    <glyph glyph-name="uni0331" unicode="&#x331;" 
d="M40 -186q-10 0 -10 10v52q0 10 10 10h195q10 0 10 -10v-52q0 -10 -10 -10h-195z" />
    <glyph glyph-name="uni0335" unicode="&#x335;" 
d="M40 233q-10 0 -10 10v45q0 10 10 10h330q10 0 10 -10v-45q0 -10 -10 -10h-330z" />
    <glyph glyph-name="uni0336" unicode="&#x336;" 
d="M40 233q-10 0 -10 10v45q0 10 10 10h720q10 0 10 -10v-45q0 -10 -10 -10h-720z" />
    <glyph glyph-name="tonos" unicode="&#x384;" horiz-adv-x="174" 
d="M37 546q-9 0 -7 10l30 130q2 9 11 9h65q10 0 7 -11l-47 -130q-3 -8 -11 -8h-48z" />
    <glyph glyph-name="dieresistonos" unicode="&#x385;" horiz-adv-x="320" 
d="M133 715q-10 0 -8 11l22 119q2 9 10 9h66q5 0 7 -3t0 -8l-38 -119q-3 -9 -11 -9h-48zM82 573q-28 0 -40 14.5t-12 36.5v10q0 23 12 37t40 14t40 -14t12 -37v-10q0 -22 -12 -36.5t-40 -14.5zM238 573q-28 0 -40 14.5t-12 36.5v10q0 23 12 37t40 14t40 -14t12 -37v-10
q0 -22 -12 -36.5t-40 -14.5z" />
    <glyph glyph-name="Alphatonos" unicode="&#x386;" horiz-adv-x="560" 
d="M9 0q-11 0 -8 11l221 636q3 8 12 8h89q9 0 12 -8l224 -636q3 -11 -8 -11h-71q-9 0 -12 8l-150 450l-20 60t-21 60h-1q-10 -29 -20 -58.5t-20 -58.5l-148 -453q-3 -8 -12 -8h-67zM120 153l21 74h272l22 -74h-315zM51 516q-9 0 -7 10l22 121q1 8 10 8h67q9 0 6 -11
l-38 -120q-3 -8 -11 -8h-49z" />
    <glyph glyph-name="anoteleia" unicode="&#x387;" horiz-adv-x="232" 
d="M116 356q-30 0 -43 15.5t-13 40.5v10q0 25 13 40.5t43 15.5t43 -15.5t13 -40.5v-10q0 -25 -13 -40.5t-43 -15.5z" />
    <glyph glyph-name="Epsilontonos" unicode="&#x388;" horiz-adv-x="602" 
d="M164 0q-10 0 -10 10v635q0 10 10 10h356q10 0 10 -10v-57q0 -10 -10 -10h-281v-208h257q10 0 10 -10v-54q0 -10 -10 -10h-257v-219h281q10 0 10 -10v-57q0 -10 -10 -10h-356zM7 516q-9 0 -7 10l22 121q1 8 10 8h67q9 0 6 -11l-38 -120q-3 -8 -11 -8h-49z" />
    <glyph glyph-name="Etatonos" unicode="&#x389;" horiz-adv-x="730" 
d="M164 0q-10 0 -10 10v635q0 10 10 10h65q10 0 10 -10v-270h321v270q0 10 10 10h65q10 0 10 -10v-635q0 -10 -10 -10h-65q-10 0 -10 10v291h-321v-291q0 -10 -10 -10h-65zM7 516q-9 0 -7 10l22 121q1 8 10 8h67q9 0 6 -11l-38 -120q-3 -8 -11 -8h-49z" />
    <glyph glyph-name="Iotatonos" unicode="&#x38a;" horiz-adv-x="324" 
d="M164 0q-10 0 -10 10v635q0 10 10 10h65q10 0 10 -10v-635q0 -10 -10 -10h-65zM7 516q-9 0 -7 10l22 121q1 8 10 8h67q9 0 6 -11l-38 -120q-3 -8 -11 -8h-49z" />
    <glyph glyph-name="Omicrontonos" unicode="&#x38c;" horiz-adv-x="670" 
d="M349 -12q-125 0 -186.5 61.5t-61.5 173.5v209q0 113 61.5 174t186.5 61t186.5 -61t61.5 -174v-209q0 -112 -61.5 -173.5t-186.5 -61.5zM349 63q80 0 121.5 41t41.5 120v207q0 80 -41.5 120.5t-121.5 40.5q-79 0 -121 -40.5t-42 -120.5v-207q0 -79 42 -120t121 -41zM7 516
q-9 0 -7 10l22 121q1 8 10 8h67q9 0 6 -11l-38 -120q-3 -8 -11 -8h-49z" />
    <glyph glyph-name="Upsilontonos" unicode="&#x38e;" horiz-adv-x="661" 
d="M361 0q-10 0 -10 10v215l-214 418q-2 5 0 8.5t7 3.5h76q9 0 12 -7l110 -226q13 -26 26 -53.5t26 -53.5h1q14 28 27 55t26 55l109 223q3 7 12 7h74q5 0 7 -3.5t0 -8.5l-214 -418v-215q0 -10 -10 -10h-65zM7 516q-9 0 -7 10l22 121q1 8 10 8h67q9 0 6 -11l-38 -120
q-3 -8 -11 -8h-49z" />
    <glyph glyph-name="Omegatonos" unicode="&#x38f;" horiz-adv-x="670" 
d="M100 0q-10 0 -10 10v60q0 10 10 10h80v2q-31 20 -48 42t-24 50.5t-7 66.5v191q0 113 61.5 174t186.5 61t186.5 -61t61.5 -174v-191q0 -38 -7 -66.5t-24 -50.5t-48 -42v-2h80q10 0 10 -10v-60q0 -10 -10 -10h-206q-10 0 -10 10v57q0 10 10 10q36 0 63 17.5t42 50t15 76.5
v211q0 80 -41.5 120t-121.5 40q-79 0 -121 -40t-42 -120v-211q0 -66 33 -105t87 -39q10 0 10 -10v-57q0 -10 -10 -10h-206zM7 516q-9 0 -7 10l22 121q1 8 10 8h67q9 0 6 -11l-38 -120q-3 -8 -11 -8h-49z" />
    <glyph glyph-name="iotadieresistonos" unicode="&#x390;" horiz-adv-x="328" 
d="M229 -12q-54 0 -88 14t-50 43.5t-16 77.5v355q0 10 10 10h65q10 0 10 -10v-359q0 -32 16.5 -45t54.5 -13q19 0 34 2.5t31 5.5q12 2 12 -10v-52q0 -7 -9 -10q-14 -4 -33.5 -6.5t-36.5 -2.5zM91 715q-10 0 -8 11l22 119q2 9 10 9h66q5 0 7 -3t0 -8l-38 -119q-3 -9 -11 -9
h-48zM40 573q-28 0 -40 14.5t-12 36.5v10q0 23 12 37t40 14t40 -14t12 -37v-10q0 -22 -12 -36.5t-40 -14.5zM196 573q-28 0 -40 14.5t-12 36.5v10q0 23 12 37t40 14t40 -14t12 -37v-10q0 -22 -12 -36.5t-40 -14.5z" />
    <glyph glyph-name="Alpha" unicode="&#x391;" horiz-adv-x="560" 
d="M9 0q-11 0 -8 11l221 636q3 8 12 8h89q9 0 12 -8l224 -636q3 -11 -8 -11h-71q-9 0 -12 8l-150 450l-20 60t-21 60h-1q-10 -29 -20 -58.5t-20 -58.5l-148 -453q-3 -8 -12 -8h-67zM120 153l21 74h272l22 -74h-315z" />
    <glyph glyph-name="Beta" unicode="&#x392;" horiz-adv-x="573" 
d="M95 0q-10 0 -10 10v635q0 10 10 10h178q114 0 170.5 -40.5t56.5 -123.5q0 -54 -26 -87.5t-85 -55.5v-2q70 -13 104.5 -55t34.5 -111q0 -92 -61.5 -136t-192.5 -44h-179zM170 74h103q92 0 131 26t39 86q0 62 -39.5 90.5t-127.5 28.5h-106v-231zM170 374h99q76 0 111 25.5
t35 80.5q0 56 -35.5 79t-119.5 23h-90v-208z" />
    <glyph glyph-name="Gamma" unicode="&#x393;" horiz-adv-x="475" 
d="M95 0q-10 0 -10 10v635q0 10 10 10h340q10 0 10 -10v-57q0 -10 -10 -10h-265v-568q0 -10 -10 -10h-65z" />
    <glyph glyph-name="uni0394" unicode="&#x394;" horiz-adv-x="557" 
d="M25 0q-10 0 -10 10v39q0 3 0.5 6t1.5 6l204 586q3 8 12 8h90q8 0 11 -8l206 -584q1 -3 1.5 -6t0.5 -6v-41q0 -10 -10 -10h-507zM109 76h336l-136 407q-8 24 -16.5 47.5t-16.5 47.5h-1q-8 -24 -16.5 -48.5t-16.5 -48.5z" />
    <glyph glyph-name="Epsilon" unicode="&#x395;" horiz-adv-x="533" 
d="M95 0q-10 0 -10 10v635q0 10 10 10h356q10 0 10 -10v-57q0 -10 -10 -10h-281v-208h257q10 0 10 -10v-54q0 -10 -10 -10h-257v-219h281q10 0 10 -10v-57q0 -10 -10 -10h-356z" />
    <glyph glyph-name="Zeta" unicode="&#x396;" horiz-adv-x="545" 
d="M30 0q-10 0 -10 9v2q0 5 4 13l298 455q16 25 32 49.5t33 49.5v1q-28 -1 -57 -1h-58h-209q-10 0 -10 10v57q0 10 10 10h449q10 0 10 -9v-2q0 -5 -4 -13l-294 -445q-18 -28 -35.5 -55t-36.5 -54v-1q33 1 66 1h66h205q10 0 10 -10v-57q0 -10 -10 -10h-459z" />
    <glyph glyph-name="Eta" unicode="&#x397;" horiz-adv-x="661" 
d="M95 0q-10 0 -10 10v635q0 10 10 10h65q10 0 10 -10v-270h321v270q0 10 10 10h65q10 0 10 -10v-635q0 -10 -10 -10h-65q-10 0 -10 10v291h-321v-291q0 -10 -10 -10h-65z" />
    <glyph glyph-name="Theta" unicode="&#x398;" horiz-adv-x="642" 
d="M238 296q-10 0 -10 10v54q0 10 10 10h166q10 0 10 -10v-54q0 -10 -10 -10h-166zM321 -12q-125 0 -186.5 61.5t-61.5 173.5v209q0 113 61.5 174t186.5 61t186.5 -61t61.5 -174v-209q0 -112 -61.5 -173.5t-186.5 -61.5zM321 63q80 0 121.5 41t41.5 120v207
q0 80 -41.5 120.5t-121.5 40.5q-79 0 -121 -40.5t-42 -120.5v-207q0 -79 42 -120t121 -41z" />
    <glyph glyph-name="Iota" unicode="&#x399;" horiz-adv-x="255" 
d="M95 0q-10 0 -10 10v635q0 10 10 10h65q10 0 10 -10v-635q0 -10 -10 -10h-65z" />
    <glyph glyph-name="Kappa" unicode="&#x39a;" horiz-adv-x="576" 
d="M480 0q-8 0 -13 6l-282 317q-7 7 0 14l273 312q5 6 13 6h79q6 0 8.5 -3.5t-2.5 -8.5l-273 -307l290 -324q5 -5 2.5 -8.5t-8.5 -3.5h-87zM95 0q-10 0 -10 10v635q0 10 10 10h65q10 0 10 -10v-635q0 -10 -10 -10h-65z" />
    <glyph glyph-name="Lambda" unicode="&#x39b;" horiz-adv-x="554" 
d="M9 0q-11 0 -8 11l218 636q3 8 12 8h89q9 0 12 -8l221 -636q3 -11 -8 -11h-71q-9 0 -12 8l-148 450l-20 60l-20 60h-1q-10 -29 -19 -59t-19 -59l-147 -452q-3 -8 -12 -8h-67z" />
    <glyph glyph-name="Mu" unicode="&#x39c;" horiz-adv-x="769" 
d="M80 0q-10 0 -10 10l14 635q0 10 10 10h106q7 0 11 -8l175 -393l172 393q4 8 11 8h106q10 0 10 -10l14 -635q0 -10 -10 -10h-63q-10 0 -10 10l-10 402q-1 37 0.5 73t2.5 73h-2q-15 -37 -30.5 -73t-32.5 -73l-148 -321q-3 -7 -11 -7h-2q-8 0 -11 7l-150 326
q-16 35 -30.5 70.5t-28.5 70.5h-2q2 -35 2.5 -71t-0.5 -71l-10 -406q0 -10 -10 -10h-63z" />
    <glyph glyph-name="Nu" unicode="&#x39d;" horiz-adv-x="662" 
d="M95 0q-10 0 -10 10v635q0 10 10 10h116q9 0 12 -7l188 -382q19 -37 33.5 -67t26 -56t21.5 -51h2v58.5t-0.5 61.5t-0.5 58v375q0 10 10 10h64q10 0 10 -10v-635q0 -10 -10 -10h-113q-9 0 -12 7l-185 372q-16 33 -31 63.5t-29 60.5t-27 60h-2q0 -34 0.5 -65t0.5 -61.5
v-65.5v-361q0 -10 -10 -10h-64z" />
    <glyph glyph-name="Xi" unicode="&#x39e;" horiz-adv-x="565" 
d="M70 573q-10 0 -10 10v62q0 10 10 10h425q10 0 10 -10v-62q0 -10 -10 -10h-425zM70 0q-10 0 -10 10v62q0 10 10 10h425q10 0 10 -10v-62q0 -10 -10 -10h-425zM149 292q-10 0 -10 10v62q0 10 10 10h266q10 0 10 -10v-62q0 -10 -10 -10h-266z" />
    <glyph glyph-name="Omicron" unicode="&#x39f;" horiz-adv-x="642" 
d="M321 -12q-125 0 -186.5 61.5t-61.5 173.5v209q0 113 61.5 174t186.5 61t186.5 -61t61.5 -174v-209q0 -112 -61.5 -173.5t-186.5 -61.5zM321 63q80 0 121.5 41t41.5 120v207q0 80 -41.5 120.5t-121.5 40.5q-79 0 -121 -40.5t-42 -120.5v-207q0 -79 42 -120t121 -41z" />
    <glyph glyph-name="Pi" unicode="&#x3a0;" horiz-adv-x="660" 
d="M95 0q-10 0 -10 10v635q0 10 10 10h470q10 0 10 -10v-635q0 -10 -10 -10h-65q-10 0 -10 10v568h-320v-568q0 -10 -10 -10h-65z" />
    <glyph glyph-name="Rho" unicode="&#x3a1;" horiz-adv-x="545" 
d="M95 0q-10 0 -10 10v635q0 10 10 10h167q121 0 182 -51.5t61 -152.5q0 -100 -61.5 -152t-181.5 -52h-92v-237q0 -10 -10 -10h-65zM170 319h90q84 0 122 31.5t38 97.5q0 71 -39.5 103t-122.5 32h-88v-264z" />
    <glyph glyph-name="Sigma" unicode="&#x3a3;" horiz-adv-x="524" 
d="M50 0q-10 0 -10 10v50q0 5 5 12l216 258l-216 253q-5 7 -5 12v50q0 10 10 10h429q10 0 10 -10v-57q0 -10 -10 -10h-230q-25 0 -51.5 1t-51.5 1v-2q20 -22 38.5 -43t37.5 -43l115 -134q5 -7 5 -12v-31q0 -5 -5 -12l-110 -128q-21 -25 -42 -49t-44 -49v-2q29 1 59 1.5
t59 0.5h220q10 0 10 -10v-57q0 -10 -10 -10h-429z" />
    <glyph glyph-name="Tau" unicode="&#x3a4;" horiz-adv-x="535" 
d="M235 0q-10 0 -10 10v568h-180q-10 0 -10 10v57q0 10 10 10h445q10 0 10 -10v-57q0 -10 -10 -10h-180v-568q0 -10 -10 -10h-65z" />
    <glyph glyph-name="Upsilon" unicode="&#x3a5;" horiz-adv-x="535" 
d="M235 0q-10 0 -10 10v215l-214 418q-2 5 0 8.5t7 3.5h76q9 0 12 -7l110 -226q13 -26 26 -53.5t26 -53.5h1q14 28 27 55t26 55l109 223q3 7 12 7h74q5 0 7 -3.5t0 -8.5l-214 -418v-215q0 -10 -10 -10h-65z" />
    <glyph glyph-name="Phi" unicode="&#x3a6;" horiz-adv-x="808" 
d="M319 66q-89 0 -143 24t-78.5 75.5t-24.5 132.5v87q0 81 24.5 132.5t78.5 75.5t143 24h170q84 0 138.5 -22t81 -72.5t26.5 -137.5v-87q0 -86 -26.5 -137t-81 -73t-138.5 -22h-170zM319 137h170q81 0 121 31t40 119v109q0 88 -40 119t-121 31h-170q-83 0 -122 -32t-39 -118
v-109q0 -85 39 -117.5t122 -32.5zM372 -13q-10 0 -10 10v94l2 26v449l-2 26v94q0 10 10 10h65q10 0 10 -10v-92l-2 -27v-451l2 -27v-92q0 -10 -10 -10h-65z" />
    <glyph glyph-name="Chi" unicode="&#x3a7;" horiz-adv-x="551" 
d="M13 0q-6 0 -7.5 3.5t1.5 8.5l214 326l-200 305q-3 5 -1.5 8.5t7.5 3.5h80q7 0 11 -6l113 -173q11 -18 23.5 -37.5t23.5 -37.5h1q12 20 24.5 40t25.5 39l109 169q5 6 12 6h76q6 0 7.5 -3.5t-1.5 -8.5l-199 -307l211 -324q3 -5 1.5 -8.5t-7.5 -3.5h-80q-7 0 -12 6l-119 183
q-13 20 -26.5 41.5t-25.5 41.5h-1q-12 -19 -25 -40t-26 -41l-119 -184q-5 -7 -12 -7h-79z" />
    <glyph glyph-name="Psi" unicode="&#x3a8;" horiz-adv-x="790" 
d="M264 166q-63 0 -105 21t-63 61.5t-21 99.5v297q0 10 10 10h65q10 0 10 -10v-307q0 -49 28.5 -73t75.5 -24h262q48 0 76 24.5t28 72.5v307q0 10 10 10h65q10 0 10 -10v-297q0 -58 -21 -99t-63 -62t-105 -21h-262zM364 0q-10 0 -10 10v635q0 10 10 10h63q10 0 10 -10v-635
q0 -10 -10 -10h-63z" />
    <glyph glyph-name="uni03A9" unicode="&#x3a9;" horiz-adv-x="642" 
d="M72 0q-10 0 -10 10v60q0 10 10 10h80v2q-31 20 -48 42t-24 50.5t-7 66.5v191q0 113 61.5 174t186.5 61t186.5 -61t61.5 -174v-191q0 -38 -7 -66.5t-24 -50.5t-48 -42v-2h80q10 0 10 -10v-60q0 -10 -10 -10h-206q-10 0 -10 10v57q0 10 10 10q36 0 63 17.5t42 50t15 76.5
v211q0 80 -41.5 120t-121.5 40q-79 0 -121 -40t-42 -120v-211q0 -66 33 -105t87 -39q10 0 10 -10v-57q0 -10 -10 -10h-206z" />
    <glyph glyph-name="Iotadieresis" unicode="&#x3aa;" horiz-adv-x="255" 
d="M95 0q-10 0 -10 10v635q0 10 10 10h65q10 0 10 -10v-635q0 -10 -10 -10h-65zM44 711q-28 0 -40 14.5t-12 36.5v10q0 23 12 37t40 14t40 -14t12 -37v-10q0 -22 -12 -36.5t-40 -14.5zM212 711q-28 0 -40 14.5t-12 36.5v10q0 23 12 37t40 14t40 -14t12 -37v-10
q0 -22 -12 -36.5t-40 -14.5z" />
    <glyph glyph-name="Upsilondieresis" unicode="&#x3ab;" horiz-adv-x="535" 
d="M235 0q-10 0 -10 10v215l-214 418q-2 5 0 8.5t7 3.5h76q9 0 12 -7l110 -226q13 -26 26 -53.5t26 -53.5h1q14 28 27 55t26 55l109 223q3 7 12 7h74q5 0 7 -3.5t0 -8.5l-214 -418v-215q0 -10 -10 -10h-65zM184 711q-28 0 -40 14.5t-12 36.5v10q0 23 12 37t40 14t40 -14
t12 -37v-10q0 -22 -12 -36.5t-40 -14.5zM352 711q-28 0 -40 14.5t-12 36.5v10q0 23 12 37t40 14t40 -14t12 -37v-10q0 -22 -12 -36.5t-40 -14.5z" />
    <glyph glyph-name="alphatonos" unicode="&#x3ac;" horiz-adv-x="553" 
d="M207 -12q-70 0 -107.5 47t-37.5 139v125q0 95 48 148t133 53q41 0 83 -16.5t64 -33.5l5 -73q-32 20 -69 34t-68 14q-56 0 -83.5 -34t-27.5 -102v-120q0 -53 20.5 -79.5t61.5 -26.5q25 0 49 9.5t53 32t68 61.5l-2 -78q-34 -34 -64.5 -56.5t-61 -33t-64.5 -10.5zM494 -12
q-53 0 -80.5 21.5t-27.5 72.5v20l-6 32v263l5 33v48q0 10 10 10h60q10 0 10 -10v-362q0 -35 9 -45t31 -10q7 0 15.5 1.5t16.5 1.5q11 0 11 -10v-52q0 -4 -2 -6.5t-7 -3.5q-10 -1 -23 -2.5t-22 -1.5zM225 546q-9 0 -7 10l30 130q2 9 11 9h65q10 0 7 -11l-47 -130
q-3 -8 -11 -8h-48z" />
    <glyph glyph-name="epsilontonos" unicode="&#x3ad;" horiz-adv-x="491" 
d="M248 -12q-89 0 -140.5 35.5t-51.5 99.5q0 44 21 78t73 44v2q-37 13 -60 45t-23 75q0 68 45 100.5t136 32.5t142 -36.5t46 -93.5q-1 -17 -13 -17h-66q-9 0 -9 15q0 29 -25.5 44t-76.5 15q-45 0 -71.5 -17.5t-26.5 -52.5q0 -39 29.5 -57.5t93.5 -18.5h58q10 0 10 -10v-47
q0 -10 -10 -10h-77q-62 0 -86.5 -22t-24.5 -66q0 -31 28 -48t83 -17q51 0 77.5 15t26.5 44q0 15 9 15h66q11 0 12 -18q6 -58 -45 -93.5t-150 -35.5zM208 546q-9 0 -7 10l30 130q2 9 11 9h65q10 0 7 -11l-47 -130q-3 -8 -11 -8h-48z" />
    <glyph glyph-name="etatonos" unicode="&#x3ae;" horiz-adv-x="574" 
d="M424 -185q-10 0 -10 10v504q0 50 -20.5 73t-61.5 23q-39 0 -77 -23t-95 -79l1 77q34 36 64.5 58t61 32t64.5 10q72 0 110 -42t38 -125v-508q0 -10 -10 -10h-65zM104 0q-10 0 -10 10v369q0 31 -8 39.5t-28 8.5q-7 0 -15.5 -1t-16.5 -1q-11 0 -11 10v51q0 5 2.5 7t6.5 3
q14 2 30 3t26 1q44 0 69 -21.5t25 -60.5v-19l5 -44v-345q0 -10 -10 -10h-65zM253 546q-9 0 -7 10l30 130q2 9 11 9h65q10 0 7 -11l-47 -130q-3 -8 -11 -8h-48z" />
    <glyph glyph-name="iotatonos" unicode="&#x3af;" horiz-adv-x="328" 
d="M229 -12q-54 0 -88 14t-50 43.5t-16 77.5v355q0 10 10 10h65q10 0 10 -10v-359q0 -32 16.5 -45t54.5 -13q19 0 34 2.5t31 5.5q12 2 12 -10v-52q0 -7 -9 -10q-14 -4 -33.5 -6.5t-36.5 -2.5zM84 546q-9 0 -7 10l30 130q2 9 11 9h65q10 0 7 -11l-47 -130q-3 -8 -11 -8h-48z
" />
    <glyph glyph-name="upsilondieresistonos" unicode="&#x3b0;" horiz-adv-x="555" 
d="M290 -12q-68 0 -111.5 21.5t-64 62t-20.5 98.5v209q0 31 -8 39.5t-28 8.5q-7 0 -15.5 -1t-16.5 -1q-11 0 -11 10v51q0 5 2.5 7t6.5 3q14 2 30 3t27 1q44 0 71.5 -23t27.5 -70v-247q0 -48 30 -72.5t80 -24.5q49 0 78.5 26t29.5 81v63q0 75 -6 137.5t-12 106.5q-2 11 9 11
h65q10 0 11 -9q7 -40 12.5 -97.5t5.5 -125.5v-76q0 -63 -21 -106t-64 -64.5t-108 -21.5zM243 715q-10 0 -8 11l22 119q2 9 10 9h66q5 0 7 -3t0 -8l-38 -119q-3 -9 -11 -9h-48zM192 573q-28 0 -40 14.5t-12 36.5v10q0 23 12 37t40 14t40 -14t12 -37v-10q0 -22 -12 -36.5
t-40 -14.5zM348 573q-28 0 -40 14.5t-12 36.5v10q0 23 12 37t40 14t40 -14t12 -37v-10q0 -22 -12 -36.5t-40 -14.5z" />
    <glyph glyph-name="alpha" unicode="&#x3b1;" horiz-adv-x="553" 
d="M207 -12q-70 0 -107.5 47t-37.5 139v125q0 95 48 148t133 53q41 0 83 -16.5t64 -33.5l5 -73q-32 20 -69 34t-68 14q-56 0 -83.5 -34t-27.5 -102v-120q0 -53 20.5 -79.5t61.5 -26.5q25 0 49 9.5t53 32t68 61.5l-2 -78q-34 -34 -64.5 -56.5t-61 -33t-64.5 -10.5zM494 -12
q-53 0 -80.5 21.5t-27.5 72.5v20l-6 32v263l5 33v48q0 10 10 10h60q10 0 10 -10v-362q0 -35 9 -45t31 -10q7 0 15.5 1.5t16.5 1.5q11 0 11 -10v-52q0 -4 -2 -6.5t-7 -3.5q-10 -1 -23 -2.5t-22 -1.5z" />
    <glyph glyph-name="beta" unicode="&#x3b2;" horiz-adv-x="544" 
d="M85 -185q-10 0 -10 10v695q0 86 48 130.5t144 44.5q87 0 131 -36.5t44 -109.5v-32q0 -51 -18 -78.5t-48 -43.5v-2q53 -13 80.5 -49t27.5 -98v-91q0 -80 -44 -123.5t-133 -43.5q-45 0 -88 13.5t-70 26.5l-2 78q29 -21 69 -32t75 -11q55 0 81.5 26t26.5 78v67
q0 40 -9.5 63.5t-27.5 34t-46 10.5h-75q-10 0 -10 10v50q0 10 8 10h8q46 0 70 7.5t32.5 28.5t8.5 63v18q0 48 -23.5 70.5t-70.5 22.5q-51 0 -77.5 -25t-26.5 -73v-699q0 -10 -10 -10h-65z" />
    <glyph glyph-name="gamma" unicode="&#x3b3;" horiz-adv-x="504" 
d="M229 -185q-10 0 -10 10v133q-6 56 -22.5 125t-38 139.5t-43.5 128.5q-13 35 -24 51.5t-22.5 22t-27.5 5.5q-8 0 -17 -0.5t-18 -2.5q-11 -2 -11 9v49q0 9 8 11q11 2 22.5 3t22.5 1q41 0 69 -11.5t48 -43t37 -93.5q8 -27 15.5 -53.5t14.5 -53.5q7 -24 13 -47.5t11.5 -47.5
t9.5 -48h2q13 37 27 73t28 73l90 232q3 8 11 8h71q13 0 8 -12l-199 -479v-172q0 -10 -10 -10h-65z" />
    <glyph glyph-name="delta" unicode="&#x3b4;" horiz-adv-x="536" 
d="M268 -12q-101 0 -153.5 49t-52.5 149v65q0 40 10 72t34.5 58t67 47t106.5 39l43 -41q-60 -23 -95 -43t-52.5 -40t-23 -45t-5.5 -59v-45q0 -66 28.5 -98.5t92.5 -32.5t92.5 32.5t28.5 98.5v57q0 41 -8.5 68.5t-32 52.5t-68.5 60l-115 90q-34 26 -45.5 47.5t-11.5 44.5
q0 31 27 50t87 19h218q10 0 10 -10v-50q0 -10 -10 -10h-223q-24 0 -24 -12q0 -7 9.5 -15.5t27.5 -22.5l124 -99q33 -27 56 -51t37 -49t20.5 -54t6.5 -66v-58q0 -100 -52 -149t-154 -49z" />
    <glyph glyph-name="epsilon" unicode="&#x3b5;" horiz-adv-x="491" 
d="M248 -12q-89 0 -140.5 35.5t-51.5 99.5q0 44 21 78t73 44v2q-37 13 -60 45t-23 75q0 68 45 100.5t136 32.5t142 -36.5t46 -93.5q-1 -17 -13 -17h-66q-9 0 -9 15q0 29 -25.5 44t-76.5 15q-45 0 -71.5 -17.5t-26.5 -52.5q0 -39 29.5 -57.5t93.5 -18.5h58q10 0 10 -10v-47
q0 -10 -10 -10h-77q-62 0 -86.5 -22t-24.5 -66q0 -31 28 -48t83 -17q51 0 77.5 15t26.5 44q0 15 9 15h66q11 0 12 -18q6 -58 -45 -93.5t-150 -35.5z" />
    <glyph glyph-name="zeta" unicode="&#x3b6;" horiz-adv-x="433" 
d="M346 -130q-10 0 -10 10v81q0 15 -5 23.5t-17.5 12t-37.5 3.5h-24q-105 0 -156 47t-51 135q0 49 17.5 102t52.5 107.5t87 107.5l112 114h-254q-10 0 -10 10v50q0 10 10 10h343q10 0 10 -10v-43q0 -5 -5 -12l-123 -134q-54 -58 -88 -112.5t-50.5 -104.5t-16.5 -96
q0 -55 34.5 -78t105.5 -23q64 0 95.5 -6.5t42 -25t10.5 -55.5v-103q0 -10 -10 -10h-62z" />
    <glyph glyph-name="eta" unicode="&#x3b7;" horiz-adv-x="574" 
d="M424 -185q-10 0 -10 10v504q0 50 -20.5 73t-61.5 23q-39 0 -77 -23t-95 -79l1 77q34 36 64.5 58t61 32t64.5 10q72 0 110 -42t38 -125v-508q0 -10 -10 -10h-65zM104 0q-10 0 -10 10v369q0 31 -8 39.5t-28 8.5q-7 0 -15.5 -1t-16.5 -1q-11 0 -11 10v51q0 5 2.5 7t6.5 3
q14 2 30 3t26 1q44 0 69 -21.5t25 -60.5v-19l5 -44v-345q0 -10 -10 -10h-65z" />
    <glyph glyph-name="theta" unicode="&#x3b8;" horiz-adv-x="566" 
d="M283 695q107 0 157.5 -48t50.5 -134v-343q0 -85 -50.5 -133.5t-157.5 -48.5q-106 0 -157 48.5t-51 133.5v343q0 86 51 134t157 48zM283 620q-58 0 -90.5 -26.5t-32.5 -77.5v-124h246v125q0 51 -32.5 77t-90.5 26zM283 63q58 0 90.5 26.5t32.5 77.5v155h-246v-155
q0 -51 32.5 -77.5t90.5 -26.5z" />
    <glyph glyph-name="iota" unicode="&#x3b9;" horiz-adv-x="328" 
d="M229 -12q-54 0 -88 14t-50 43.5t-16 77.5v355q0 10 10 10h65q10 0 10 -10v-359q0 -32 16.5 -45t54.5 -13q19 0 34 2.5t31 5.5q12 2 12 -10v-52q0 -7 -9 -10q-14 -4 -33.5 -6.5t-36.5 -2.5z" />
    <glyph glyph-name="kappa" unicode="&#x3ba;" horiz-adv-x="481" 
d="M383 0q-7 0 -12 5l-191 237q-6 8 0 16l182 225q4 5 12 5h82q6 0 8 -3.5t-3 -8.5l-185 -221l202 -243q5 -5 2.5 -8.5t-8.5 -3.5h-89zM85 0q-10 0 -10 10v468q0 10 10 10h65q10 0 10 -10v-468q0 -10 -10 -10h-65z" />
    <glyph glyph-name="lambda" unicode="&#x3bb;" horiz-adv-x="514" 
d="M471 -12q-39 0 -64 12t-42.5 41t-34.5 80l-32 99q-14 44 -26.5 85.5t-26.5 89.5h-1q-17 -48 -34 -89.5t-34 -85.5l-83 -212q-3 -8 -11 -8h-69q-12 0 -7 12l183 448q3 8 11 8h17l-33 96q-13 38 -29 48t-39 10q-10 0 -19.5 -0.5t-20.5 -2.5t-11 9v52q0 10 9 11q12 2 26.5 3
t27.5 1q37 0 64 -11.5t46.5 -38.5t34.5 -74l142 -449q12 -37 25.5 -48.5t34.5 -11.5q8 0 15 0.5t17 1.5q11 2 11 -9l1 -52q0 -10 -10 -11q-9 -1 -19 -2.5t-19 -1.5z" />
    <glyph glyph-name="uni03BC" unicode="&#x3bc;" horiz-adv-x="555" 
d="M85 -185q-10 0 -10 10v653q0 10 10 10h65q10 0 10 -10v-308q0 -55 20.5 -80.5t55.5 -25.5q36 0 77.5 23.5t68.5 61.5v329q0 10 10 10h65q10 0 10 -10v-362q0 -35 9 -45t31 -10q7 0 15.5 1.5t16.5 1.5q11 0 11 -10v-52q0 -4 -2 -6.5t-7 -3.5q-10 -1 -23 -2.5t-21 -1.5
q-53 0 -79.5 21.5t-26.5 64.5v1q-33 -40 -79 -63.5t-83 -23.5q-46 0 -74 25v-188q0 -10 -10 -10h-60z" />
    <glyph glyph-name="nu" unicode="&#x3bd;" horiz-adv-x="506" 
d="M214 0q-8 0 -11 8l-177 468q-3 12 8 12h69q9 0 12 -8l100 -280q11 -30 21.5 -60.5t20.5 -60.5h1l28 60l28 60l53 112q15 32 24 59.5t9 64.5v43q0 10 10 10h66q10 0 10 -10v-40q0 -41 -12 -80t-35 -86l-129 -265q-3 -7 -12 -7h-84z" />
    <glyph glyph-name="xi" unicode="&#x3be;" horiz-adv-x="448" 
d="M362 -130q-10 0 -10 10v81q0 15 -4 23.5t-14.5 12t-29.5 3.5h-18q-121 0 -175 41t-54 121v38q0 69 28 106.5t86 51.5v2q-43 16 -62 45t-19 69v8q0 47 24.5 80t89.5 51v2q-19 -3 -42.5 -4t-43.5 -1h-58q-10 0 -10 10v53q0 10 10 10h347q10 0 10 -10v-53q0 -10 -7 -10h-8
q-123 0 -176 -28.5t-53 -101.5v-11q0 -40 28 -59.5t87 -19.5h50q5 0 7.5 -2.5t2.5 -7.5v-46q0 -4 -2.5 -7t-7.5 -3h-68q-67 0 -98.5 -23t-31.5 -85v-47q0 -55 37 -75.5t114 -20.5q61 0 91.5 -6.5t40.5 -25.5t10 -55v-106q0 -10 -10 -10h-61z" />
    <glyph glyph-name="omicron" unicode="&#x3bf;" horiz-adv-x="536" 
d="M268 -12q-101 0 -153.5 49t-52.5 149v116q0 100 52 149t154 49q101 0 153.5 -49t52.5 -149v-116q0 -100 -52 -149t-154 -49zM268 63q64 0 92.5 32.5t28.5 98.5v100q0 66 -28.5 98.5t-92.5 32.5t-92.5 -32.5t-28.5 -98.5v-100q0 -66 28.5 -98.5t92.5 -32.5z" />
    <glyph glyph-name="pi" unicode="&#x3c0;" horiz-adv-x="591" 
d="M524 -12q-47 0 -76.5 14t-43 45t-13.5 80v288h-206v-405q0 -10 -10 -10h-65q-10 0 -10 10v405h-70q-10 0 -10 10v53q0 10 10 10h526q10 0 10 -10v-53q0 -10 -10 -10h-80v-298q0 -35 11.5 -47t33.5 -12q11 0 23 0.5t22 1.5q10 2 10 -9v-49q0 -8 -9 -10q-10 -2 -22.5 -3
t-20.5 -1z" />
    <glyph glyph-name="rho" unicode="&#x3c1;" horiz-adv-x="532" 
d="M85 -185q-10 0 -10 10v490q0 90 48.5 137.5t150.5 47.5q103 0 149.5 -45t46.5 -136v-130q0 -97 -46 -149t-133 -52q-36 0 -76.5 10t-65.5 27l-3 72q29 -16 64 -25t63 -9q58 0 85 34t27 102v121q0 55 -27.5 80.5t-83.5 25.5q-54 0 -84 -26.5t-30 -85.5v-489q0 -10 -10 -10
h-65z" />
    <glyph glyph-name="uni03C2" unicode="&#x3c2;" horiz-adv-x="504" 
d="M356 -130q-10 0 -10 10v81q0 16 -4.5 24.5t-17 11.5t-36.5 3h-24q-97 0 -149.5 45t-52.5 134v127q0 94 52.5 144t149.5 50q57 0 98.5 -18t64 -49.5t22.5 -74.5q0 -23 -10 -23h-66q-9 0 -9 16q0 35 -27.5 54.5t-72.5 19.5q-58 0 -87.5 -31.5t-29.5 -95.5v-121
q0 -55 33.5 -79.5t103.5 -24.5q63 0 93.5 -6.5t40.5 -25.5t10 -56v-105q0 -10 -10 -10h-62z" />
    <glyph glyph-name="sigma" unicode="&#x3c3;" horiz-adv-x="555" 
d="M265 -12q-106 0 -154.5 48.5t-48.5 133.5v125q0 94 50 143.5t163 49.5h265q10 0 10 -10v-53q0 -10 -10 -10l-126 5v-1q17 -15 29.5 -34t19 -44.5t6.5 -61.5v-109q0 -85 -49 -133.5t-155 -48.5zM265 63q58 0 88.5 26.5t30.5 77.5v119q0 40 -9 67t-24 43t-34 23h-44
q-57 0 -91.5 -23t-34.5 -89v-140q0 -51 30.5 -77.5t87.5 -26.5z" />
    <glyph glyph-name="tau" unicode="&#x3c4;" horiz-adv-x="500" 
d="M343 -12q-54 0 -88.5 15t-51 48.5t-16.5 87.5v276h-157q-10 0 -10 10v53q0 10 10 10h435q10 0 10 -10v-53q0 -10 -10 -10h-193v-283q0 -38 16.5 -54.5t50.5 -16.5q21 0 39.5 3t34.5 5q11 2 11 -9l2 -51q0 -9 -9 -11q-16 -4 -34 -7t-40 -3z" />
    <glyph glyph-name="upsilon" unicode="&#x3c5;" horiz-adv-x="555" 
d="M290 -12q-68 0 -111.5 21.5t-64 62t-20.5 98.5v209q0 31 -8 39.5t-28 8.5q-7 0 -15.5 -1t-16.5 -1q-11 0 -11 10v51q0 5 2.5 7t6.5 3q14 2 30 3t27 1q44 0 71.5 -23t27.5 -70v-247q0 -48 30 -72.5t80 -24.5q49 0 78.5 26t29.5 81v63q0 75 -6 137.5t-12 106.5q-2 11 9 11
h65q10 0 11 -9q7 -40 12.5 -97.5t5.5 -125.5v-76q0 -63 -21 -106t-64 -64.5t-108 -21.5z" />
    <glyph glyph-name="phi" unicode="&#x3c6;" horiz-adv-x="761" 
d="M348 -185q-10 0 -10 10v175h-72q-97 0 -144 47.5t-47 134.5v296q0 10 10 10h65q10 0 10 -10v-307q0 -49 29 -75t77 -26h72v409q0 8 11 10q35 5 75 8t69 3q62 0 105 -20t65.5 -60t22.5 -102v-136q0 -86 -47 -134t-146 -48h-70v-175q0 -10 -10 -10h-65zM423 70h70
q50 0 79 26t29 75v158q0 50 -29.5 75t-78.5 25q-18 0 -35.5 -0.5t-34.5 -1.5v-357z" />
    <glyph glyph-name="chi" unicode="&#x3c7;" horiz-adv-x="504" 
d="M466 -197q-37 0 -62 14t-45.5 47.5t-44.5 90.5l-26 63q-8 21 -17 42.5t-17 42.5h-2q-10 -21 -20.5 -42.5t-21.5 -42.5l-99 -196q-4 -7 -12 -7h-74q-6 0 -8 3.5t1 8.5l184 334l-105 218q-15 32 -26.5 41.5t-27.5 9.5q-9 0 -16 -0.5t-17 -2.5q-11 -2 -11 9v49q0 10 9 11
q11 2 22.5 3t22.5 1q35 0 58 -13.5t43 -46t45 -91.5l29 -67q6 -15 12.5 -29.5t12.5 -29.5h2q7 14 14 29t14 29l102 200q3 7 12 7h72q14 0 7 -12l-170 -312l98 -210q17 -35 28.5 -52.5t22 -23t23.5 -5.5q3 0 8 0.5t12 1.5q11 2 11 -9v-48q0 -9 -9 -11q-10 -1 -18 -2.5
t-16 -1.5z" />
    <glyph glyph-name="psi" unicode="&#x3c8;" horiz-adv-x="770" 
d="M349 -185q-10 0 -10 10v175h-74q-97 0 -143.5 48.5t-46.5 133.5v296q0 10 10 10h65q10 0 10 -10v-306q0 -49 29 -75t76 -26h74v559q0 10 10 10h63q10 0 10 -10v-559h83q47 0 76 26t29 75v191q0 19 -8.5 37t-46.5 24q-10 2 -10 11v55q0 10 10 10q51 0 81.5 -19.5
t44.5 -52.5t14 -72v-174q0 -85 -46 -133.5t-144 -48.5h-81v-175q0 -10 -10 -10h-65z" />
    <glyph glyph-name="omega" unicode="&#x3c9;" horiz-adv-x="779" 
d="M238 -12q-55 0 -92 18t-55.5 55.5t-18.5 93.5v199q0 40 14 73t45 53t81 20q10 0 10 -10v-55q0 -10 -10 -11q-37 -5 -46 -22.5t-9 -36.5v-195q0 -57 23.5 -80t72.5 -23q44 0 70 24t26 76v168q0 10 10 10h61q10 0 10 -10v-168q0 -52 26.5 -76t69.5 -24q50 0 73 23t23 80
v195q0 19 -8.5 36.5t-46.5 22.5q-10 1 -10 11v55q0 10 10 10q51 0 81.5 -20t44.5 -53t14 -73v-199q0 -56 -18.5 -93.5t-55 -55.5t-90.5 -18q-48 0 -92 22.5t-61 59.5h-1q-15 -32 -56.5 -57t-94.5 -25z" />
    <glyph glyph-name="iotadieresis" unicode="&#x3ca;" horiz-adv-x="328" 
d="M229 -12q-54 0 -88 14t-50 43.5t-16 77.5v355q0 10 10 10h65q10 0 10 -10v-359q0 -32 16.5 -45t54.5 -13q19 0 34 2.5t31 5.5q12 2 12 -10v-52q0 -7 -9 -10q-14 -4 -33.5 -6.5t-36.5 -2.5zM33 570q-28 0 -40 14.5t-12 36.5v10q0 23 12 37t40 14t40 -14t12 -37v-10
q0 -22 -12 -36.5t-40 -14.5zM202 570q-28 0 -40 14.5t-12 36.5v10q0 23 12 37t40 14t40 -14t12 -37v-10q0 -22 -12 -36.5t-40 -14.5z" />
    <glyph glyph-name="upsilondieresis" unicode="&#x3cb;" horiz-adv-x="555" 
d="M290 -12q-68 0 -111.5 21.5t-64 62t-20.5 98.5v209q0 31 -8 39.5t-28 8.5q-7 0 -15.5 -1t-16.5 -1q-11 0 -11 10v51q0 5 2.5 7t6.5 3q14 2 30 3t27 1q44 0 71.5 -23t27.5 -70v-247q0 -48 30 -72.5t80 -24.5q49 0 78.5 26t29.5 81v63q0 75 -6 137.5t-12 106.5q-2 11 9 11
h65q10 0 11 -9q7 -40 12.5 -97.5t5.5 -125.5v-76q0 -63 -21 -106t-64 -64.5t-108 -21.5zM185 570q-28 0 -40 14.5t-12 36.5v10q0 23 12 37t40 14t40 -14t12 -37v-10q0 -22 -12 -36.5t-40 -14.5zM354 570q-28 0 -40 14.5t-12 36.5v10q0 23 12 37t40 14t40 -14t12 -37v-10
q0 -22 -12 -36.5t-40 -14.5z" />
    <glyph glyph-name="omicrontonos" unicode="&#x3cc;" horiz-adv-x="536" 
d="M268 -12q-101 0 -153.5 49t-52.5 149v116q0 100 52 149t154 49q101 0 153.5 -49t52.5 -149v-116q0 -100 -52 -149t-154 -49zM268 63q64 0 92.5 32.5t28.5 98.5v100q0 66 -28.5 98.5t-92.5 32.5t-92.5 -32.5t-28.5 -98.5v-100q0 -66 28.5 -98.5t92.5 -32.5zM234 546
q-9 0 -7 10l30 130q2 9 11 9h65q10 0 7 -11l-47 -130q-3 -8 -11 -8h-48z" />
    <glyph glyph-name="upsilontonos" unicode="&#x3cd;" horiz-adv-x="555" 
d="M290 -12q-68 0 -111.5 21.5t-64 62t-20.5 98.5v209q0 31 -8 39.5t-28 8.5q-7 0 -15.5 -1t-16.5 -1q-11 0 -11 10v51q0 5 2.5 7t6.5 3q14 2 30 3t27 1q44 0 71.5 -23t27.5 -70v-247q0 -48 30 -72.5t80 -24.5q49 0 78.5 26t29.5 81v63q0 75 -6 137.5t-12 106.5q-2 11 9 11
h65q10 0 11 -9q7 -40 12.5 -97.5t5.5 -125.5v-76q0 -63 -21 -106t-64 -64.5t-108 -21.5zM236 546q-9 0 -7 10l30 130q2 9 11 9h65q10 0 7 -11l-47 -130q-3 -8 -11 -8h-48z" />
    <glyph glyph-name="omegatonos" unicode="&#x3ce;" horiz-adv-x="779" 
d="M238 -12q-55 0 -92 18t-55.5 55.5t-18.5 93.5v199q0 40 14 73t45 53t81 20q10 0 10 -10v-55q0 -10 -10 -11q-37 -5 -46 -22.5t-9 -36.5v-195q0 -57 23.5 -80t72.5 -23q44 0 70 24t26 76v168q0 10 10 10h61q10 0 10 -10v-168q0 -52 26.5 -76t69.5 -24q50 0 73 23t23 80
v195q0 19 -8.5 36.5t-46.5 22.5q-10 1 -10 11v55q0 10 10 10q51 0 81.5 -20t44.5 -53t14 -73v-199q0 -56 -18.5 -93.5t-55 -55.5t-90.5 -18q-48 0 -92 22.5t-61 59.5h-1q-15 -32 -56.5 -57t-94.5 -25zM356 546q-9 0 -7 10l30 130q2 9 11 9h65q10 0 7 -11l-47 -130
q-3 -8 -11 -8h-48z" />
    <glyph glyph-name="uni0400" unicode="&#x400;" horiz-adv-x="533" 
d="M95 0q-10 0 -10 10v635q0 10 10 10h356q10 0 10 -10v-57q0 -10 -10 -10h-281v-208h257q10 0 10 -10v-54q0 -10 -10 -10h-257v-219h281q10 0 10 -10v-57q0 -10 -10 -10h-356zM271 710q-7 0 -11 6l-72 101q-3 5 -1.5 8.5t6.5 3.5h73q7 0 10 -7l56 -102q2 -4 1 -7t-6 -3h-56
z" />
    <glyph glyph-name="uni0401" unicode="&#x401;" horiz-adv-x="533" 
d="M95 0q-10 0 -10 10v635q0 10 10 10h356q10 0 10 -10v-57q0 -10 -10 -10h-281v-208h257q10 0 10 -10v-54q0 -10 -10 -10h-257v-219h281q10 0 10 -10v-57q0 -10 -10 -10h-356zM196 711q-28 0 -40 14.5t-12 36.5v10q0 23 12 37t40 14t40 -14t12 -37v-10q0 -22 -12 -36.5
t-40 -14.5zM364 711q-28 0 -40 14.5t-12 36.5v10q0 23 12 37t40 14t40 -14t12 -37v-10q0 -22 -12 -36.5t-40 -14.5z" />
    <glyph glyph-name="uni0402" unicode="&#x402;" horiz-adv-x="742" 
d="M500 -11q-12 -1 -15.5 -0.5t-5.5 5.5l-17 59q-1 6 0.5 9.5t15.5 5.5q50 8 77 39.5t27 85.5v61q0 56 -25 83.5t-76 27.5q-42 0 -82 -19.5t-89 -63.5v-272q0 -10 -10 -10h-65q-10 0 -10 10v568h-180q-10 0 -10 10v57q0 10 10 10h465q10 0 10 -10v-57q0 -10 -10 -10h-200
v-218q44 40 92 60t100 20q79 0 122 -46t43 -131v-68q0 -89 -45 -142.5t-122 -63.5z" />
    <glyph glyph-name="uni0403" unicode="&#x403;" horiz-adv-x="475" 
d="M95 0q-10 0 -10 10v635q0 10 10 10h340q10 0 10 -10v-57q0 -10 -10 -10h-265v-568q0 -10 -10 -10h-65zM228 710q-5 0 -6 3t1 7l56 102q4 7 10 7h73q5 0 6.5 -3.5t-1.5 -8.5l-72 -101q-4 -6 -11 -6h-56z" />
    <glyph glyph-name="uni0404" unicode="&#x404;" horiz-adv-x="608" 
d="M321 -12q-132 0 -190 47.5t-58 154.5v275q0 107 53.5 154.5t172.5 47.5q80 0 134.5 -19t80.5 -55.5t19 -88.5q-3 -21 -11 -21h-65q-9 0 -9 20q0 31 -15 50.5t-46 29t-81 9.5q-81 0 -114.5 -26t-33.5 -89v-106h270q10 0 10 -10v-56q0 -10 -10 -10h-270v-115
q0 -64 35.5 -90.5t120.5 -26.5q51 0 82.5 9t46 28.5t14.5 50.5q0 20 9 20h65q5 0 7.5 -6t2.5 -23q0 -53 -23 -87.5t-71.5 -50.5t-125.5 -16z" />
    <glyph glyph-name="uni0405" unicode="&#x405;" horiz-adv-x="568" 
d="M278 -12q-120 0 -176 51.5t-50 134.5q1 18 12 18h63q12 0 12 -16q0 -61 36 -87.5t110 -26.5q71 0 107.5 25.5t36.5 77.5q0 26 -8.5 44.5t-28.5 32.5t-54 28l-147 61q-46 19 -74.5 42.5t-41 54t-12.5 69.5q1 83 55.5 126t158.5 43q71 0 123 -21t79 -61t22 -98
q-2 -19 -11 -19h-64q-5 0 -7.5 4t-1.5 15q4 51 -34.5 78.5t-108.5 27.5q-62 0 -93.5 -22t-32.5 -68q0 -24 8.5 -42t29 -33t56.5 -30l145 -61q46 -19 74 -42t40.5 -53.5t12.5 -73.5q0 -84 -57 -131.5t-179 -47.5z" />
    <glyph glyph-name="uni0406" unicode="&#x406;" horiz-adv-x="255" 
d="M95 0q-10 0 -10 10v635q0 10 10 10h65q10 0 10 -10v-635q0 -10 -10 -10h-65z" />
    <glyph glyph-name="uni0407" unicode="&#x407;" horiz-adv-x="255" 
d="M95 0q-10 0 -10 10v635q0 10 10 10h65q10 0 10 -10v-635q0 -10 -10 -10h-65zM44 711q-28 0 -40 14.5t-12 36.5v10q0 23 12 37t40 14t40 -14t12 -37v-10q0 -22 -12 -36.5t-40 -14.5zM212 711q-28 0 -40 14.5t-12 36.5v10q0 23 12 37t40 14t40 -14t12 -37v-10
q0 -22 -12 -36.5t-40 -14.5z" />
    <glyph glyph-name="uni0408" unicode="&#x408;" horiz-adv-x="265" 
d="M37 -139q-22 -5 -25 4l-17 59q-3 11 18 16q41 10 61.5 46t20.5 96v563q0 10 10 10h65q10 0 10 -10v-559q0 -97 -36.5 -152.5t-106.5 -72.5z" />
    <glyph glyph-name="uni0409" unicode="&#x409;" horiz-adv-x="867" 
d="M9 0q-11 0 -8 11l218 636q3 8 12 8h89q9 0 12 -8l82 -237h172q122 0 181.5 -48.5t59.5 -147.5q0 -104 -62.5 -159t-181.5 -55h-109q-9 0 -12 8l-148 450l-20 60l-20 60h-1q-10 -29 -19 -59t-19 -59l-147 -452q-3 -8 -12 -8h-67zM532 72h47q82 0 122.5 35.5t40.5 106.5
q0 66 -37 95t-123 29h-143z" />
    <glyph glyph-name="uni040A" unicode="&#x40a;" horiz-adv-x="967" 
d="M95 0q-10 0 -10 10v635q0 10 10 10h65q10 0 10 -10v-249h321v249q0 10 10 10h65q10 0 10 -10v-249h110q118 0 179.5 -49t61.5 -142q0 -97 -64 -151t-180 -54h-182q-10 0 -10 10v312h-321v-312q0 -10 -10 -10h-65zM576 72h103q80 0 121.5 34t41.5 98q0 61 -38.5 89.5
t-121.5 28.5h-106v-250z" />
    <glyph glyph-name="uni040B" unicode="&#x40b;" horiz-adv-x="742" 
d="M235 0q-10 0 -10 10v568h-180q-10 0 -10 10v57q0 10 10 10h465q10 0 10 -10v-57q0 -10 -10 -10h-200v-218q44 40 92 60t100 20q79 0 122 -46t43 -131v-253q0 -10 -10 -10h-65q-10 0 -10 10v244q0 56 -25.5 83.5t-77.5 27.5q-42 0 -81.5 -19.5t-87.5 -63.5v-272
q0 -10 -10 -10h-65z" />
    <glyph glyph-name="uni040C" unicode="&#x40c;" horiz-adv-x="580" 
d="M95 0q-10 0 -10 10v635q0 10 10 10h65q10 0 10 -10v-274h84l213 278q5 6 13 6h73q6 0 8 -3.5t-2 -8.5l-231 -301l250 -330q4 -4 2 -8t-8 -4h-81q-8 0 -13 6l-221 289h-87v-285q0 -10 -10 -10h-65zM244 710q-5 0 -6 3t1 7l56 102q4 7 10 7h73q5 0 6.5 -3.5t-1.5 -8.5
l-72 -101q-4 -6 -11 -6h-56z" />
    <glyph glyph-name="uni040D" unicode="&#x40d;" horiz-adv-x="658" 
d="M95 0q-10 0 -10 10v635q0 10 10 10h63q10 0 10 -10v-312q0 -62 -1 -102t-2.5 -66.5t-2.5 -49.5h2q13 23 27 49t37 66t61 103l189 315q5 7 12 7h73q10 0 10 -10v-635q0 -10 -10 -10h-63q-10 0 -10 10v300q0 76 2.5 136.5t4.5 94.5h-2q-12 -22 -26.5 -48.5t-39 -69
t-67.5 -113.5l-182 -303q-5 -7 -12 -7h-73zM320 710q-7 0 -11 6l-72 101q-3 5 -1.5 8.5t6.5 3.5h73q7 0 10 -7l56 -102q2 -4 1 -7t-6 -3h-56z" />
    <glyph glyph-name="uni040E" unicode="&#x40e;" horiz-adv-x="547" 
d="M137 0q-5 0 -7 3.5t0 8.5l108 218l-212 413q-2 5 0 8.5t7 3.5h74q9 0 12 -7l116 -236q12 -24 24 -47.5t22 -47.5h2q11 24 22.5 47.5t23.5 47.5l117 236q3 7 12 7h71q5 0 7 -3.5t0 -8.5l-322 -636q-3 -7 -12 -7h-65zM281 716q-45 0 -81.5 15.5t-49.5 24.5q-6 5 -6 12v55
q0 6 3 8t8 -1q19 -10 53.5 -26.5t72.5 -16.5t72.5 16.5t53.5 26.5q5 3 8 1t3 -8v-55q0 -7 -6 -12q-13 -9 -49.5 -24.5t-81.5 -15.5z" />
    <glyph glyph-name="uni040F" unicode="&#x40f;" horiz-adv-x="660" 
d="M298 -130q-4 0 -7 3t-3 7v120h-193q-10 0 -10 10v635q0 10 10 10h65q10 0 10 -10v-568h320v568q0 10 10 10h65q10 0 10 -10v-635q0 -4 -2.5 -7t-7.5 -3h-192v-120q0 -4 -2.5 -7t-7.5 -3h-65z" />
    <glyph glyph-name="uni0410" unicode="&#x410;" horiz-adv-x="560" 
d="M9 0q-11 0 -8 11l221 636q3 8 12 8h89q9 0 12 -8l224 -636q3 -11 -8 -11h-71q-9 0 -12 8l-150 450l-20 60t-21 60h-1q-10 -29 -20 -58.5t-20 -58.5l-148 -453q-3 -8 -12 -8h-67zM120 153l21 74h272l22 -74h-315z" />
    <glyph glyph-name="uni0411" unicode="&#x411;" horiz-adv-x="566" 
d="M95 0q-10 0 -10 10v635q0 10 10 10h345q10 0 10 -10v-57q0 -10 -10 -10h-270v-176h110q119 0 180 -49t61 -147q0 -100 -62.5 -153t-181.5 -53h-182zM170 72h103q83 0 123 33.5t40 101.5q0 65 -38 94t-122 29h-106v-258z" />
    <glyph glyph-name="uni0412" unicode="&#x412;" horiz-adv-x="573" 
d="M95 0q-10 0 -10 10v635q0 10 10 10h178q114 0 170.5 -40.5t56.5 -123.5q0 -54 -26 -87.5t-85 -55.5v-2q70 -13 104.5 -55t34.5 -111q0 -92 -61.5 -136t-192.5 -44h-179zM170 74h103q92 0 131 26t39 86q0 62 -39.5 90.5t-127.5 28.5h-106v-231zM170 374h99q76 0 111 25.5
t35 80.5q0 56 -35.5 79t-119.5 23h-90v-208z" />
    <glyph glyph-name="uni0413" unicode="&#x413;" horiz-adv-x="475" 
d="M95 0q-10 0 -10 10v635q0 10 10 10h340q10 0 10 -10v-57q0 -10 -10 -10h-265v-568q0 -10 -10 -10h-65z" />
    <glyph glyph-name="uni0414" unicode="&#x414;" horiz-adv-x="600" 
d="M116 8l-85 3l211 636q3 8 12 8h89q9 0 12 -8l213 -636l-89 -3l-126 398q-13 43 -27.5 86t-28.5 86h-1l-28 -88l-28 -88zM10 -130q-4 0 -7 3t-3 7v187q0 5 3 7.5t7 2.5h580q5 0 7.5 -2.5t2.5 -7.5v-187q0 -4 -2.5 -7t-7.5 -3h-65q-4 0 -7 3t-3 7v120h-430v-120
q0 -4 -2.5 -7t-7.5 -3h-65z" />
    <glyph glyph-name="uni0415" unicode="&#x415;" horiz-adv-x="533" 
d="M95 0q-10 0 -10 10v635q0 10 10 10h356q10 0 10 -10v-57q0 -10 -10 -10h-281v-208h257q10 0 10 -10v-54q0 -10 -10 -10h-257v-219h281q10 0 10 -10v-57q0 -10 -10 -10h-356z" />
    <glyph glyph-name="uni0416" unicode="&#x416;" horiz-adv-x="857" 
d="M39 0q-5 0 -8 3.5t0 8.5l176 326l-166 305q-3 5 0 8.5t8 3.5h69q4 0 7.5 -1.5t4.5 -5.5l151 -277h105v274q0 10 10 10h65q10 0 10 -10v-274h108l152 277q2 4 5 5.5t7 1.5h65q5 0 8 -3.5t0 -8.5l-166 -305l176 -326q3 -5 0 -8.5t-8 -3.5h-75q-8 0 -12 7l-155 288h-105
v-285q0 -10 -10 -10h-65q-10 0 -10 10v285h-106l-155 -288q-4 -7 -12 -7h-74z" />
    <glyph glyph-name="uni0417" unicode="&#x417;" horiz-adv-x="577" 
d="M271 -12q-109 0 -162.5 42.5t-53.5 130.5q0 5 3 7.5t7 2.5h65q9 0 9 -10q0 -52 30.5 -75t100.5 -23q86 0 126.5 29t40.5 93q0 56 -38 82.5t-125 26.5h-96q-10 0 -10 10v54q0 10 10 10h82q80 0 116.5 28t36.5 89q0 56 -33.5 81.5t-106.5 25.5q-67 0 -97.5 -23t-30.5 -76
q0 -10 -9 -10h-65q-4 0 -7 3t-3 7q0 84 54.5 129t163.5 45t164 -42.5t55 -126.5q0 -60 -31 -101t-85 -58v-1q70 -13 105 -51t35 -101q0 -94 -62 -146t-189 -52z" />
    <glyph glyph-name="uni0418" unicode="&#x418;" horiz-adv-x="658" 
d="M95 0q-10 0 -10 10v635q0 10 10 10h63q10 0 10 -10v-312q0 -62 -1 -102t-2.5 -66.5t-2.5 -49.5h2q13 23 27 49t37 66t61 103l189 315q5 7 12 7h73q10 0 10 -10v-635q0 -10 -10 -10h-63q-10 0 -10 10v300q0 76 2.5 136.5t4.5 94.5h-2q-12 -22 -26.5 -48.5t-39 -69
t-67.5 -113.5l-182 -303q-5 -7 -12 -7h-73z" />
    <glyph glyph-name="uni0419" unicode="&#x419;" horiz-adv-x="658" 
d="M95 0q-10 0 -10 10v635q0 10 10 10h63q10 0 10 -10v-312q0 -62 -1 -102t-2.5 -66.5t-2.5 -49.5h2q13 23 27 49t37 66t61 103l189 315q5 7 12 7h73q10 0 10 -10v-635q0 -10 -10 -10h-63q-10 0 -10 10v300q0 76 2.5 136.5t4.5 94.5h-2q-12 -22 -26.5 -48.5t-39 -69
t-67.5 -113.5l-182 -303q-5 -7 -12 -7h-73zM329 716q-45 0 -81.5 15.5t-49.5 24.5q-6 5 -6 12v55q0 6 3 8t8 -1q19 -10 53.5 -26.5t72.5 -16.5t72.5 16.5t53.5 26.5q5 3 8 1t3 -8v-55q0 -7 -6 -12q-13 -9 -49.5 -24.5t-81.5 -15.5z" />
    <glyph glyph-name="uni041A" unicode="&#x41a;" horiz-adv-x="580" 
d="M95 0q-10 0 -10 10v635q0 10 10 10h65q10 0 10 -10v-274h84l213 278q5 6 13 6h73q6 0 8 -3.5t-2 -8.5l-231 -301l250 -330q4 -4 2 -8t-8 -4h-81q-8 0 -13 6l-221 289h-87v-285q0 -10 -10 -10h-65z" />
    <glyph glyph-name="uni041B" unicode="&#x41b;" horiz-adv-x="554" 
d="M9 0q-11 0 -8 11l218 636q3 8 12 8h89q9 0 12 -8l221 -636q3 -11 -8 -11h-71q-9 0 -12 8l-148 450l-20 60l-20 60h-1q-10 -29 -19 -59t-19 -59l-147 -452q-3 -8 -12 -8h-67z" />
    <glyph glyph-name="uni041C" unicode="&#x41c;" horiz-adv-x="769" 
d="M80 0q-10 0 -10 10l14 635q0 10 10 10h106q7 0 11 -8l175 -393l172 393q4 8 11 8h106q10 0 10 -10l14 -635q0 -10 -10 -10h-63q-10 0 -10 10l-10 402q-1 37 0.5 73t2.5 73h-2q-15 -37 -30.5 -73t-32.5 -73l-148 -321q-3 -7 -11 -7h-2q-8 0 -11 7l-150 326
q-16 35 -30.5 70.5t-28.5 70.5h-2q2 -35 2.5 -71t-0.5 -71l-10 -406q0 -10 -10 -10h-63z" />
    <glyph glyph-name="uni041D" unicode="&#x41d;" horiz-adv-x="661" 
d="M95 0q-10 0 -10 10v635q0 10 10 10h65q10 0 10 -10v-270h321v270q0 10 10 10h65q10 0 10 -10v-635q0 -10 -10 -10h-65q-10 0 -10 10v291h-321v-291q0 -10 -10 -10h-65z" />
    <glyph glyph-name="uni041E" unicode="&#x41e;" horiz-adv-x="642" 
d="M321 -12q-125 0 -186.5 61.5t-61.5 173.5v209q0 113 61.5 174t186.5 61t186.5 -61t61.5 -174v-209q0 -112 -61.5 -173.5t-186.5 -61.5zM321 63q80 0 121.5 41t41.5 120v207q0 80 -41.5 120.5t-121.5 40.5q-79 0 -121 -40.5t-42 -120.5v-207q0 -79 42 -120t121 -41z" />
    <glyph glyph-name="uni041F" unicode="&#x41f;" horiz-adv-x="660" 
d="M95 0q-10 0 -10 10v635q0 10 10 10h470q10 0 10 -10v-635q0 -10 -10 -10h-65q-10 0 -10 10v568h-320v-568q0 -10 -10 -10h-65z" />
    <glyph glyph-name="uni0420" unicode="&#x420;" horiz-adv-x="545" 
d="M95 0q-10 0 -10 10v635q0 10 10 10h167q121 0 182 -51.5t61 -152.5q0 -100 -61.5 -152t-181.5 -52h-92v-237q0 -10 -10 -10h-65zM170 319h90q84 0 122 31.5t38 97.5q0 71 -39.5 103t-122.5 32h-88v-264z" />
    <glyph glyph-name="uni0421" unicode="&#x421;" horiz-adv-x="633" 
d="M320 -12q-122 0 -184.5 61t-62.5 174v209q0 113 63.5 174t184.5 61q77 0 135.5 -26.5t88 -76t19.5 -118.5q-1 -5 -3 -9.5t-8 -4.5h-65q-11 0 -9 10q3 72 -37.5 111t-119.5 39t-121.5 -41t-42.5 -118v-211q0 -77 42.5 -118t121.5 -41t122 39.5t35 110.5q-2 10 9 10h64
q10 0 12 -14q6 -67 -23.5 -116.5t-86.5 -77t-134 -27.5z" />
    <glyph glyph-name="uni0422" unicode="&#x422;" horiz-adv-x="535" 
d="M235 0q-10 0 -10 10v568h-180q-10 0 -10 10v57q0 10 10 10h445q10 0 10 -10v-57q0 -10 -10 -10h-180v-568q0 -10 -10 -10h-65z" />
    <glyph glyph-name="uni0423" unicode="&#x423;" horiz-adv-x="547" 
d="M137 0q-5 0 -7 3.5t0 8.5l108 218l-212 413q-2 5 0 8.5t7 3.5h74q9 0 12 -7l116 -236q12 -24 24 -47.5t22 -47.5h2q11 24 22.5 47.5t23.5 47.5l117 236q3 7 12 7h71q5 0 7 -3.5t0 -8.5l-322 -636q-3 -7 -12 -7h-65z" />
    <glyph glyph-name="uni0424" unicode="&#x424;" horiz-adv-x="832" 
d="M375 -12q-91 0 -159 26t-105.5 81.5t-37.5 143.5v176q0 89 38 144.5t107 81t161 25.5h74q92 0 161 -25.5t107 -81t38 -144.5v-176q0 -88 -37.5 -143.5t-105.5 -81.5t-159 -26h-82zM378 60h76q69 0 118 19t75.5 59.5t26.5 105.5v166q0 65 -26 105.5t-75.5 59.5t-118.5 19
h-76q-69 0 -118 -19t-75.5 -59.5t-26.5 -105.5v-166q0 -65 26.5 -105.5t76 -59.5t117.5 -19zM383 -71q-10 0 -10 10v76l2 9v607l-2 9v76q0 10 10 10h65q10 0 10 -10v-76l-2 -9v-607l2 -9v-76q0 -10 -10 -10h-65z" />
    <glyph glyph-name="uni0425" unicode="&#x425;" horiz-adv-x="551" 
d="M13 0q-6 0 -7.5 3.5t1.5 8.5l214 326l-200 305q-3 5 -1.5 8.5t7.5 3.5h80q7 0 11 -6l113 -173q11 -18 23.5 -37.5t23.5 -37.5h1q12 20 24.5 40t25.5 39l109 169q5 6 12 6h76q6 0 7.5 -3.5t-1.5 -8.5l-199 -307l211 -324q3 -5 1.5 -8.5t-7.5 -3.5h-80q-7 0 -12 6l-119 183
q-13 20 -26.5 41.5t-25.5 41.5h-1q-12 -19 -25 -40t-26 -41l-119 -184q-5 -7 -12 -7h-79z" />
    <glyph glyph-name="uni0426" unicode="&#x426;" horiz-adv-x="652" 
d="M552 -130q-4 0 -7 3t-3 7v120h-447q-10 0 -10 10v635q0 10 10 10h65q10 0 10 -10v-568h304v568q0 10 10 10h65q10 0 10 -10v-568h58q5 0 7.5 -2.5t2.5 -7.5v-187q0 -4 -2.5 -7t-7.5 -3h-65z" />
    <glyph glyph-name="uni0427" unicode="&#x427;" horiz-adv-x="630" 
d="M255 217q-90 0 -135 44t-45 141v243q0 10 10 10h65q10 0 10 -10v-230q0 -66 26 -94t87 -28q54 0 104.5 21.5t95.5 59.5v-80q-32 -23 -68 -40.5t-73.5 -27t-76.5 -9.5zM470 0q-10 0 -10 10v635q0 10 10 10h65q10 0 10 -10v-635q0 -10 -10 -10h-65z" />
    <glyph glyph-name="uni0428" unicode="&#x428;" horiz-adv-x="889" 
d="M95 0q-10 0 -10 10v635q0 10 10 10h65q10 0 10 -10v-568h233v568q0 10 10 10h63q10 0 10 -10v-568h233v568q0 10 10 10h65q10 0 10 -10v-635q0 -10 -10 -10h-699z" />
    <glyph glyph-name="uni0429" unicode="&#x429;" horiz-adv-x="895" 
d="M795 -130q-4 0 -7 3t-3 7v120h-690q-10 0 -10 10v635q0 10 10 10h65q10 0 10 -10v-568h233v568q0 10 10 10h63q10 0 10 -10v-568h233v568q0 10 10 10h65q10 0 10 -10v-568h56q5 0 7.5 -2.5t2.5 -7.5v-187q0 -4 -2.5 -7t-7.5 -3h-65z" />
    <glyph glyph-name="uni042A" unicode="&#x42a;" horiz-adv-x="656" 
d="M190 0q-10 0 -10 10v568h-135q-10 0 -10 10v57q0 10 10 10h210q10 0 10 -10v-235h110q122 0 181.5 -48.5t59.5 -147.5q0 -104 -62.5 -159t-181.5 -55h-182zM265 72h103q82 0 122.5 35.5t40.5 106.5q0 66 -37 95t-123 29h-106v-266z" />
    <glyph glyph-name="uni042B" unicode="&#x42b;" horiz-adv-x="816" 
d="M95 0q-10 0 -10 10v635q0 10 10 10h65q10 0 10 -10v-235h110q122 0 181.5 -48.5t59.5 -147.5q0 -104 -62.5 -159t-181.5 -55h-182zM170 72h103q82 0 122.5 35.5t40.5 106.5q0 66 -37 95t-123 29h-106v-266zM656 0q-10 0 -10 10v635q0 10 10 10h65q10 0 10 -10v-635
q0 -10 -10 -10h-65z" />
    <glyph glyph-name="uni042C" unicode="&#x42c;" horiz-adv-x="561" 
d="M95 0q-10 0 -10 10v635q0 10 10 10h65q10 0 10 -10v-235h110q122 0 181.5 -48.5t59.5 -147.5q0 -104 -62.5 -159t-181.5 -55h-182zM170 72h103q82 0 122.5 35.5t40.5 106.5q0 66 -37 95t-123 29h-106v-266z" />
    <glyph glyph-name="uni042D" unicode="&#x42d;" horiz-adv-x="604" 
d="M283 -12q-76 0 -125 16t-72 50.5t-23 87.5q0 17 2.5 23t7.5 6h65q9 0 9 -20q0 -31 14.5 -50.5t46 -28.5t82.5 -9q86 0 121 26.5t35 90.5v115h-270q-10 0 -10 10v56q0 10 10 10h270v106q0 63 -33.5 89t-114.5 26q-49 0 -80.5 -9.5t-46.5 -29t-15 -50.5q0 -20 -9 -20h-65
q-8 0 -11 21q-4 52 21.5 88.5t79.5 55.5t133 19q119 0 172.5 -47.5t53.5 -154.5v-275q0 -107 -58 -154.5t-190 -47.5z" />
    <glyph glyph-name="uni042E" unicode="&#x42e;" horiz-adv-x="871" 
d="M563 -12q-115 0 -175 62t-60 173v209q0 111 60 173t175 62t175 -62t60 -173v-209q0 -111 -60 -173t-175 -62zM95 0q-10 0 -10 10v635q0 10 10 10h65q10 0 10 -10v-270h187v-74h-187v-291q0 -10 -10 -10h-65zM563 63q74 0 112 41t38 118v211q0 77 -38 118t-112 41
q-73 0 -111.5 -41t-38.5 -118v-211q0 -77 38.5 -118t111.5 -41z" />
    <glyph glyph-name="uni042F" unicode="&#x42f;" horiz-adv-x="608" 
d="M44 0q-6 0 -8 3.5t1 8.5l99 176q14 26 29 52t31 51v2q-58 19 -87.5 63t-29.5 110q0 63 26 105t78.5 63t129.5 21h200q10 0 10 -10v-635q0 -10 -10 -10h-65q-10 0 -10 10v269h-158l-149 -272q-4 -7 -12 -7h-75zM320 347h118v236h-122q-80 0 -116 -30t-36 -95
q0 -41 15 -65.5t49 -35t92 -10.5z" />
    <glyph glyph-name="uni0430" unicode="&#x430;" horiz-adv-x="494" 
d="M358 0q-6 0 -8 4t-4 10q-1 8 -4.5 34.5t-4.5 47.5l-3 38v199q0 50 -20 71t-70 21q-90 0 -90 -62q0 -10 -9 -10h-66q-10 0 -11 19q-5 57 44.5 92.5t134.5 35.5q87 0 129.5 -41t42.5 -124v-214q0 -35 2 -62.5t5 -47.5q2 -11 -10 -11h-58zM167 -12q-58 0 -88.5 35t-30.5 102
q0 52 20.5 85t66 51t121.5 24l94 8v-65l-96 -8q-69 -6 -95 -25t-26 -64q0 -34 14 -51t42 -17q33 0 69 22.5t95 83.5v-75q-35 -38 -65.5 -61.5t-59.5 -34t-61 -10.5z" />
    <glyph glyph-name="uni0431" unicode="&#x431;" horiz-adv-x="545" 
d="M276 -12q-101 0 -151 48t-50 146v232q0 92 28.5 140t73.5 72q29 15 59 23.5t60 15t57 15t49 23.5q9 6 13 -6l17 -58q2 -8 -4 -13q-21 -17 -54.5 -24.5t-72 -14.5t-74.5 -24q-34 -16 -50.5 -47.5t-16.5 -78.5v-247q0 -64 27 -95.5t91 -31.5q63 0 90 32.5t27 94.5v97
q0 56 -23.5 80t-64.5 24q-43 0 -85.5 -26.5t-71.5 -71.5v82q22 29 48.5 49t58 31t67.5 11q71 0 113.5 -41.5t42.5 -125.5v-117q0 -96 -51.5 -145t-152.5 -49z" />
    <glyph glyph-name="uni0432" unicode="&#x432;" horiz-adv-x="540" 
d="M268 -12q-97 0 -145 48.5t-48 145.5v338q0 58 22 96.5t65.5 58.5t107.5 20q87 0 129.5 -36.5t42.5 -109.5q0 -53 -22 -93.5t-60 -56.5v-1q63 -10 89 -50.5t26 -107.5v-50q0 -99 -53 -150.5t-154 -51.5zM270 63q61 0 90.5 32t29.5 98v53q0 50 -22.5 73t-70.5 23
q-17 0 -39 -2.5t-46.5 -8t-51.5 -13.5v-128q0 -67 26 -97t84 -30zM160 386l81 17q53 11 85 39.5t32 86.5q0 48 -23 70.5t-71 22.5q-51 0 -77.5 -25t-26.5 -73v-138z" />
    <glyph glyph-name="uni0433" unicode="&#x433;" horiz-adv-x="477" 
d="M229 -12q-86 0 -131.5 26.5t-46.5 97.5q-1 56 25 90.5t82 55.5l113 42q37 14 49.5 30t12.5 42q0 30 -21.5 42t-67.5 12q-50 0 -74.5 -15t-24.5 -43q0 -15 -9 -15h-66q-9 0 -11 15q-6 57 42 94.5t142 37.5q83 0 129 -31.5t46 -97.5q0 -51 -24 -83t-82 -53l-116 -42
q-34 -12 -47.5 -30t-12.5 -48q1 -33 24.5 -44t72.5 -10q53 1 80.5 16.5t27.5 48.5q0 15 8 15h66q5 0 7.5 -2t3.5 -12q4 -61 -41.5 -100t-155.5 -39z" />
    <glyph glyph-name="uni0434" unicode="&#x434;" horiz-adv-x="539" 
d="M263 -197q-88 0 -137.5 36t-45.5 89q1 17 12 17h66q9 0 9 -14q0 -25 25.5 -39.5t71.5 -14.5q61 0 88 25.5t27 83.5v30v34.5t1 34.5h-1q-43 -37 -82 -54t-84 -17q-75 0 -113 46t-38 140v97q0 101 49 152t151 51q37 0 68 -5t63 -11t71 -9v-484q0 -60 -23 -102t-68 -64
t-110 -22zM231 89q34 0 67 17t81 58v250q-25 5 -56.5 8t-53.5 3q-65 0 -93.5 -32.5t-28.5 -103.5v-84q0 -61 20.5 -88.5t63.5 -27.5z" />
    <glyph glyph-name="uni0435" unicode="&#x435;" horiz-adv-x="519" 
d="M261 -12q-96 0 -147.5 45t-51.5 133v140q0 95 51 144.5t148 49.5t147.5 -48.5t50.5 -140.5v-78q0 -10 -10 -10h-302v-32q0 -67 28 -97.5t91 -30.5q47 0 72.5 15.5t25.5 45.5q0 11 11 11h65q8 0 10 -9q4 -64 -47 -101t-142 -37zM147 296h227v6q0 63 -28 93t-84 30
q-58 0 -86.5 -31t-28.5 -93v-5z" />
    <glyph glyph-name="uni0436" unicode="&#x436;" horiz-adv-x="699" 
d="M25 0q-6 0 -8 4t1 8l153 259l-136 205q-3 5 -1.5 8.5t7.5 3.5h74q9 0 13 -6l114 -187h65v378q0 10 10 10h65q10 0 10 -10v-378h65l114 187q4 6 13 6h74q6 0 7.5 -3.5t-1.5 -8.5l-136 -205l153 -259q3 -4 1 -8t-8 -4h-76q-8 0 -12 6l-126 221h-68v-217q0 -10 -10 -10h-65
q-10 0 -10 10v217h-69l-126 -221q-4 -6 -12 -6h-75z" />
    <glyph glyph-name="uni0437" unicode="&#x437;" horiz-adv-x="474" 
d="M215 -197q-60 0 -102.5 18.5t-63 50t-15.5 71.5q2 11 5 14.5t8 3.5h65q9 0 9 -16q0 -31 25 -49.5t71 -18.5q57 0 86.5 26.5t29.5 76.5v63q0 46 -30 68t-92 22h-78q-4 0 -7 3t-3 7v53q0 5 3 7.5t7 2.5h71q53 0 83.5 28.5t30.5 77.5v22q0 47 -25 70t-76 23q-43 0 -66 -15.5
t-23 -43.5q0 -7 -2 -11t-7 -4h-66q-12 0 -13 18q-3 37 19 66t65.5 46t103.5 17q85 0 128 -38t43 -113v-38q0 -43 -22 -78.5t-62 -54.5v-1q53 -13 77.5 -48.5t24.5 -83.5v-54q0 -60 -23.5 -102t-68.5 -64t-110 -22z" />
    <glyph glyph-name="uni0438" unicode="&#x438;" horiz-adv-x="542" 
d="M207 -12q-64 0 -98 43t-34 124v323q0 10 10 10h65q10 0 10 -10v-319q0 -49 17.5 -72.5t54.5 -23.5t74.5 23t93.5 80l-2 -79q-32 -33 -64 -55t-63.5 -33t-63.5 -11zM407 0q-11 0 -12 10q-3 19 -5 39t-3 41l-5 42v346q0 10 10 10h65q10 0 10 -10v-356q0 -27 1.5 -56
t5.5 -56q2 -10 -11 -10h-56z" />
    <glyph glyph-name="uni0439" unicode="&#x439;" horiz-adv-x="542" 
d="M207 -12q-64 0 -98 43t-34 124v323q0 10 10 10h65q10 0 10 -10v-319q0 -49 17.5 -72.5t54.5 -23.5t74.5 23t93.5 80l-2 -79q-32 -33 -64 -55t-63.5 -33t-63.5 -11zM407 0q-11 0 -12 10q-3 19 -5 39t-3 41l-5 42v346q0 10 10 10h65q10 0 10 -10v-356q0 -27 1.5 -56
t5.5 -56q2 -10 -11 -10h-56zM271 556q-34 0 -58.5 9.5t-39.5 21t-22 18.5q-4 4 -4 12v54q0 6 3 8.5t8 -2.5q14 -13 43.5 -31.5t69.5 -18.5q41 0 70.5 18.5t42.5 31.5q5 5 8 2.5t3 -8.5v-54q0 -4 -1 -7t-3 -5q-7 -7 -22 -18.5t-39 -21t-59 -9.5z" />
    <glyph glyph-name="uni043A" unicode="&#x43a;" horiz-adv-x="484" 
d="M479 12q3 -4 1 -8t-8 -4h-78q-8 0 -12 6l-150 221h-72v-217q0 -10 -10 -10h-65q-10 0 -10 10v663q0 10 10 10h65q10 0 10 -10v-378h69l139 187q5 6 13 6h75q6 0 8 -3.5t-2 -8.5l-158 -206z" />
    <glyph glyph-name="uni043B" unicode="&#x43b;" horiz-adv-x="455" 
d="M13 0q-12 0 -7 12l170 462q5 14 17 14h69q12 0 17 -14l170 -462q5 -12 -7 -12h-69q-8 0 -11 8l-93 269q-10 29 -20.5 57.5t-19.5 56.5h-2q-9 -29 -19 -58t-21 -58l-94 -267q-3 -8 -11 -8h-69z" />
    <glyph glyph-name="uni043C" unicode="&#x43c;" horiz-adv-x="626" 
d="M76 0q-10 0 -10 10l8 468q0 10 10 10h71q7 0 11 -8l147 -288l147 288q4 8 11 8h71q10 0 10 -10l8 -468q0 -10 -10 -10h-62q-10 0 -10 10l-2 240q0 13 1 33t2.5 42t2.5 40h-3q-10 -25 -20.5 -47t-19.5 -39l-118 -213q-3 -4 -8 -4q-3 0 -4.5 1t-3.5 3l-118 213
q-9 17 -19 39t-21 47h-3q2 -18 3 -40t2 -42t1 -33l-2 -240q0 -10 -10 -10h-62z" />
    <glyph glyph-name="uni043D" unicode="&#x43d;" horiz-adv-x="544" 
d="M394 0q-10 0 -10 10v468q0 10 10 10h65q10 0 10 -10v-468q0 -10 -10 -10h-65zM85 0q-10 0 -10 10v468q0 10 10 10h65q10 0 10 -10v-468q0 -10 -10 -10h-65zM144 213v73h256v-73h-256z" />
    <glyph glyph-name="uni043E" unicode="&#x43e;" horiz-adv-x="536" 
d="M268 -12q-101 0 -153.5 49t-52.5 149v116q0 100 52 149t154 49q101 0 153.5 -49t52.5 -149v-116q0 -100 -52 -149t-154 -49zM268 63q64 0 92.5 32.5t28.5 98.5v100q0 66 -28.5 98.5t-92.5 32.5t-92.5 -32.5t-28.5 -98.5v-100q0 -66 28.5 -98.5t92.5 -32.5z" />
    <glyph glyph-name="uni043F" unicode="&#x43f;" horiz-adv-x="556" 
d="M406 0q-10 0 -10 10v319q0 50 -20.5 73t-61.5 23q-39 0 -77 -23t-95 -79l1 77q34 36 64.5 58t61 32t64.5 10q72 0 110 -42t38 -125v-323q0 -10 -10 -10h-65zM85 0q-10 0 -10 10v356q0 26 -2.5 58.5t-4.5 50.5q-2 13 10 13h61q9 0 11 -10q2 -8 4 -25t4 -35.5t2 -31.5v-26
v-350q0 -10 -10 -10h-65z" />
    <glyph glyph-name="uni0440" unicode="&#x440;" horiz-adv-x="537" 
d="M294 -12q-38 0 -79 10t-66 27l-3 72q29 -16 64 -25t66 -9q58 0 85 34t27 102v110q0 60 -21 88t-62 28q-35 0 -70.5 -20.5t-93.5 -72.5v80q34 31 63.5 50.5t58 28.5t60.5 9q74 0 112 -46t38 -140v-125q0 -97 -46 -149t-133 -52zM85 -185q-10 0 -10 10v550q0 23 -2 51
t-5 50q-1 12 10 12h61q10 0 11 -10q2 -7 4 -20t3 -25.5t0 -17.5l3 -50v-540q0 -10 -10 -10h-65z" />
    <glyph glyph-name="uni0441" unicode="&#x441;" horiz-adv-x="517" 
d="M266 -12q-100 0 -152 50t-52 144v124q0 94 53 144t153 50q59 0 101 -18t65 -49.5t23 -74.5q0 -23 -10 -23h-66q-9 0 -9 16q0 35 -28 54.5t-76 19.5q-61 0 -91 -31t-30 -96v-108q0 -64 30 -95.5t90 -31.5q48 0 76 21t28 52q0 16 9 16h66q10 0 10 -9q0 -71 -49 -113
t-141 -42z" />
    <glyph glyph-name="uni0442" unicode="&#x442;" horiz-adv-x="845" 
d="M85 0q-10 0 -10 10v356q0 27 -1.5 56.5t-5.5 53.5q-2 12 11 12h60q9 0 10 -7q2 -15 5 -32t4 -35q45 45 85 65.5t86 20.5q51 0 82.5 -23.5t44.5 -69.5q48 49 89 71t89 22q67 0 101.5 -42t34.5 -124v-324q0 -10 -10 -10h-65q-10 0 -10 10v319q0 48 -17.5 72t-54.5 24
q-33 0 -67.5 -20.5t-80.5 -64.5v-330q0 -10 -10 -10h-65q-10 0 -10 10v319q0 48 -17.5 72t-54.5 24q-33 0 -67.5 -20.5t-80.5 -64.5v-330q0 -10 -10 -10h-65z" />
    <glyph glyph-name="uni0443" unicode="&#x443;" horiz-adv-x="497" 
d="M145 -185q-12 0 -7 12l71 179l-185 470q-5 12 7 12h71q8 0 11 -8l90 -242q12 -31 23.5 -64t22.5 -65h1q11 32 23.5 65t23.5 64l90 242q3 8 12 8h67q13 0 8 -12l-253 -653q-3 -8 -11 -8h-65z" />
    <glyph glyph-name="uni0444" unicode="&#x444;" horiz-adv-x="701" 
d="M290 -12q-114 0 -171 47.5t-57 144.5v128q0 97 57 144.5t171 47.5h121q114 0 171 -47.5t57 -144.5v-128q0 -97 -57 -144.5t-171 -47.5h-121zM282 61h137q68 0 101.5 31.5t33.5 95.5v112q0 65 -33.5 96t-101.5 31h-137q-67 0 -101 -31t-34 -96v-112q0 -64 34 -95.5
t101 -31.5zM318 -185q-10 0 -10 10v185v19v424v26v195q0 10 10 10h65q10 0 10 -10v-197v-28v-415v-22v-187q0 -10 -10 -10h-65z" />
    <glyph glyph-name="uni0445" unicode="&#x445;" horiz-adv-x="477" 
d="M18 0q-6 0 -8 4t2 8l173 239l-161 225q-4 5 -2 8.5t8 3.5h78q8 0 12 -6l70 -101q12 -17 24.5 -36t23.5 -36h1q13 19 27 39t27 39l67 95q4 6 12 6h73q6 0 8 -3.5t-2 -8.5l-161 -222l175 -242q4 -4 2 -8t-8 -4h-78q-8 0 -12 6l-67 94q-16 23 -32.5 47t-32.5 47h-1
q-15 -23 -31 -47t-32 -47l-66 -94q-4 -6 -12 -6h-77z" />
    <glyph glyph-name="uni0446" unicode="&#x446;" horiz-adv-x="547" 
d="M468 -120q-4 0 -7 3t-3 7v110h-45l54 73h60q5 0 7.5 -2.5t2.5 -7.5v-173q0 -4 -2.5 -7t-7.5 -3h-59zM207 -12q-64 0 -98 43t-34 124v323q0 10 10 10h65q10 0 10 -10v-319q0 -49 17.5 -72.5t54.5 -23.5t74.5 23t93.5 80l-2 -79q-32 -33 -64 -55t-63.5 -33t-63.5 -11z
M407 0q-11 0 -12 10q-3 19 -5 39t-3 41l-5 42v346q0 10 10 10h65q10 0 10 -10v-356q0 -27 1.5 -56t5.5 -56q2 -10 -11 -10h-56z" />
    <glyph glyph-name="uni0447" unicode="&#x447;" horiz-adv-x="522" 
d="M372 0q-10 0 -10 10v204q-39 -35 -82 -55.5t-84 -20.5q-67 0 -101.5 42t-34.5 121v177q0 10 10 10h65q10 0 10 -10v-163q0 -52 17 -78t52 -26q40 0 77 22.5t71 58.5v186q0 10 10 10h65q10 0 10 -10v-468q0 -10 -10 -10h-65z" />
    <glyph glyph-name="uni0448" unicode="&#x448;" horiz-adv-x="833" 
d="M208 -12q-64 0 -98.5 42t-34.5 124v324q0 10 10 10h65q10 0 10 -10v-319q0 -48 17.5 -72t51.5 -24q31 0 65 20.5t80 64.5v330q0 10 10 10h65q10 0 10 -10v-319q0 -48 17.5 -72t51.5 -24q31 0 65 20.5t80 64.5v330q0 10 10 10h65q10 0 10 -10v-356q0 -27 1.5 -56.5
t5.5 -53.5q2 -12 -11 -12h-60q-9 0 -10 7q-2 15 -4.5 32t-4.5 35q-45 -45 -84.5 -65.5t-83.5 -20.5q-49 0 -80 23.5t-44 69.5q-48 -49 -88.5 -71t-86.5 -22z" />
    <glyph glyph-name="uni0449" unicode="&#x449;" horiz-adv-x="839" 
d="M760 -120q-4 0 -7 3t-3 7v110h-45l54 73h60q5 0 7.5 -2.5t2.5 -7.5v-173q0 -4 -2.5 -7t-7.5 -3h-59zM208 -12q-64 0 -98.5 42t-34.5 124v324q0 10 10 10h65q10 0 10 -10v-319q0 -48 17.5 -72t51.5 -24q31 0 65 20.5t80 64.5v330q0 10 10 10h65q10 0 10 -10v-319
q0 -48 17.5 -72t51.5 -24q31 0 65 20.5t80 64.5v330q0 10 10 10h65q10 0 10 -10v-356q0 -27 1.5 -56.5t5.5 -53.5q2 -12 -11 -12h-60q-9 0 -10 7q-2 15 -4.5 32t-4.5 35q-45 -45 -84.5 -65.5t-83.5 -20.5q-49 0 -80 23.5t-44 69.5q-48 -49 -88.5 -71t-86.5 -22z" />
    <glyph glyph-name="uni044A" unicode="&#x44a;" horiz-adv-x="582" 
d="M30 415q-10 0 -10 10v53q0 10 10 10h162v-73h-162zM328 -12q-95 0 -137.5 43.5t-42.5 139.5v307q0 10 10 10h65q10 0 10 -10v-321q0 -49 25.5 -73.5t75.5 -24.5t78 25.5t28 72.5v49q0 41 -20 61.5t-58 20.5q-41 0 -76 -23.5t-64 -67.5l-1 83q35 41 74.5 62t89.5 21
q69 0 105.5 -39t36.5 -115v-43q0 -88 -51 -133t-148 -45z" />
    <glyph glyph-name="uni044B" unicode="&#x44b;" horiz-adv-x="717" 
d="M255 -12q-95 0 -137.5 43.5t-42.5 139.5v307q0 10 10 10h65q10 0 10 -10v-321q0 -49 25.5 -73.5t75.5 -24.5t78 25.5t28 72.5v49q0 41 -20 61.5t-58 20.5q-41 0 -76 -23.5t-64 -67.5l-1 83q35 41 74.5 62t89.5 21q69 0 105.5 -39t36.5 -115v-43q0 -88 -51 -133t-148 -45z
M567 0q-10 0 -10 10v468q0 10 10 10h65q10 0 10 -10v-468q0 -10 -10 -10h-65z" />
    <glyph glyph-name="uni044C" unicode="&#x44c;" horiz-adv-x="509" 
d="M255 -12q-95 0 -137.5 43.5t-42.5 139.5v307q0 10 10 10h65q10 0 10 -10v-321q0 -49 25.5 -73.5t75.5 -24.5t78 25.5t28 72.5v49q0 41 -20 61.5t-58 20.5q-41 0 -76 -23.5t-64 -67.5l-1 83q35 41 74.5 62t89.5 21q69 0 105.5 -39t36.5 -115v-43q0 -88 -51 -133t-148 -45z
" />
    <glyph glyph-name="uni044D" unicode="&#x44d;" horiz-adv-x="509" 
d="M246 -12q-64 0 -109 16.5t-67 45.5t-19 67q1 18 12 18h66q9 0 9 -15q0 -28 27 -42.5t78 -14.5q62 0 90.5 23t28.5 74v53h-214q-10 0 -10 10v50q0 10 10 10h214v48q0 47 -28 70.5t-87 23.5q-47 0 -74 -15t-27 -41q0 -14 -9 -14h-66q-11 0 -12 17q-3 39 19 67.5t66.5 44.5
t108.5 16q97 0 145.5 -43t48.5 -129v-158q0 -92 -50 -137t-151 -45z" />
    <glyph glyph-name="uni044E" unicode="&#x44e;" horiz-adv-x="730" 
d="M75 394v279q0 10 10 10h65q10 0 10 -10v-279h-85zM469 -12q-97 0 -148 49t-51 145v124q0 96 51 145t148 49t148 -49t51 -145v-124q0 -96 -51 -145t-148 -49zM85 0q-10 0 -10 10v468q0 10 10 10h65q10 0 10 -10v-192h133v-73h-133v-203q0 -10 -10 -10h-65zM469 63
q59 0 86.5 32.5t27.5 94.5v108q0 62 -27.5 94.5t-86.5 32.5q-58 0 -86 -32.5t-28 -94.5v-108q0 -62 28 -94.5t86 -32.5z" />
    <glyph glyph-name="uni044F" unicode="&#x44f;" horiz-adv-x="506" 
d="M45 0q-6 0 -8 3.5t1 8.5l69 108q12 19 24.5 38t25.5 38v1q-48 14 -73.5 47t-25.5 89q0 52 21 86.5t61.5 51.5t97.5 17h183q10 0 10 -10v-468q0 -10 -10 -10h-65q-10 0 -10 10v174h-104l-109 -177q-4 -7 -13 -7h-75zM252 256h94v159h-109q-54 0 -74 -21.5t-20 -59.5
q0 -43 26.5 -60.5t82.5 -17.5z" />
    <glyph glyph-name="uni0450" unicode="&#x450;" horiz-adv-x="519" 
d="M261 -12q-96 0 -147.5 45t-51.5 133v140q0 95 51 144.5t148 49.5t147.5 -48.5t50.5 -140.5v-78q0 -10 -10 -10h-302v-32q0 -67 28 -97.5t91 -30.5q47 0 72.5 15.5t25.5 45.5q0 11 11 11h65q8 0 10 -9q4 -64 -47 -101t-142 -37zM147 296h227v6q0 63 -28 93t-84 30
q-58 0 -86.5 -31t-28.5 -93v-5zM254 568q-7 0 -11 6l-83 122q-3 4 -1.5 7.5t6.5 3.5h70q9 0 12 -7l66 -122q5 -10 -5 -10h-54z" />
    <glyph glyph-name="uni0451" unicode="&#x451;" horiz-adv-x="519" 
d="M261 -12q-96 0 -147.5 45t-51.5 133v140q0 95 51 144.5t148 49.5t147.5 -48.5t50.5 -140.5v-78q0 -10 -10 -10h-302v-32q0 -67 28 -97.5t91 -30.5q47 0 72.5 15.5t25.5 45.5q0 11 11 11h65q8 0 10 -9q4 -64 -47 -101t-142 -37zM147 296h227v6q0 63 -28 93t-84 30
q-58 0 -86.5 -31t-28.5 -93v-5zM173 582q-28 0 -40 14.5t-12 36.5v10q0 23 12 37t40 14t40 -14t12 -37v-10q0 -22 -12 -36.5t-40 -14.5zM342 582q-28 0 -40 14.5t-12 36.5v10q0 23 12 37t40 14t40 -14t12 -37v-10q0 -22 -12 -36.5t-40 -14.5z" />
    <glyph glyph-name="uni0452" unicode="&#x452;" horiz-adv-x="557" 
d="M363 -190q-8 -5 -14 3l-39 49q-3 5 -2 8t5 6q27 18 45.5 44t28 62t9.5 82v265q0 49 -20 72.5t-61 23.5q-37 0 -74.5 -20.5t-80.5 -64.5v-330q0 -10 -10 -10h-65q-10 0 -10 10v543h-71q-10 0 -10 10v50q0 10 10 10h71v50q0 10 10 10h65q10 0 10 -10v-50h107q10 0 10 -10
v-50q0 -10 -10 -10h-107v-136q44 44 85.5 63.5t88.5 19.5q72 0 109.5 -42t37.5 -125v-274q0 -60 -12.5 -107t-38.5 -82t-67 -60z" />
    <glyph glyph-name="uni0453" unicode="&#x453;" horiz-adv-x="477" 
d="M229 -12q-86 0 -131.5 26.5t-46.5 97.5q-1 56 25 90.5t82 55.5l113 42q37 14 49.5 30t12.5 42q0 30 -21.5 42t-67.5 12q-50 0 -74.5 -15t-24.5 -43q0 -15 -9 -15h-66q-9 0 -11 15q-6 57 42 94.5t142 37.5q83 0 129 -31.5t46 -97.5q0 -51 -24 -83t-82 -53l-116 -42
q-34 -12 -47.5 -30t-12.5 -48q1 -33 24.5 -44t72.5 -10q53 1 80.5 16.5t27.5 48.5q0 15 8 15h66q5 0 7.5 -2t3.5 -12q4 -61 -41.5 -100t-155.5 -39zM188 556q-10 0 -5 10l66 122q4 7 12 7h70q5 0 6.5 -3.5t-1.5 -7.5l-83 -122q-4 -6 -11 -6h-54z" />
    <glyph glyph-name="uni0454" unicode="&#x454;" horiz-adv-x="518" 
d="M263 -12q-100 0 -150.5 45t-50.5 137v158q0 86 48.5 129t145.5 43q64 0 108 -16t66.5 -44.5t19.5 -67.5q-1 -17 -12 -17h-66q-9 0 -9 14q0 26 -27 41t-74 15q-58 0 -86.5 -23.5t-28.5 -70.5v-48h214q10 0 10 -10v-50q0 -10 -10 -10h-214v-53q0 -51 28.5 -74t90.5 -23
q51 0 78 14.5t27 42.5q0 15 9 15h66q11 0 12 -18q4 -38 -18.5 -67t-67 -45.5t-109.5 -16.5z" />
    <glyph glyph-name="uni0455" unicode="&#x455;" horiz-adv-x="464" 
d="M233 -12q-90 0 -135 39.5t-45 118.5q0 9 10 9h66q9 0 9 -8q0 -45 22.5 -65t73.5 -20q49 0 74 16.5t25 47.5q0 23 -14 38.5t-44 28.5l-114 47q-55 23 -78 52t-23 75q0 66 42 99.5t125 33.5q85 0 132 -35.5t47 -100.5q0 -9 -10 -9h-66q-10 0 -10 16q0 26 -24 40.5t-66 14.5
q-43 0 -64 -14.5t-21 -44.5q0 -22 11.5 -33t46.5 -26l114 -48q53 -22 77 -52t24 -77q0 -69 -48 -106t-137 -37z" />
    <glyph glyph-name="uni0456" unicode="&#x456;" horiz-adv-x="235" 
d="M85 0q-10 0 -10 10v468q0 10 10 10h65q10 0 10 -10v-468q0 -10 -10 -10h-65zM118 570q-29 0 -42 15.5t-13 39.5v10q0 24 13 39.5t42 15.5t42 -15.5t13 -39.5v-10q0 -24 -13 -39.5t-42 -15.5z" />
    <glyph glyph-name="uni0457" unicode="&#x457;" horiz-adv-x="235" 
d="M85 0q-10 0 -10 10v468q0 10 10 10h65q10 0 10 -10v-468q0 -10 -10 -10h-65zM33 570q-28 0 -40 14.5t-12 36.5v10q0 23 12 37t40 14t40 -14t12 -37v-10q0 -22 -12 -36.5t-40 -14.5zM202 570q-28 0 -40 14.5t-12 36.5v10q0 23 12 37t40 14t40 -14t12 -37v-10
q0 -22 -12 -36.5t-40 -14.5z" />
    <glyph glyph-name="uni0458" unicode="&#x458;" horiz-adv-x="236" 
d="M42 -190q-8 -5 -14 3l-39 49q-3 5 -2 8t5 6q26 18 44.5 44.5t28.5 62t10 81.5v414q0 5 3 7.5t7 2.5h65q5 0 7.5 -2.5t2.5 -7.5v-419q0 -60 -12.5 -107t-38.5 -82t-67 -60zM118 570q-29 0 -42 15.5t-13 39.5v10q0 24 13 39.5t42 15.5t42 -15.5t13 -39.5v-10
q0 -24 -13 -39.5t-42 -15.5z" />
    <glyph glyph-name="uni0459" unicode="&#x459;" horiz-adv-x="738" 
d="M495 -12q-47 0 -78.5 11.5t-52.5 37t-36 67.5l-60 173q-10 29 -20 57.5t-19 56.5h-2q-9 -29 -18.5 -58t-20.5 -58l-94 -267q-3 -8 -11 -8h-70q-12 0 -7 12l169 462q5 14 17 14h72q12 0 17 -14l77 -212q38 50 84 75.5t99 25.5q69 0 105.5 -40t36.5 -114v-43
q0 -87 -49 -132.5t-139 -45.5zM496 59q47 0 73.5 25.5t26.5 72.5v49q0 41 -19.5 61.5t-57.5 20.5t-73.5 -22.5t-64.5 -66.5l24 -66q17 -46 36.5 -60t54.5 -14z" />
    <glyph glyph-name="uni045A" unicode="&#x45a;" horiz-adv-x="818" 
d="M85 0q-10 0 -10 10v468q0 10 10 10h65q10 0 10 -10v-192h227v-73h-227v-203q0 -10 -10 -10h-65zM564 -12q-95 0 -137.5 43.5t-42.5 139.5v307q0 10 10 10h65q10 0 10 -10v-321q0 -49 25.5 -73.5t75.5 -24.5t78 25.5t28 72.5v49q0 41 -20 61.5t-58 20.5q-41 0 -76 -23.5
t-64 -67.5l-1 83q35 41 74.5 62t89.5 21q69 0 105.5 -39t36.5 -115v-43q0 -88 -51 -133t-148 -45z" />
    <glyph glyph-name="uni045B" unicode="&#x45b;" horiz-adv-x="556" 
d="M4 553q-10 0 -10 10v50q0 10 10 10h261q10 0 10 -10v-50q0 -10 -10 -10h-190h-71zM406 0q-10 0 -10 10v319q0 49 -20 72.5t-61 23.5q-40 0 -81 -24.5t-89 -76.5l1 78q33 35 63 56.5t60.5 31.5t64.5 10q72 0 109.5 -42t37.5 -125v-323q0 -10 -10 -10h-65zM85 0
q-10 0 -10 10v663q0 10 10 10h65q10 0 10 -10v-663q0 -10 -10 -10h-65z" />
    <glyph glyph-name="uni045C" unicode="&#x45c;" horiz-adv-x="484" 
d="M479 12q3 -4 1 -8t-8 -4h-78q-8 0 -12 6l-150 221h-72v-217q0 -10 -10 -10h-65q-10 0 -10 10v663q0 10 10 10h65q10 0 10 -10v-378h69l139 187q5 6 13 6h75q6 0 8 -3.5t-2 -8.5l-158 -206zM226 556q-10 0 -5 10l66 122q4 7 12 7h70q5 0 6.5 -3.5t-1.5 -7.5l-83 -122
q-4 -6 -11 -6h-54z" />
    <glyph glyph-name="uni045D" unicode="&#x45d;" horiz-adv-x="542" 
d="M207 -12q-64 0 -98 43t-34 124v323q0 10 10 10h65q10 0 10 -10v-319q0 -49 17.5 -72.5t54.5 -23.5t74.5 23t93.5 80l-2 -79q-32 -33 -64 -55t-63.5 -33t-63.5 -11zM407 0q-11 0 -12 10q-3 19 -5 39t-3 41l-5 42v346q0 10 10 10h65q10 0 10 -10v-356q0 -27 1.5 -56
t5.5 -56q2 -10 -11 -10h-56zM267 556q-7 0 -11 6l-83 122q-3 4 -1.5 7.5t6.5 3.5h70q9 0 12 -7l66 -122q5 -10 -5 -10h-54z" />
    <glyph glyph-name="uni045E" unicode="&#x45e;" horiz-adv-x="497" 
d="M145 -185q-12 0 -7 12l71 179l-185 470q-5 12 7 12h71q8 0 11 -8l90 -242q12 -31 23.5 -64t22.5 -65h1q11 32 23.5 65t23.5 64l90 242q3 8 12 8h67q13 0 8 -12l-253 -653q-3 -8 -11 -8h-65zM246 556q-34 0 -58.5 9.5t-39.5 21t-22 18.5q-4 4 -4 12v54q0 6 3 8.5t8 -2.5
q14 -13 43.5 -31.5t69.5 -18.5q41 0 70.5 18.5t42.5 31.5q5 5 8 2.5t3 -8.5v-54q0 -4 -1 -7t-3 -5q-7 -7 -22 -18.5t-39 -21t-59 -9.5z" />
    <glyph glyph-name="uni045F" unicode="&#x45f;" horiz-adv-x="542" 
d="M222 -120q-4 0 -7 3t-3 7v140h79v-140q0 -4 -2.5 -7t-7.5 -3h-59zM207 -12q-64 0 -98 43t-34 124v323q0 10 10 10h65q10 0 10 -10v-319q0 -49 17.5 -72.5t54.5 -23.5t74.5 23t93.5 80l-2 -79q-32 -33 -64 -55t-63.5 -33t-63.5 -11zM407 0q-11 0 -12 10q-3 19 -5 39t-3 41
l-5 42v346q0 10 10 10h65q10 0 10 -10v-356q0 -27 1.5 -56t5.5 -56q2 -10 -11 -10h-56z" />
    <glyph glyph-name="uni0490" unicode="&#x490;" horiz-adv-x="475" 
d="M95 0q-10 0 -10 10v635q0 10 10 10h340q10 0 10 -10v-57q0 -10 -10 -10h-265v-568q0 -10 -10 -10h-65zM363 589v192q0 5 3 7.5t7 2.5h62q5 0 7.5 -2.5t2.5 -7.5v-192h-82z" />
    <glyph glyph-name="uni0491" unicode="&#x491;" horiz-adv-x="417" 
d="M86 -12q-16 0 -31 2t-37 11q-8 3 -8 11v55q0 5 3.5 7t8.5 0q14 -6 28 -9t24 -3q17 0 24.5 11.5t10.5 53.5l12 181q6 93 40.5 140.5t116.5 47.5q35 0 51.5 10t21.5 26q3 10 3 21v19t11 8h55q7 0 7 -12q0 -32 -5 -58.5t-19 -43.5q-15 -19 -39 -30.5t-74 -13.5
q-43 -1 -61 -27t-23 -89l-12 -161q-6 -85 -31.5 -121t-76.5 -36z" />
    <glyph glyph-name="uni04C0" unicode="&#x4c0;" horiz-adv-x="255" 
d="M95 0q-10 0 -10 10v635q0 10 10 10h65q10 0 10 -10v-635q0 -10 -10 -10h-65z" />
    <glyph glyph-name="uni04CF" unicode="&#x4cf;" horiz-adv-x="235" 
d="M85 0q-10 0 -10 10v663q0 10 10 10h65q10 0 10 -10v-663q0 -10 -10 -10h-65z" />
    <glyph glyph-name="uni04E2" unicode="&#x4e2;" horiz-adv-x="658" 
d="M95 0q-10 0 -10 10v635q0 10 10 10h63q10 0 10 -10v-312q0 -62 -1 -102t-2.5 -66.5t-2.5 -49.5h2q13 23 27 49t37 66t61 103l189 315q5 7 12 7h73q10 0 10 -10v-635q0 -10 -10 -10h-63q-10 0 -10 10v300q0 76 2.5 136.5t4.5 94.5h-2q-12 -22 -26.5 -48.5t-39 -69
t-67.5 -113.5l-182 -303q-5 -7 -12 -7h-73zM221 717q-10 0 -10 10v52q0 10 10 10h215q10 0 10 -10v-52q0 -10 -10 -10h-215z" />
    <glyph glyph-name="uni04E3" unicode="&#x4e3;" horiz-adv-x="542" 
d="M207 -12q-64 0 -98 43t-34 124v323q0 10 10 10h65q10 0 10 -10v-319q0 -49 17.5 -72.5t54.5 -23.5t74.5 23t93.5 80l-2 -79q-32 -33 -64 -55t-63.5 -33t-63.5 -11zM407 0q-11 0 -12 10q-3 19 -5 39t-3 41l-5 42v346q0 10 10 10h65q10 0 10 -10v-356q0 -27 1.5 -56
t5.5 -56q2 -10 -11 -10h-56zM173 570q-10 0 -10 10v52q0 10 10 10h195q10 0 10 -10v-52q0 -10 -10 -10h-195z" />
    <glyph glyph-name="uni04EE" unicode="&#x4ee;" horiz-adv-x="547" 
d="M137 0q-5 0 -7 3.5t0 8.5l108 218l-212 413q-2 5 0 8.5t7 3.5h74q9 0 12 -7l116 -236q12 -24 24 -47.5t22 -47.5h2q11 24 22.5 47.5t23.5 47.5l117 236q3 7 12 7h71q5 0 7 -3.5t0 -8.5l-322 -636q-3 -7 -12 -7h-65zM173 717q-10 0 -10 10v52q0 10 10 10h215q10 0 10 -10
v-52q0 -10 -10 -10h-215z" />
    <glyph glyph-name="uni04EF" unicode="&#x4ef;" horiz-adv-x="497" 
d="M145 -185q-12 0 -7 12l71 179l-185 470q-5 12 7 12h71q8 0 11 -8l90 -242q12 -31 23.5 -64t22.5 -65h1q11 32 23.5 65t23.5 64l90 242q3 8 12 8h67q13 0 8 -12l-253 -653q-3 -8 -11 -8h-65zM148 570q-10 0 -10 10v52q0 10 10 10h195q10 0 10 -10v-52q0 -10 -10 -10h-195z
" />
    <glyph glyph-name="Wgrave" unicode="&#x1e80;" horiz-adv-x="847" 
d="M215 0q-9 0 -11 8l-183 636q-3 11 9 11h66q9 0 11 -8l116 -413q7 -23 13 -46.5t12.5 -47t12.5 -47.5h1q11 35 21.5 69t20.5 68l84 279l-36 125q-1 5 1.5 8t7.5 3h68q9 0 11 -9l113 -415q9 -32 17.5 -64t17.5 -64h1l12 46l12 46l12 46l112 416q2 8 11 8h69q12 0 9 -11
l-176 -636q-2 -8 -11 -8h-95q-9 0 -11 8l-68 235q-10 33 -19 66l-18 66h-1q-10 -32 -19.5 -64.5t-19.5 -64.5l-71 -238q-3 -8 -11 -8h-91zM415 710q-7 0 -11 6l-72 101q-3 5 -1.5 8.5t6.5 3.5h73q7 0 10 -7l56 -102q2 -4 1 -7t-6 -3h-56z" />
    <glyph glyph-name="wgrave" unicode="&#x1e81;" horiz-adv-x="716" 
d="M182 0q-8 0 -11 9l-145 468q-3 11 8 11h70q8 0 11 -9l79 -276l18 -64l18 -64h2l20 62l20 62l54 167l-30 101q-3 11 8 11h63q9 0 11 -8l74 -272q8 -31 16 -61.5t16 -61.5h2q9 32 17.5 63.5t17.5 62.5l80 278q3 9 11 9h70q11 0 8 -11l-146 -468q-3 -9 -11 -9h-91
q-8 0 -11 8l-31 102q-10 34 -19 69t-19 75h-2q-10 -40 -20.5 -74t-21.5 -67l-34 -105q-3 -8 -11 -8h-91zM354 556q-7 0 -11 6l-83 122q-3 4 -1.5 7.5t6.5 3.5h70q9 0 12 -7l66 -122q5 -10 -5 -10h-54z" />
    <glyph glyph-name="Wacute" unicode="&#x1e82;" horiz-adv-x="847" 
d="M215 0q-9 0 -11 8l-183 636q-3 11 9 11h66q9 0 11 -8l116 -413q7 -23 13 -46.5t12.5 -47t12.5 -47.5h1q11 35 21.5 69t20.5 68l84 279l-36 125q-1 5 1.5 8t7.5 3h68q9 0 11 -9l113 -415q9 -32 17.5 -64t17.5 -64h1l12 46l12 46l12 46l112 416q2 8 11 8h69q12 0 9 -11
l-176 -636q-2 -8 -11 -8h-95q-9 0 -11 8l-68 235q-10 33 -19 66l-18 66h-1q-10 -32 -19.5 -64.5t-19.5 -64.5l-71 -238q-3 -8 -11 -8h-91zM377 710q-5 0 -6 3t1 7l56 102q4 7 10 7h73q5 0 6.5 -3.5t-1.5 -8.5l-72 -101q-4 -6 -11 -6h-56z" />
    <glyph glyph-name="wacute" unicode="&#x1e83;" horiz-adv-x="716" 
d="M182 0q-8 0 -11 9l-145 468q-3 11 8 11h70q8 0 11 -9l79 -276l18 -64l18 -64h2l20 62l20 62l54 167l-30 101q-3 11 8 11h63q9 0 11 -8l74 -272q8 -31 16 -61.5t16 -61.5h2q9 32 17.5 63.5t17.5 62.5l80 278q3 9 11 9h70q11 0 8 -11l-146 -468q-3 -9 -11 -9h-91
q-8 0 -11 8l-31 102q-10 34 -19 69t-19 75h-2q-10 -40 -20.5 -74t-21.5 -67l-34 -105q-3 -8 -11 -8h-91zM307 556q-10 0 -5 10l66 122q4 7 12 7h70q5 0 6.5 -3.5t-1.5 -7.5l-83 -122q-4 -6 -11 -6h-54z" />
    <glyph glyph-name="Wdieresis" unicode="&#x1e84;" horiz-adv-x="847" 
d="M215 0q-9 0 -11 8l-183 636q-3 11 9 11h66q9 0 11 -8l116 -413q7 -23 13 -46.5t12.5 -47t12.5 -47.5h1q11 35 21.5 69t20.5 68l84 279l-36 125q-1 5 1.5 8t7.5 3h68q9 0 11 -9l113 -415q9 -32 17.5 -64t17.5 -64h1l12 46l12 46l12 46l112 416q2 8 11 8h69q12 0 9 -11
l-176 -636q-2 -8 -11 -8h-95q-9 0 -11 8l-68 235q-10 33 -19 66l-18 66h-1q-10 -32 -19.5 -64.5t-19.5 -64.5l-71 -238q-3 -8 -11 -8h-91zM340 711q-28 0 -40 14.5t-12 36.5v10q0 23 12 37t40 14t40 -14t12 -37v-10q0 -22 -12 -36.5t-40 -14.5zM508 711q-28 0 -40 14.5
t-12 36.5v10q0 23 12 37t40 14t40 -14t12 -37v-10q0 -22 -12 -36.5t-40 -14.5z" />
    <glyph glyph-name="wdieresis" unicode="&#x1e85;" horiz-adv-x="716" 
d="M182 0q-8 0 -11 9l-145 468q-3 11 8 11h70q8 0 11 -9l79 -276l18 -64l18 -64h2l20 62l20 62l54 167l-30 101q-3 11 8 11h63q9 0 11 -8l74 -272q8 -31 16 -61.5t16 -61.5h2q9 32 17.5 63.5t17.5 62.5l80 278q3 9 11 9h70q11 0 8 -11l-146 -468q-3 -9 -11 -9h-91
q-8 0 -11 8l-31 102q-10 34 -19 69t-19 75h-2q-10 -40 -20.5 -74t-21.5 -67l-34 -105q-3 -8 -11 -8h-91zM273 570q-28 0 -40 14.5t-12 36.5v10q0 23 12 37t40 14t40 -14t12 -37v-10q0 -22 -12 -36.5t-40 -14.5zM442 570q-28 0 -40 14.5t-12 36.5v10q0 23 12 37t40 14t40 -14
t12 -37v-10q0 -22 -12 -36.5t-40 -14.5z" />
    <glyph glyph-name="uni1E9E" unicode="&#x1e9e;" horiz-adv-x="651" 
d="M395 -12q-56 0 -95 17.5t-58.5 48.5t-16.5 72q1 11 4.5 13.5t8.5 2.5h59q10 0 10 -16q0 -31 22.5 -47.5t66.5 -16.5q63 0 94 33t31 100q0 71 -36.5 101.5t-121.5 30.5h-47q-10 0 -10 10v37q0 6 4 13l120 191h-260v-568q0 -10 -10 -10h-65q-10 0 -10 10v635q0 10 10 10
h458q8 0 9.5 -7.5t-3.5 -16.5l-152 -236q100 -6 149.5 -55t49.5 -143q0 -101 -54.5 -155t-156.5 -54z" />
    <glyph glyph-name="Ygrave" unicode="&#x1ef2;" horiz-adv-x="535" 
d="M235 0q-10 0 -10 10v215l-214 418q-2 5 0 8.5t7 3.5h76q9 0 12 -7l110 -226q13 -26 26 -53.5t26 -53.5h1q14 28 27 55t26 55l109 223q3 7 12 7h74q5 0 7 -3.5t0 -8.5l-214 -418v-215q0 -10 -10 -10h-65zM259 710q-7 0 -11 6l-72 101q-3 5 -1.5 8.5t6.5 3.5h73q7 0 10 -7
l56 -102q2 -4 1 -7t-6 -3h-56z" />
    <glyph glyph-name="ygrave" unicode="&#x1ef3;" horiz-adv-x="497" 
d="M145 -185q-12 0 -7 12l71 179l-185 470q-5 12 7 12h71q8 0 11 -8l90 -242q12 -31 23.5 -64t22.5 -65h1q11 32 23.5 65t23.5 64l90 242q3 8 12 8h67q13 0 8 -12l-253 -653q-3 -8 -11 -8h-65zM242 556q-7 0 -11 6l-83 122q-3 4 -1.5 7.5t6.5 3.5h70q9 0 12 -7l66 -122
q5 -10 -5 -10h-54z" />
    <glyph glyph-name="uni2007" unicode="&#x2007;" horiz-adv-x="520" 
 />
    <glyph glyph-name="uni2008" unicode="&#x2008;" horiz-adv-x="210" 
 />
    <glyph glyph-name="uni200B" unicode="&#x200b;" horiz-adv-x="10" 
 />
    <glyph glyph-name="endash" unicode="&#x2013;" horiz-adv-x="740" 
d="M80 233q-10 0 -10 10v45q0 10 10 10h580q10 0 10 -10v-45q0 -10 -10 -10h-580z" />
    <glyph glyph-name="emdash" unicode="&#x2014;" horiz-adv-x="880" 
d="M80 233q-10 0 -10 10v45q0 10 10 10h720q10 0 10 -10v-45q0 -10 -10 -10h-720z" />
    <glyph glyph-name="quoteleft" unicode="&#x2018;" horiz-adv-x="232" 
d="M192 655q12 0 9 -13l-50 -211q-2 -9 -10 -9h-76q-13 0 -8 14l72 212q3 7 9 7h54z" />
    <glyph glyph-name="quoteright" unicode="&#x2019;" horiz-adv-x="232" 
d="M40 422q-12 0 -9 13l50 211q2 9 10 9h76q13 0 8 -14l-72 -212q-3 -7 -9 -7h-54z" />
    <glyph glyph-name="quotesinglbase" unicode="&#x201a;" horiz-adv-x="232" 
d="M40 -128q-12 0 -9 13l50 211q2 9 10 9h76q13 0 8 -14l-72 -212q-3 -7 -9 -7h-54z" />
    <glyph glyph-name="quotedblleft" unicode="&#x201c;" horiz-adv-x="387" 
d="M347 655q12 0 9 -13l-50 -211q-2 -9 -10 -9h-76q-13 0 -8 14l72 212q3 7 9 7h54zM192 655q12 0 9 -13l-50 -211q-2 -9 -10 -9h-76q-13 0 -8 14l72 212q3 7 9 7h54z" />
    <glyph glyph-name="quotedblright" unicode="&#x201d;" horiz-adv-x="387" 
d="M40 422q-12 0 -9 13l50 211q2 9 10 9h76q13 0 8 -14l-72 -212q-3 -7 -9 -7h-54zM195 422q-12 0 -9 13l50 211q2 9 10 9h76q13 0 8 -14l-72 -212q-3 -7 -9 -7h-54z" />
    <glyph glyph-name="quotedblbase" unicode="&#x201e;" horiz-adv-x="387" 
d="M40 -128q-12 0 -9 13l50 211q2 9 10 9h76q13 0 8 -14l-72 -212q-3 -7 -9 -7h-54zM195 -128q-12 0 -9 13l50 211q2 9 10 9h76q13 0 8 -14l-72 -212q-3 -7 -9 -7h-54z" />
    <glyph glyph-name="dagger" unicode="&#x2020;" horiz-adv-x="489" 
d="M212 0q-10 0 -10 10v398h-172q-10 0 -10 10v60q0 10 10 10h172v157q0 10 10 10h65q10 0 10 -10v-157h172q10 0 10 -10v-60q0 -10 -10 -10h-172v-398q0 -10 -10 -10h-65z" />
    <glyph glyph-name="daggerdbl" unicode="&#x2021;" horiz-adv-x="509" 
d="M222 0q-10 0 -10 10v148h-172q-10 0 -10 10v60q0 10 10 10h172v179h-172q-10 0 -10 10v60q0 10 10 10h172v148q0 10 10 10h65q10 0 10 -10v-148h172q10 0 10 -10v-60q0 -10 -10 -10h-172v-179h172q10 0 10 -10v-60q0 -10 -10 -10h-172v-148q0 -10 -10 -10h-65z" />
    <glyph glyph-name="bullet" unicode="&#x2022;" horiz-adv-x="297" 
d="M148 170q-39 0 -61 17.5t-22 50.5v45q0 33 22 50.5t61 17.5q40 0 62 -17.5t22 -50.5v-45q0 -33 -22 -50.5t-62 -17.5z" />
    <glyph glyph-name="ellipsis" unicode="&#x2026;" horiz-adv-x="690" 
d="M574 -12q-30 0 -43 15.5t-13 40.5v10q0 25 13 40.5t43 15.5t43 -15.5t13 -40.5v-10q0 -25 -13 -40.5t-43 -15.5zM116 -12q-30 0 -43 15.5t-13 40.5v10q0 25 13 40.5t43 15.5t43 -15.5t13 -40.5v-10q0 -25 -13 -40.5t-43 -15.5zM345 -12q-30 0 -43 15.5t-13 40.5v10
q0 25 13 40.5t43 15.5t43 -15.5t13 -40.5v-10q0 -25 -13 -40.5t-43 -15.5z" />
    <glyph glyph-name="perthousand" unicode="&#x2030;" horiz-adv-x="1353" 
d="M1125 -12q-85 0 -127 42t-42 118v30q0 77 42.5 118.5t126.5 41.5q85 0 126.5 -41.5t41.5 -118.5v-30q0 -76 -42 -118t-126 -42zM1125 52q49 0 71 22t22 72v34q0 51 -22 72.5t-71 21.5t-71.5 -22t-22.5 -72v-34q0 -50 22.5 -72t71.5 -22zM247 0q-14 0 -7 12l197 329
l180 309q5 7 12 7h66q14 0 7 -12l-186 -310l-191 -328q-5 -7 -12 -7h-66zM229 317q-85 0 -127 42t-42 118v30q0 77 42.5 118.5t126.5 41.5q85 0 126.5 -41.5t41.5 -118.5v-30q0 -76 -42 -118t-126 -42zM229 381q49 0 71 22t22 72v34q0 51 -22 72.5t-71 21.5t-71.5 -22
t-22.5 -72v-34q0 -50 22.5 -72t71.5 -22zM713 -12q-85 0 -126.5 42t-41.5 118v30q0 77 42 118.5t126 41.5q85 0 127 -41.5t42 -118.5v-30q0 -76 -42.5 -118t-126.5 -42zM713 52q49 0 71.5 22t22.5 72v34q0 50 -22 72t-72 22q-49 0 -71 -22t-22 -72v-34q0 -51 22 -72.5
t71 -21.5z" />
    <glyph glyph-name="guilsinglleft" unicode="&#x2039;" horiz-adv-x="328" 
d="M178 93q-7 0 -12 7l-92 156q-5 7 0 14l92 156q5 7 12 7h66q5 0 7.5 -3.5t-0.5 -8.5l-86 -158l86 -158q3 -5 0.5 -8.5t-7.5 -3.5h-66z" />
    </font>
</defs>
</svg>
